<svg width="463" height="463" viewBox="0 0 463 463" fill="none" xmlns="http://www.w3.org/2000/svg">
<g clip-path="url(#clip0_334_22169)">
<path fill-rule="evenodd" clip-rule="evenodd" d="M271.877 291.262C312.63 281.153 353.722 263.543 382.703 233.197C393.249 222.157 400.702 209.408 408.451 196.425C408.996 195.516 408.698 194.33 407.785 193.782C406.868 193.237 405.683 193.535 405.138 194.452C397.537 207.183 390.255 219.706 379.913 230.533C351.344 260.448 310.768 277.696 270.592 287.61L270.389 287.004C268.21 280.421 260.687 274.776 250.737 270.728C236.476 264.923 217.301 262.199 203.545 263.584C197.363 264.207 192.246 265.688 189.004 267.98C186.475 269.765 184.994 272.052 184.729 274.782C184.169 280.6 188.789 285.436 196.554 288.846C212.793 295.981 242.774 297.531 255.844 294.875C259.926 294.045 264.028 293.146 268.134 292.17C268.548 293.317 268.95 294.442 269.291 295.554C270.253 298.725 270.722 301.837 269.436 305.437C267.426 311.045 263.089 315.656 257.833 319.477C249.626 325.434 239.157 329.441 231.111 332.021C186.299 346.384 147.735 335.558 116.339 318.013C84.6339 300.287 60.1815 275.724 43.9033 262.926C43.0673 262.266 41.8565 262.416 41.1966 263.252C40.5367 264.088 40.6825 265.302 41.5222 265.958C57.9044 278.84 82.5411 303.538 114.46 321.377C146.687 339.395 186.287 350.437 232.287 335.697C240.668 333.011 251.553 328.803 260.098 322.599C266.013 318.301 270.806 313.047 273.068 306.735C275.095 301.07 273.691 296.398 271.877 291.262ZM266.827 288.516L266.729 288.213C264.825 282.459 257.985 277.841 249.284 274.302C235.58 268.724 217.155 266.092 203.93 267.425C199.395 267.879 195.493 268.794 192.666 270.26C190.336 271.473 188.773 273.03 188.572 275.152C188.373 277.155 189.183 278.924 190.657 280.501C192.383 282.355 194.967 283.936 198.103 285.316C213.707 292.17 242.517 293.648 255.076 291.095C258.975 290.299 262.896 289.443 266.827 288.516Z" fill="white"/>
<path fill-rule="evenodd" clip-rule="evenodd" d="M408.042 188.716C408.477 189.441 408.762 190.589 409.054 191.828C409.753 194.778 410.107 198.277 410.341 199.92C410.494 200.976 411.474 201.704 412.527 201.554C413.584 201.401 414.315 200.424 414.162 199.368C413.873 197.357 413.392 192.695 412.393 189.379C411.856 187.6 411.12 186.176 410.303 185.416C408.914 184.12 407.01 184.256 404.864 186.311C402.327 188.743 398.695 194.442 393.233 196.561C392.241 196.944 391.748 198.067 392.134 199.055C392.52 200.051 393.637 200.544 394.632 200.158C399.839 198.135 403.67 193.325 406.415 190.27C406.938 189.69 407.627 189.075 408.042 188.716Z" fill="white"/>
</g>
<defs>
<clipPath id="clip0_334_22169">
<rect width="327.131" height="327.131" fill="white" transform="translate(0.202881 220.723) rotate(-42.3846)"/>
</clipPath>
</defs>
</svg>
