<svg width="299" height="299" viewBox="0 0 299 299" fill="none" xmlns="http://www.w3.org/2000/svg">
<g clip-path="url(#clip0_334_22174)">
<path fill-rule="evenodd" clip-rule="evenodd" d="M126.863 160.8C128.033 160.47 129.183 159.911 130.33 159.352C136.556 156.746 143.828 153.821 148.99 149.226C155.751 143.11 158.02 136.682 157.435 130.495C156.603 121.787 149.418 113.387 140.143 108.628C130.948 103.862 119.823 102.493 111.309 106.678C105.469 109.482 100.747 114.963 98.6772 123.916C96.273 134.052 99.7176 143.231 106.125 151.005C108.538 154.035 111.349 156.568 114.421 159.08C110.743 160.085 107.029 161.093 103.262 162.104C90.8919 164.999 77.766 166.572 65.0819 166.952C48.3224 167.677 32.0546 165.587 16.0759 160.471C14.6105 160.133 13.0358 160.959 12.5651 162.385C12.0967 163.811 12.9114 165.358 14.3961 165.925C31.0019 171.219 47.9175 173.486 65.333 172.705C78.3646 172.065 91.8905 170.688 104.605 167.533C109.867 166.164 115.03 164.804 120.114 163.219C127.359 167.919 135.26 171.408 141.896 173.388C186.214 185.808 242.297 160.044 279.479 136.109C280.783 135.306 281.165 133.655 280.329 132.34C279.49 131.025 277.761 130.709 276.457 131.513C240.467 154.654 186.32 180.025 143.422 167.946C138.377 166.525 132.512 164.018 126.863 160.8ZM120.934 156.912C123.35 156.246 125.73 155.353 128.083 154.23C133.775 151.669 140.514 149.252 145.252 145.155C150.359 140.565 152.303 135.779 151.869 131.196C151.173 123.863 145.063 117.451 137.569 113.696C129.977 109.718 120.806 108.184 113.79 111.78C109.266 114.011 105.736 118.237 104.122 125.073C102.154 133.555 105.18 141.151 110.447 147.405C113.394 151.082 117.019 154.24 120.934 156.912Z" fill="white"/>
<path fill-rule="evenodd" clip-rule="evenodd" d="M279.672 133.325C278.959 134.54 277.845 135.789 276.729 137.038C274.591 139.529 272.293 141.803 271.145 143.748C264.054 155.436 255.696 169.54 252.595 182.969C252.237 184.385 253.178 185.922 254.684 186.257C256.189 186.592 257.706 185.771 258.045 184.125C261.034 171.399 269.152 158.006 275.94 146.575C277.193 144.621 279.961 141.847 282.157 139.352C284.01 137.116 285.452 134.915 285.864 132.801C286.18 131.619 285.547 129.594 282.848 128.436C279.032 126.911 268.731 126.164 267.728 126.018C257.566 124.568 248.602 123.017 241.571 114.834C240.568 113.764 238.799 113.683 237.612 114.476C236.444 115.499 236.324 117.357 237.329 118.427C245.338 127.683 255.433 130.062 267.008 131.624C267.733 131.562 273.886 131.966 278.225 132.985C278.701 133.175 279.203 133.133 279.672 133.325Z" fill="white"/>
</g>
<defs>
<clipPath id="clip0_334_22174">
<rect width="275.762" height="275.762" fill="white" transform="translate(274.781) rotate(85.1643)"/>
</clipPath>
</defs>
</svg>
