<svg width="200" height="200" viewBox="0 0 200 200" fill="none" xmlns="http://www.w3.org/2000/svg">
<g clip-path="url(#clip0_334_13417)">
<path fill-rule="evenodd" clip-rule="evenodd" d="M191.606 147.826C117.696 160.848 62.5245 108.918 32.8914 45.4543C32.3804 44.3652 31.0811 43.8905 29.992 44.4015C28.9029 44.9125 28.4283 46.2116 28.9393 47.3007C59.3986 112.543 116.386 165.509 192.366 152.12C193.55 151.914 194.341 150.782 194.133 149.593C193.927 148.409 192.795 147.618 191.606 147.826Z" fill="#FFE662"/>
<path fill-rule="evenodd" clip-rule="evenodd" d="M31.4703 47.5709C34.5898 49.7973 38.4737 52.6347 38.9238 52.9438C51.1224 61.3214 63.9668 67.3576 78.138 71.7258C79.2877 72.0817 80.5111 71.4334 80.8671 70.2836C81.2231 69.1339 80.5748 67.9106 79.425 67.5546C65.6818 63.3232 53.2233 57.4725 41.3915 49.3446C40.7015 48.8713 31.9745 42.4875 30.1129 41.3293C29.3516 40.8506 28.772 40.8163 28.6345 40.8213C27.9035 40.8196 27.4293 41.1213 27.1118 41.4235C26.756 41.7673 26.3069 42.4781 26.3184 43.5643C26.3349 44.701 26.9458 47.0385 27.0524 47.641C28.6348 56.736 31.1935 66.7488 31.6744 76.475C32.1338 85.7502 30.7016 94.7755 24.3571 102.359C23.5839 103.282 23.7096 104.66 24.6321 105.434C25.5546 106.207 26.9335 106.081 27.7067 105.159C34.7983 96.6788 36.5461 86.6268 36.0335 76.2618C35.5542 66.5932 33.0877 56.6485 31.4703 47.5709Z" fill="#FFE662"/>
</g>
<defs>
<clipPath id="clip0_334_13417">
<rect width="157.935" height="157.935" fill="white" transform="translate(150.305 0.361816) rotate(71.6953)"/>
</clipPath>
</defs>
</svg>
