<svg width="191" height="74" viewBox="0 0 191 74" fill="none" xmlns="http://www.w3.org/2000/svg">
<path d="M2.46936 23.6378C4.08345 23.912 5.61483 22.83 5.89166 21.2205L5.89195 21.2188L5.89475 21.2036C5.89855 21.183 5.90542 21.1465 5.9156 21.0951C5.93597 20.9925 5.96954 20.8309 6.01832 20.619C6.11602 20.1944 6.27375 19.5716 6.50698 18.8176C6.97678 17.2987 7.73566 15.3034 8.8903 13.3348C11.1977 9.40079 14.8331 5.91995 20.7693 5.91995C26.9481 5.91995 31.7253 9.58803 37.4627 14.1539L37.7685 14.3973C40.7687 16.7862 44.066 19.4118 47.8683 21.2591C50.8531 22.7092 54.149 23.6798 57.8564 23.6798C61.5476 23.6798 64.8307 22.7178 67.8051 21.2783C71.624 19.43 74.9338 16.7945 77.9444 14.3973L78.2502 14.1539C83.9876 9.58803 88.7647 5.91995 94.9436 5.91995C101.122 5.91995 105.9 9.58803 111.637 14.1539L111.943 14.3973C114.982 16.8172 118.326 19.4798 122.191 21.3305C125.136 22.741 128.384 23.6798 132.031 23.6798C135.661 23.6798 138.896 22.7494 141.831 21.3494C145.713 19.498 149.069 16.8254 152.119 14.3973L152.424 14.1539C158.162 9.58803 162.939 5.91995 169.118 5.91995C175.1 5.91995 179.03 9.45355 181.624 13.4489C182.914 15.4373 183.805 17.4484 184.372 18.9746C184.654 19.7329 184.852 20.3592 184.977 20.7865C185.04 20.9999 185.084 21.1626 185.111 21.2664C185.125 21.3183 185.134 21.3553 185.139 21.3764L185.143 21.3909L185.143 21.3941L185.144 21.3954L185.144 21.3964C185.518 22.9854 187.111 23.9729 188.705 23.6027C190.301 23.232 191.294 21.6409 190.922 20.0487L188.032 20.7198C190.922 20.0487 190.921 20.0463 190.921 20.0463L190.921 20.0434L190.919 20.0365L190.915 20.0179L190.901 19.9613C190.89 19.9152 190.874 19.8525 190.853 19.7743C190.813 19.6179 190.753 19.3992 190.673 19.1269C190.514 18.5829 190.273 17.8217 189.936 16.9151C189.265 15.1113 188.196 12.6825 186.604 10.2309C183.433 5.34632 177.906 0 169.118 0C160.688 0 154.385 5.01831 149.03 9.28246L148.724 9.52593C142.987 14.0918 138.21 17.7598 132.031 17.7598C125.852 17.7598 121.075 14.0918 115.337 9.52593L115.032 9.28246C109.676 5.01831 103.374 0 94.9436 0C86.5132 0 80.2109 5.0183 74.8557 9.28245L74.5498 9.52593C68.8124 14.0918 64.0353 17.7598 57.8564 17.7598C51.6776 17.7598 46.9004 14.0918 41.163 9.52593L40.8572 9.28245C35.502 5.0183 29.1997 0 20.7693 0C11.9352 0 6.66967 5.39907 3.76873 10.345C2.3192 12.8164 1.39704 15.261 0.836854 17.0721C0.555086 17.983 0.360584 18.7478 0.234803 19.2944C0.171832 19.5681 0.12585 19.7881 0.0946037 19.9456C0.0789744 20.0244 0.067013 20.0876 0.0584402 20.1341L0.0480811 20.1914L0.0447381 20.2104L0.0435141 20.2175L0.0430124 20.2204C0.0430124 20.2204 0.0425838 20.2229 2.96745 20.7198L0.0425837 20.2229C-0.232504 21.8344 0.853999 23.3633 2.46936 23.6378Z" fill="white"/>
<path d="M5.89166 46.3803C5.61482 47.9898 4.08345 49.0718 2.46936 48.7976C0.853999 48.5231 -0.232504 46.9942 0.0425837 45.3827L2.96745 45.8796C0.0425838 45.3827 0.0430124 45.3802 0.0430124 45.3802L0.0435141 45.3773L0.0447381 45.3702L0.0480811 45.3512L0.0584402 45.2939C0.067013 45.2473 0.0789744 45.1841 0.0946037 45.1054C0.12585 44.9479 0.171832 44.7279 0.234803 44.4542C0.360584 43.9076 0.555086 43.1428 0.836854 42.2318C1.39704 40.4207 2.3192 37.9761 3.76873 35.5048C6.66967 30.5588 11.9352 25.1598 20.7693 25.1598C29.1997 25.1598 35.502 30.1781 40.8572 34.4422L41.163 34.6857C46.9004 39.2515 51.6776 42.9196 57.8564 42.9196C64.0353 42.9196 68.8124 39.2515 74.5498 34.6857L74.8557 34.4422C80.2109 30.1781 86.5132 25.1598 94.9436 25.1598C103.374 25.1598 109.676 30.1781 115.032 34.4422L115.337 34.6857C121.075 39.2515 125.852 42.9196 132.031 42.9196C138.21 42.9196 142.987 39.2515 148.724 34.6857L149.03 34.4422C154.385 30.1781 160.688 25.1598 169.118 25.1598C177.906 25.1598 183.433 30.5061 186.604 35.3906C188.196 37.8423 189.265 40.2711 189.936 42.0748C190.273 42.9815 190.514 43.7427 190.673 44.2867C190.753 44.5589 190.813 44.7777 190.853 44.9341C190.874 45.0123 190.89 45.075 190.901 45.1211L190.915 45.1776L190.919 45.1963L190.921 45.2032L190.921 45.206C190.921 45.206 190.922 45.2085 188.032 45.8796L190.922 45.2085C191.294 46.8006 190.301 48.3918 188.705 48.7625C187.111 49.1327 185.518 48.1452 185.144 46.5562L185.144 46.5552L185.143 46.5539L185.143 46.5507L185.139 46.5362C185.134 46.5151 185.125 46.478 185.111 46.4262C185.084 46.3224 185.04 46.1596 184.977 45.9463C184.852 45.519 184.654 44.8927 184.372 44.1344C183.805 42.6082 182.914 40.597 181.624 38.6087C179.03 34.6133 175.1 31.0797 169.118 31.0797C162.939 31.0797 158.162 34.7478 152.424 39.3136L152.119 39.5571C149.069 41.9851 145.713 44.6578 141.831 46.5091C138.896 47.9091 135.661 48.8396 132.031 48.8396C128.384 48.8396 125.136 47.9008 122.191 46.4903C118.326 44.6396 114.982 41.9769 111.943 39.5571L111.637 39.3136C105.9 34.7478 101.122 31.0797 94.9436 31.0797C88.7647 31.0797 83.9876 34.7478 78.2502 39.3136L77.9444 39.5571C74.9338 41.9543 71.624 44.5898 67.8051 46.4381C64.8307 47.8776 61.5476 48.8396 57.8564 48.8396C54.149 48.8396 50.8531 47.869 47.8683 46.4189C44.066 44.5716 40.7687 41.946 37.7685 39.5571L37.4627 39.3136C31.7253 34.7478 26.9481 31.0797 20.7693 31.0797C14.8331 31.0797 11.1977 34.5606 8.8903 38.4946C7.73566 40.4632 6.97678 42.4585 6.50698 43.9774C6.27375 44.7314 6.11602 45.3541 6.01832 45.7787C5.96954 45.9907 5.93597 46.1522 5.9156 46.2549C5.90542 46.3062 5.89855 46.3427 5.89475 46.3634L5.89195 46.3786L5.89166 46.3803Z" fill="white"/>
<path d="M5.89195 71.5384L5.89182 71.5391C5.61541 73.1491 4.08376 74.2316 2.46936 73.9573C0.853999 73.6829 -0.232504 72.154 0.0425837 70.5424L2.96745 71.0394C0.0425838 70.5424 0.0430124 70.5399 0.0430124 70.5399L0.0435141 70.537L0.0447381 70.53L0.0480811 70.5109L0.0584402 70.4537C0.067013 70.4071 0.0789744 70.3439 0.0946037 70.2651C0.12585 70.1077 0.171832 69.8876 0.234803 69.614C0.360584 69.0674 0.555086 68.3026 0.836854 67.3916C1.39704 65.5805 2.3192 63.1359 3.76873 60.6645C6.66967 55.7186 11.9352 50.3195 20.7693 50.3195C29.1997 50.3195 35.502 55.3379 40.8572 59.602L41.163 59.8455C46.9004 64.4113 51.6776 68.0794 57.8564 68.0794C64.0353 68.0794 68.8124 64.4113 74.5498 59.8455L74.8557 59.602C80.2109 55.3379 86.5132 50.3195 94.9436 50.3195C103.374 50.3195 109.676 55.3379 115.032 59.602L115.337 59.8455C121.075 64.4113 125.852 68.0794 132.031 68.0794C138.21 68.0794 142.987 64.4113 148.724 59.8455L149.03 59.602C154.385 55.3379 160.688 50.3195 169.118 50.3195C177.906 50.3195 183.433 55.6659 186.604 60.5504C188.196 63.002 189.265 65.4309 189.936 67.2346C190.273 68.1413 190.514 68.9025 190.673 69.4464C190.753 69.7187 190.813 69.9375 190.853 70.0939C190.874 70.1721 190.89 70.2348 190.901 70.2809L190.915 70.3374L190.919 70.3561L190.921 70.363L190.921 70.3658C190.921 70.3658 190.922 70.3682 188.032 71.0394L190.922 70.3682C191.294 71.9604 190.301 73.5516 188.705 73.9223C187.111 74.2925 185.518 73.3049 185.144 71.716L185.144 71.7149L185.143 71.7136L185.143 71.7105L185.139 71.696C185.137 71.6864 185.133 71.6736 185.129 71.6577C185.125 71.6383 185.118 71.6144 185.111 71.586C185.084 71.4822 185.04 71.3194 184.977 71.1061C184.852 70.6788 184.654 70.0525 184.372 69.2942C183.805 67.7679 182.914 65.7568 181.624 63.7685C179.03 59.7731 175.1 56.2395 169.118 56.2395C162.939 56.2395 158.162 59.9076 152.424 64.4734L152.119 64.7169C149.069 67.1449 145.713 69.8175 141.831 71.6689C138.896 73.0689 135.661 73.9993 132.031 73.9993C128.384 73.9993 125.136 73.0606 122.191 71.65C118.326 69.7994 114.982 67.1367 111.943 64.7169L111.637 64.4734C105.9 59.9076 101.122 56.2395 94.9436 56.2395C88.7647 56.2395 83.9876 59.9076 78.2502 64.4734L77.9444 64.7169C74.9338 67.114 71.624 69.7495 67.8051 71.5978C64.8307 73.0373 61.5476 73.9993 57.8564 73.9993C54.149 73.9993 50.8531 73.0288 47.8683 71.5787C44.0661 69.7314 40.7687 67.1058 37.7686 64.7169L37.4627 64.4734C31.7253 59.9076 26.9481 56.2395 20.7693 56.2395C14.8331 56.2395 11.1977 59.7203 8.8903 63.6543C7.73566 65.6229 6.97678 67.6183 6.50698 69.1372C6.27375 69.8912 6.11602 70.5139 6.01832 70.9385C5.96954 71.1505 5.93597 71.312 5.9156 71.4147C5.90542 71.466 5.89855 71.5025 5.89475 71.5232L5.89195 71.5384Z" fill="white"/>
</svg>
