<svg width="1728" height="2590" viewBox="0 0 1728 2590" fill="none" xmlns="http://www.w3.org/2000/svg">
<rect width="1728" height="2590" fill="url(#paint0_linear_2401_537)"/>
<rect width="1728" height="2590" fill="url(#paint1_linear_2401_537)"/>
<path d="M-86 1692.91C3.87096 1502.08 265.43 1225.66 1058.49 1312.83C1851.55 1400 2208.57 948.83 2229.72 754.076" stroke="#FFE662" stroke-opacity="0.16" stroke-width="6"/>
<path d="M134.363 2152.81C134.091 2152.76 133.832 2152.95 133.785 2153.22C133.738 2153.49 133.92 2153.75 134.192 2153.8L134.363 2152.81ZM-151.208 2253.43L-150.871 2253.8L-151.208 2253.43ZM-99.8105 2215.06C-99.7499 2214.79 -99.9192 2214.52 -100.189 2214.46L-104.579 2213.48C-104.849 2213.42 -105.116 2213.59 -105.177 2213.86C-105.237 2214.13 -105.068 2214.39 -104.798 2214.45L-100.896 2215.33L-101.773 2219.23C-101.833 2219.5 -101.664 2219.77 -101.395 2219.83C-101.125 2219.89 -100.858 2219.72 -100.797 2219.45L-99.8105 2215.06ZM199.727 2195.08C212.712 2222.93 201.939 2258.79 173.721 2294.35C145.525 2329.88 100.005 2364.97 43.8368 2391.16L44.2594 2392.07C100.538 2365.82 146.192 2330.65 174.504 2294.97C202.796 2259.32 213.865 2223.03 200.633 2194.66L199.727 2195.08ZM43.8368 2391.16C-12.3313 2417.35 -68.4682 2429.67 -113.811 2428.43C-159.187 2427.19 -193.586 2412.39 -206.572 2384.54L-207.478 2384.96C-194.246 2413.34 -159.333 2428.19 -113.838 2429.43C-68.3099 2430.67 -12.0189 2418.31 44.2594 2392.07L43.8368 2391.16ZM134.192 2153.8C165.953 2159.28 189.49 2173.13 199.727 2195.08L200.633 2194.66C190.201 2172.29 166.286 2158.33 134.363 2152.81L134.192 2153.8ZM-206.572 2384.54C-215.002 2366.46 -213.423 2345.01 -203.546 2322.44C-193.668 2299.86 -175.509 2276.22 -150.871 2253.8L-151.544 2253.06C-176.251 2275.54 -194.512 2299.3 -204.462 2322.04C-214.412 2344.78 -216.068 2366.54 -207.478 2384.96L-206.572 2384.54ZM-150.871 2253.8C-136.113 2240.38 -119.035 2227.4 -100.031 2215.37L-100.566 2214.53C-119.615 2226.59 -136.74 2239.6 -151.544 2253.06L-150.871 2253.8Z" fill="url(#paint2_linear_2401_537)"/>
<path d="M134.711 2065C134.711 2113.32 95.5359 2152.5 47.2109 2152.5C95.5359 2152.5 134.711 2191.68 134.711 2240C134.711 2191.68 173.886 2152.5 222.211 2152.5C173.886 2152.5 134.711 2113.32 134.711 2065Z" fill="url(#paint3_radial_2401_537)"/>
<path d="M1569.29 1522.81C1569.56 1522.76 1569.82 1522.95 1569.87 1523.22C1569.91 1523.49 1569.73 1523.75 1569.46 1523.8L1569.29 1522.81ZM1854.86 1623.43L1854.52 1623.8L1854.86 1623.43ZM1803.46 1585.06C1803.4 1584.79 1803.57 1584.52 1803.84 1584.46L1808.23 1583.48C1808.5 1583.42 1808.77 1583.59 1808.83 1583.86C1808.89 1584.13 1808.72 1584.39 1808.45 1584.45L1804.55 1585.33L1805.42 1589.23C1805.48 1589.5 1805.31 1589.77 1805.05 1589.83C1804.78 1589.89 1804.51 1589.72 1804.45 1589.45L1803.46 1585.06ZM1503.92 1565.08C1490.94 1592.93 1501.71 1628.79 1529.93 1664.35C1558.13 1699.88 1603.65 1734.97 1659.81 1761.16L1659.39 1762.07C1603.11 1735.82 1557.46 1700.65 1529.15 1664.97C1500.85 1629.32 1489.79 1593.03 1503.02 1564.66L1503.92 1565.08ZM1659.81 1761.16C1715.98 1787.35 1772.12 1799.67 1817.46 1798.43C1862.84 1797.19 1897.24 1782.39 1910.22 1754.54L1911.13 1754.96C1897.9 1783.34 1862.98 1798.19 1817.49 1799.43C1771.96 1800.67 1715.67 1788.31 1659.39 1762.07L1659.81 1761.16ZM1569.46 1523.8C1537.7 1529.28 1514.16 1543.13 1503.92 1565.08L1503.02 1564.66C1513.45 1542.29 1537.36 1528.33 1569.29 1522.81L1569.46 1523.8ZM1910.22 1754.54C1918.65 1736.46 1917.07 1715.01 1907.2 1692.44C1897.32 1669.86 1879.16 1646.22 1854.52 1623.8L1855.19 1623.06C1879.9 1645.54 1898.16 1669.3 1908.11 1692.04C1918.06 1714.78 1919.72 1736.54 1911.13 1754.96L1910.22 1754.54ZM1854.52 1623.8C1839.76 1610.38 1822.69 1597.4 1803.68 1585.37L1804.22 1584.53C1823.27 1596.59 1840.39 1609.6 1855.19 1623.06L1854.52 1623.8Z" fill="url(#paint4_linear_2401_537)"/>
<path d="M1568.94 1435C1568.94 1483.32 1608.11 1522.5 1656.44 1522.5C1608.11 1522.5 1568.94 1561.68 1568.94 1610C1568.94 1561.68 1529.76 1522.5 1481.44 1522.5C1529.76 1522.5 1568.94 1483.32 1568.94 1435Z" fill="url(#paint5_radial_2401_537)"/>
<defs>
<linearGradient id="paint0_linear_2401_537" x1="1499.5" y1="1293.18" x2="3841.78" y2="1713.68" gradientUnits="userSpaceOnUse">
<stop stop-color="#1E1E1E"/>
<stop offset="1" stop-color="#1E1E1E" stop-opacity="0.91"/>
</linearGradient>
<linearGradient id="paint1_linear_2401_537" x1="-644.5" y1="-1165.68" x2="835.839" y2="-731.995" gradientUnits="userSpaceOnUse">
<stop stop-color="#FFE662" stop-opacity="0.39"/>
<stop offset="1" stop-color="#FFE662" stop-opacity="0"/>
</linearGradient>
<linearGradient id="paint2_linear_2401_537" x1="-168.756" y1="2236.61" x2="146.378" y2="2458.14" gradientUnits="userSpaceOnUse">
<stop stop-color="white" stop-opacity="0.4"/>
<stop offset="0.21784" stop-color="white"/>
<stop offset="0.578937" stop-color="white" stop-opacity="0.44"/>
<stop offset="1" stop-color="white" stop-opacity="0"/>
</linearGradient>
<radialGradient id="paint3_radial_2401_537" cx="0" cy="0" r="1" gradientUnits="userSpaceOnUse" gradientTransform="translate(134.711 2152.5) rotate(90) scale(101.172)">
<stop stop-color="#FFE662"/>
<stop offset="1" stop-color="#FFE662"/>
</radialGradient>
<linearGradient id="paint4_linear_2401_537" x1="1872.41" y1="1606.61" x2="1557.27" y2="1828.14" gradientUnits="userSpaceOnUse">
<stop stop-color="white" stop-opacity="0.4"/>
<stop offset="0.21784" stop-color="white"/>
<stop offset="0.578937" stop-color="white" stop-opacity="0.44"/>
<stop offset="1" stop-color="white" stop-opacity="0"/>
</linearGradient>
<radialGradient id="paint5_radial_2401_537" cx="0" cy="0" r="1" gradientUnits="userSpaceOnUse" gradientTransform="translate(1568.94 1522.5) rotate(90) scale(101.172)">
<stop stop-color="#FFE662"/>
<stop offset="1" stop-color="#FFE662"/>
</radialGradient>
</defs>
</svg>
