<svg width="272" height="422" viewBox="0 0 272 422" fill="none" xmlns="http://www.w3.org/2000/svg">
<path d="M113.288 87.8109C113.56 87.7639 113.819 87.9464 113.866 88.2185C113.913 88.4906 113.73 88.7493 113.458 88.7963L113.288 87.8109ZM398.858 188.434L398.522 188.804L398.858 188.434ZM347.461 150.062C347.4 149.792 347.57 149.525 347.839 149.464L352.23 148.478C352.499 148.417 352.766 148.586 352.827 148.856C352.888 149.125 352.718 149.393 352.449 149.453L348.546 150.33L349.423 154.233C349.484 154.502 349.315 154.77 349.045 154.831C348.776 154.891 348.508 154.722 348.448 154.452L347.461 150.062ZM47.9238 130.081C34.9383 157.928 45.7119 193.794 73.9292 229.351C102.126 264.881 147.645 299.967 203.814 326.159L203.391 327.065C147.113 300.822 101.458 265.648 73.1459 229.972C44.8547 194.322 33.7857 158.034 47.0175 129.658L47.9238 130.081ZM203.814 326.159C259.982 352.35 316.119 364.668 361.461 363.429C406.837 362.189 441.237 347.388 454.222 319.541L455.128 319.963C441.897 348.339 406.983 363.186 361.488 364.429C315.96 365.673 259.669 353.308 203.391 327.065L203.814 326.159ZM113.458 88.7963C81.6978 94.283 58.1605 108.128 47.9238 130.081L47.0175 129.658C57.4493 107.287 81.3645 93.3257 113.288 87.8109L113.458 88.7963ZM454.222 319.541C462.653 301.461 461.073 280.011 451.196 257.438C441.319 234.865 423.16 211.216 398.522 188.804L399.195 188.064C423.902 210.539 442.162 234.298 452.112 257.037C462.062 279.776 463.719 301.542 455.128 319.963L454.222 319.541ZM398.522 188.804C383.763 175.38 366.686 162.404 347.681 150.375L348.216 149.53C367.266 161.588 384.39 174.598 399.195 188.064L398.522 188.804Z" fill="url(#paint0_linear_2437_537)"/>
<path d="M112.939 0C112.939 48.3249 152.115 87.5 200.439 87.5C152.115 87.5 112.939 126.675 112.939 175C112.939 126.675 73.7644 87.5 25.4395 87.5C73.7644 87.5 112.939 48.3249 112.939 0Z" fill="url(#paint1_radial_2437_537)"/>
<defs>
<linearGradient id="paint0_linear_2437_537" x1="416.407" y1="171.608" x2="101.272" y2="393.138" gradientUnits="userSpaceOnUse">
<stop stop-color="white" stop-opacity="0.4"/>
<stop offset="0.21784" stop-color="white"/>
<stop offset="0.578937" stop-color="white" stop-opacity="0.44"/>
<stop offset="1" stop-color="white" stop-opacity="0"/>
</linearGradient>
<radialGradient id="paint1_radial_2437_537" cx="0" cy="0" r="1" gradientUnits="userSpaceOnUse" gradientTransform="translate(112.939 87.5) rotate(90) scale(101.172)">
<stop stop-color="#FFE662"/>
<stop offset="1" stop-color="#FFE662"/>
</radialGradient>
</defs>
</svg>
