<svg width="248" height="422" viewBox="0 0 248 422" fill="none" xmlns="http://www.w3.org/2000/svg">
<path d="M134.363 87.8109C134.091 87.7639 133.832 87.9464 133.785 88.2185C133.738 88.4906 133.92 88.7493 134.192 88.7963L134.363 87.8109ZM-151.208 188.434L-150.871 188.804L-151.208 188.434ZM-99.8105 150.062C-99.7499 149.792 -99.9192 149.525 -100.189 149.464L-104.579 148.478C-104.849 148.417 -105.116 148.586 -105.177 148.856C-105.237 149.125 -105.068 149.393 -104.798 149.453L-100.896 150.33L-101.773 154.233C-101.833 154.502 -101.664 154.77 -101.395 154.831C-101.125 154.891 -100.858 154.722 -100.797 154.452L-99.8105 150.062ZM199.727 130.081C212.712 157.928 201.939 193.794 173.721 229.351C145.525 264.881 100.005 299.967 43.8368 326.159L44.2594 327.065C100.538 300.822 146.192 265.648 174.504 229.972C202.796 194.322 213.865 158.034 200.633 129.658L199.727 130.081ZM43.8368 326.159C-12.3313 352.35 -68.4682 364.668 -113.811 363.429C-159.187 362.189 -193.586 347.388 -206.572 319.541L-207.478 319.963C-194.246 348.339 -159.333 363.186 -113.838 364.429C-68.3099 365.673 -12.0189 353.308 44.2594 327.065L43.8368 326.159ZM134.192 88.7963C165.953 94.283 189.49 108.128 199.727 130.081L200.633 129.658C190.201 107.287 166.286 93.3257 134.363 87.8109L134.192 88.7963ZM-206.572 319.541C-215.002 301.461 -213.423 280.011 -203.546 257.438C-193.668 234.865 -175.509 211.216 -150.871 188.804L-151.544 188.064C-176.251 210.539 -194.512 234.298 -204.462 257.037C-214.412 279.776 -216.068 301.542 -207.478 319.963L-206.572 319.541ZM-150.871 188.804C-136.113 175.38 -119.035 162.404 -100.031 150.375L-100.566 149.53C-119.615 161.588 -136.74 174.598 -151.544 188.064L-150.871 188.804Z" fill="url(#paint0_linear_2434_536)"/>
<path d="M134.711 0C134.711 48.3249 95.5359 87.5 47.2109 87.5C95.5359 87.5 134.711 126.675 134.711 175C134.711 126.675 173.886 87.5 222.211 87.5C173.886 87.5 134.711 48.3249 134.711 0Z" fill="url(#paint1_radial_2434_536)"/>
<defs>
<linearGradient id="paint0_linear_2434_536" x1="-168.756" y1="171.608" x2="146.378" y2="393.138" gradientUnits="userSpaceOnUse">
<stop stop-color="white" stop-opacity="0.4"/>
<stop offset="0.21784" stop-color="white"/>
<stop offset="0.578937" stop-color="white" stop-opacity="0.44"/>
<stop offset="1" stop-color="white" stop-opacity="0"/>
</linearGradient>
<radialGradient id="paint1_radial_2434_536" cx="0" cy="0" r="1" gradientUnits="userSpaceOnUse" gradientTransform="translate(134.711 87.5) rotate(90) scale(101.172)">
<stop stop-color="#FFE662"/>
<stop offset="1" stop-color="#FFE662"/>
</radialGradient>
</defs>
</svg>
