<svg width="1727" height="1117" viewBox="0 0 1727 1117" fill="none" xmlns="http://www.w3.org/2000/svg">
<g opacity="0.2" clip-path="url(#clip0_419_29339)">
<path d="M18 394.877C97.3202 178.529 273.875 -327.427 1112.89 -296.946C1951.9 -266.466 2367.3 -607.989 2374.21 -823" stroke="#263238" stroke-width="1.33686"/>
<g opacity="0.16">
<circle cx="1460.02" cy="93.0211" r="8.02115" fill="#263238"/>
<circle cx="1486.76" cy="93.0211" r="8.02115" fill="#263238"/>
<circle cx="1513.5" cy="93.0211" r="8.02115" fill="#263238"/>
<circle cx="1540.23" cy="93.0211" r="8.02115" fill="#263238"/>
<circle cx="1566.97" cy="93.0211" r="8.02115" fill="#263238"/>
<circle cx="1593.71" cy="93.0211" r="8.02115" fill="#263238"/>
<circle cx="1620.44" cy="93.0211" r="8.02115" fill="#263238"/>
<circle cx="1647.18" cy="93.0211" r="8.02115" fill="#263238"/>
<circle cx="1460.02" cy="119.758" r="8.02115" fill="#263238"/>
<circle cx="1486.76" cy="119.758" r="8.02115" fill="#263238"/>
<circle cx="1513.5" cy="119.758" r="8.02115" fill="#263238"/>
<circle cx="1540.23" cy="119.758" r="8.02115" fill="#263238"/>
<circle cx="1566.97" cy="119.758" r="8.02115" fill="#263238"/>
<circle cx="1593.71" cy="119.758" r="8.02115" fill="#263238"/>
<circle cx="1620.44" cy="119.758" r="8.02115" fill="#263238"/>
<circle cx="1647.18" cy="119.758" r="8.02115" fill="#263238"/>
<circle cx="1460.02" cy="146.496" r="8.02115" fill="#263238"/>
<circle cx="1486.76" cy="146.496" r="8.02115" fill="#263238"/>
<circle cx="1513.5" cy="146.496" r="8.02115" fill="#263238"/>
<circle cx="1540.23" cy="146.496" r="8.02115" fill="#263238"/>
<circle cx="1566.97" cy="146.496" r="8.02115" fill="#263238"/>
<circle cx="1593.71" cy="146.496" r="8.02115" fill="#263238"/>
<circle cx="1620.44" cy="146.496" r="8.02115" fill="#263238"/>
<circle cx="1647.18" cy="146.496" r="8.02115" fill="#263238"/>
<circle cx="1460.02" cy="173.233" r="8.02115" fill="#263238"/>
<circle cx="1486.76" cy="173.233" r="8.02115" fill="#263238"/>
<circle cx="1513.5" cy="173.233" r="8.02115" fill="#263238"/>
<circle cx="1540.23" cy="173.233" r="8.02115" fill="#263238"/>
<circle cx="1566.97" cy="173.233" r="8.02115" fill="#263238"/>
<circle cx="1593.71" cy="173.233" r="8.02115" fill="#263238"/>
<circle cx="1620.44" cy="173.233" r="8.02115" fill="#263238"/>
<circle cx="1647.18" cy="173.233" r="8.02115" fill="#263238"/>
<circle cx="1460.02" cy="199.97" r="8.02115" fill="#263238"/>
<circle cx="1486.76" cy="199.97" r="8.02115" fill="#263238"/>
<circle cx="1513.5" cy="199.97" r="8.02115" fill="#263238"/>
<circle cx="1540.23" cy="199.97" r="8.02115" fill="#263238"/>
<circle cx="1566.97" cy="199.97" r="8.02115" fill="#263238"/>
<circle cx="1593.71" cy="199.97" r="8.02115" fill="#263238"/>
<circle cx="1620.44" cy="199.97" r="8.02115" fill="#263238"/>
<circle cx="1647.18" cy="199.97" r="8.02115" fill="#263238"/>
<circle cx="1460.02" cy="226.707" r="8.02115" fill="#263238"/>
<circle cx="1486.76" cy="226.707" r="8.02115" fill="#263238"/>
<circle cx="1513.5" cy="226.707" r="8.02115" fill="#263238"/>
<circle cx="1540.23" cy="226.707" r="8.02115" fill="#263238"/>
<circle cx="1566.97" cy="226.707" r="8.02115" fill="#263238"/>
<circle cx="1593.71" cy="226.707" r="8.02115" fill="#263238"/>
<circle cx="1620.44" cy="226.707" r="8.02115" fill="#263238"/>
<circle cx="1647.18" cy="226.707" r="8.02115" fill="#263238"/>
</g>
</g>
<defs>
<clipPath id="clip0_419_29339">
<rect width="1728" height="1117" fill="white" transform="translate(-1)"/>
</clipPath>
</defs>
</svg>
