<svg width="1728" height="1868" viewBox="0 0 1728 1868" fill="none" xmlns="http://www.w3.org/2000/svg">
<g clip-path="url(#clip0_298_29204)">
<path fill-rule="evenodd" clip-rule="evenodd" d="M2220.67 51.9448C1912.64 -76.5632 1682.86 257.664 1408.51 199.384C1258.32 167.482 968.046 58.7971 859.694 600.281C791.009 950.008 1095.78 1073.82 1464.33 931.994C1569.86 904.774 1644.72 925.316 1720.92 972.742C1797.13 1020.17 1870.83 1201.89 2067.08 1259.66C2657.64 1433.5 3374.22 533.197 2220.67 51.9448Z" fill="white" fill-opacity="0.44" style="mix-blend-mode:overlay"/>
<path fill-rule="evenodd" clip-rule="evenodd" d="M2872.67 906.945C2564.64 778.437 2334.86 1112.66 2060.51 1054.38C1910.32 1022.48 1620.05 913.797 1511.69 1455.28C1443.01 1805.01 1747.78 1928.82 2116.33 1786.99C2221.86 1759.77 2296.72 1780.32 2372.92 1827.74C2449.13 1875.17 2522.83 2056.89 2719.08 2114.66C3309.64 2288.5 4026.22 1388.2 2872.67 906.945Z" fill="#FFE662"/>
<path fill-rule="evenodd" clip-rule="evenodd" d="M456.681 1898.77C304.948 1601.49 -86.4988 1707.68 -257.994 1485.74C-351.874 1364.25 -502.895 1093.58 -935.841 1436.36C-1214.48 1658.6 -1062.19 1950.18 -689.404 2080.49C-591.326 2128 -547.541 2192.09 -520.114 2277.56C-492.688 2363.03 -554.062 2549.28 -441.797 2720.29C-103.955 3234.93 1024.92 3012.04 456.681 1898.77Z" fill="#FFE662"/>
<path fill-rule="evenodd" clip-rule="evenodd" d="M425.751 791.952C179.775 738.287 48.6895 993.926 -163.554 984.749C-279.738 979.727 -510.024 937.691 -525.061 1322.14C-533.805 1570.3 -290.838 1621.1 -32.5422 1482.11C43.0462 1451.51 101.518 1457.21 164.279 1481.23C227.04 1505.25 304.29 1621.89 458.065 1639.5C920.824 1692.53 1346.92 992.921 425.751 791.952Z" fill="white" fill-opacity="0.44" style="mix-blend-mode:overlay"/>
</g>
<defs>
<clipPath id="clip0_298_29204">
<rect width="1728" height="1868" fill="white"/>
</clipPath>
</defs>
</svg>
