<svg width="1728" height="1696" viewBox="0 0 1728 1696" fill="none" xmlns="http://www.w3.org/2000/svg">
<g opacity="0.2" clip-path="url(#clip0_147_26462)">
<path d="M0 696.502C79.3202 480.154 255.875 -25.8015 1094.89 4.67883C1933.9 35.1592 2349.3 -306.364 2356.21 -521.375" stroke="#FFE662" stroke-width="1.33686"/>
<path d="M298.12 1215.87C377.44 999.522 745.834 574.446 1584.85 604.926C2423.86 635.407 2552.51 506.445 2559.42 291.434" stroke="#FFE662" stroke-width="1.33686"/>
<path d="M0 1362.26C79.3202 1145.91 332.076 821.766 1171.09 852.246C2010.1 882.727 2349.3 359.391 2356.21 144.38" stroke="#FFE662" stroke-width="1.33686"/>
<g opacity="0.16">
<circle cx="1461.02" cy="415.021" r="8.02115" fill="white"/>
<circle cx="1487.76" cy="415.021" r="8.02115" fill="white"/>
<circle cx="1514.5" cy="415.021" r="8.02115" fill="white"/>
<circle cx="1541.23" cy="415.021" r="8.02115" fill="white"/>
<circle cx="1567.97" cy="415.021" r="8.02115" fill="white"/>
<circle cx="1594.71" cy="415.021" r="8.02115" fill="white"/>
<circle cx="1621.44" cy="415.021" r="8.02115" fill="white"/>
<circle cx="1648.18" cy="415.021" r="8.02115" fill="white"/>
<circle cx="1461.02" cy="441.758" r="8.02115" fill="white"/>
<circle cx="1487.76" cy="441.758" r="8.02115" fill="white"/>
<circle cx="1514.5" cy="441.758" r="8.02115" fill="white"/>
<circle cx="1541.23" cy="441.758" r="8.02115" fill="white"/>
<circle cx="1567.97" cy="441.758" r="8.02115" fill="white"/>
<circle cx="1594.71" cy="441.758" r="8.02115" fill="white"/>
<circle cx="1621.44" cy="441.758" r="8.02115" fill="white"/>
<circle cx="1648.18" cy="441.758" r="8.02115" fill="white"/>
<circle cx="1461.02" cy="468.496" r="8.02115" fill="white"/>
<circle cx="1487.76" cy="468.496" r="8.02115" fill="white"/>
<circle cx="1514.5" cy="468.496" r="8.02115" fill="white"/>
<circle cx="1541.23" cy="468.496" r="8.02115" fill="white"/>
<circle cx="1567.97" cy="468.496" r="8.02115" fill="white"/>
<circle cx="1594.71" cy="468.496" r="8.02115" fill="white"/>
<circle cx="1621.44" cy="468.496" r="8.02115" fill="white"/>
<circle cx="1648.18" cy="468.496" r="8.02115" fill="white"/>
<circle cx="1461.02" cy="495.233" r="8.02115" fill="white"/>
<circle cx="1487.76" cy="495.233" r="8.02115" fill="white"/>
<circle cx="1514.5" cy="495.233" r="8.02115" fill="white"/>
<circle cx="1541.23" cy="495.233" r="8.02115" fill="white"/>
<circle cx="1567.97" cy="495.233" r="8.02115" fill="white"/>
<circle cx="1594.71" cy="495.233" r="8.02115" fill="white"/>
<circle cx="1621.44" cy="495.233" r="8.02115" fill="white"/>
<circle cx="1648.18" cy="495.233" r="8.02115" fill="white"/>
<circle cx="1461.02" cy="521.97" r="8.02115" fill="white"/>
<circle cx="1487.76" cy="521.97" r="8.02115" fill="white"/>
<circle cx="1514.5" cy="521.97" r="8.02115" fill="white"/>
<circle cx="1541.23" cy="521.97" r="8.02115" fill="white"/>
<circle cx="1567.97" cy="521.97" r="8.02115" fill="white"/>
<circle cx="1594.71" cy="521.97" r="8.02115" fill="white"/>
<circle cx="1621.44" cy="521.97" r="8.02115" fill="white"/>
<circle cx="1648.18" cy="521.97" r="8.02115" fill="white"/>
<circle cx="1461.02" cy="548.707" r="8.02115" fill="white"/>
<circle cx="1487.76" cy="548.707" r="8.02115" fill="white"/>
<circle cx="1514.5" cy="548.707" r="8.02115" fill="white"/>
<circle cx="1541.23" cy="548.707" r="8.02115" fill="white"/>
<circle cx="1567.97" cy="548.707" r="8.02115" fill="white"/>
<circle cx="1594.71" cy="548.707" r="8.02115" fill="white"/>
<circle cx="1621.44" cy="548.707" r="8.02115" fill="white"/>
<circle cx="1648.18" cy="548.707" r="8.02115" fill="white"/>
</g>
</g>
<defs>
<clipPath id="clip0_147_26462">
<rect width="1728" height="1696" fill="white"/>
</clipPath>
</defs>
</svg>
