<svg width="1728" height="1117" viewBox="0 0 1728 1117" fill="none" xmlns="http://www.w3.org/2000/svg">
<g clip-path="url(#clip0_452_29421)">
<rect width="1729" height="2213" fill="#1E1E1E"/>
<g filter="url(#filter0_f_452_29421)">
<path d="M-694.927 915.543C-721.181 808.202 -770.492 606.597 -799 490.045C-141.823 329.305 414.221 294.251 442.96 411.749C471.699 529.247 -37.75 754.803 -694.927 915.543Z" fill="#FFE662" fill-opacity="0.33"/>
</g>
<g filter="url(#filter1_f_452_29421)">
<path d="M1686.58 1505.45C1606.46 1177.9 1455.99 562.701 1369 207.045C2026.18 46.3052 2630.02 206.657 2717.71 565.2C2805.41 923.744 2343.75 1344.71 1686.58 1505.45Z" fill="#FFE662" fill-opacity="0.24"/>
</g>
<path d="M-45.4221 3007.45C-125.537 2679.9 -276.009 2064.7 -363 1709.04C294.177 1548.31 898.016 1708.66 985.713 2067.2C1073.41 2425.74 611.754 2846.71 -45.4221 3007.45Z" fill="#FFE662" fill-opacity="0.24"/>
<path d="M969.805 277.129C860.558 250.417 856.791 89.8323 868.563 12.8786V0H1727V1057C1698.28 844.9 1630.18 391.987 1587.62 277.129C1534.4 133.556 1382.78 161.698 1322.03 189.84C1261.29 217.982 1106.36 310.518 969.805 277.129Z" fill="#FFE662" fill-opacity="0.08"/>
<g opacity="0.2" clip-path="url(#clip1_452_29421)">
<path d="M-7 407.877C72.3202 191.529 248.875 -314.427 1087.89 -283.946C1926.9 -253.466 2342.3 -594.989 2349.21 -810" stroke="#FFE662" stroke-width="1.33686"/>
<path d="M299.12 879.871C378.44 663.522 746.834 238.446 1585.85 268.926C2424.86 299.407 2553.51 170.445 2560.42 -44.5659" stroke="#FFE662" stroke-width="1.33686"/>
<path d="M1 1026.26C80.3202 809.909 333.076 485.766 1172.09 516.246C2011.1 546.727 2350.3 23.3912 2357.21 -191.62" stroke="#FFE662" stroke-width="1.33686"/>
<g opacity="0.16">
<circle cx="1462.02" cy="79.0211" r="8.02115" fill="white"/>
<circle cx="1488.76" cy="79.0211" r="8.02115" fill="white"/>
<circle cx="1515.5" cy="79.0211" r="8.02115" fill="white"/>
<circle cx="1542.23" cy="79.0211" r="8.02115" fill="white"/>
<circle cx="1568.97" cy="79.0211" r="8.02115" fill="white"/>
<circle cx="1595.71" cy="79.0211" r="8.02115" fill="white"/>
<circle cx="1622.44" cy="79.0211" r="8.02115" fill="white"/>
<circle cx="1649.18" cy="79.0211" r="8.02115" fill="white"/>
<circle cx="1462.02" cy="105.758" r="8.02115" fill="white"/>
<circle cx="1488.76" cy="105.758" r="8.02115" fill="white"/>
<circle cx="1515.5" cy="105.758" r="8.02115" fill="white"/>
<circle cx="1542.23" cy="105.758" r="8.02115" fill="white"/>
<circle cx="1568.97" cy="105.758" r="8.02115" fill="white"/>
<circle cx="1595.71" cy="105.758" r="8.02115" fill="white"/>
<circle cx="1622.44" cy="105.758" r="8.02115" fill="white"/>
<circle cx="1649.18" cy="105.758" r="8.02115" fill="white"/>
<circle cx="1462.02" cy="132.496" r="8.02115" fill="white"/>
<circle cx="1488.76" cy="132.496" r="8.02115" fill="white"/>
<circle cx="1515.5" cy="132.496" r="8.02115" fill="white"/>
<circle cx="1542.23" cy="132.496" r="8.02115" fill="white"/>
<circle cx="1568.97" cy="132.496" r="8.02115" fill="white"/>
<circle cx="1595.71" cy="132.496" r="8.02115" fill="white"/>
<circle cx="1622.44" cy="132.496" r="8.02115" fill="white"/>
<circle cx="1649.18" cy="132.496" r="8.02115" fill="white"/>
<circle cx="1462.02" cy="159.233" r="8.02115" fill="white"/>
<circle cx="1488.76" cy="159.233" r="8.02115" fill="white"/>
<circle cx="1515.5" cy="159.233" r="8.02115" fill="white"/>
<circle cx="1542.23" cy="159.233" r="8.02115" fill="white"/>
<circle cx="1568.97" cy="159.233" r="8.02115" fill="white"/>
<circle cx="1595.71" cy="159.233" r="8.02115" fill="white"/>
<circle cx="1622.44" cy="159.233" r="8.02115" fill="white"/>
<circle cx="1649.18" cy="159.233" r="8.02115" fill="white"/>
<circle cx="1462.02" cy="185.97" r="8.02115" fill="white"/>
<circle cx="1488.76" cy="185.97" r="8.02115" fill="white"/>
<circle cx="1515.5" cy="185.97" r="8.02115" fill="white"/>
<circle cx="1542.23" cy="185.97" r="8.02115" fill="white"/>
<circle cx="1568.97" cy="185.97" r="8.02115" fill="white"/>
<circle cx="1595.71" cy="185.97" r="8.02115" fill="white"/>
<circle cx="1622.44" cy="185.97" r="8.02115" fill="white"/>
<circle cx="1649.18" cy="185.97" r="8.02115" fill="white"/>
<circle cx="1462.02" cy="212.707" r="8.02115" fill="white"/>
<circle cx="1488.76" cy="212.707" r="8.02115" fill="white"/>
<circle cx="1515.5" cy="212.707" r="8.02115" fill="white"/>
<circle cx="1542.23" cy="212.707" r="8.02115" fill="white"/>
<circle cx="1568.97" cy="212.707" r="8.02115" fill="white"/>
<circle cx="1595.71" cy="212.707" r="8.02115" fill="white"/>
<circle cx="1622.44" cy="212.707" r="8.02115" fill="white"/>
<circle cx="1649.18" cy="212.707" r="8.02115" fill="white"/>
</g>
</g>
</g>
<defs>
<filter id="filter0_f_452_29421" x="-1259" y="-117.743" width="2163.12" height="1493.29" filterUnits="userSpaceOnUse" color-interpolation-filters="sRGB">
<feFlood flood-opacity="0" result="BackgroundImageFix"/>
<feBlend mode="normal" in="SourceGraphic" in2="BackgroundImageFix" result="shape"/>
<feGaussianBlur stdDeviation="230" result="effect1_foregroundBlur_452_29421"/>
</filter>
<filter id="filter1_f_452_29421" x="909" y="-315.386" width="2279.4" height="2280.83" filterUnits="userSpaceOnUse" color-interpolation-filters="sRGB">
<feFlood flood-opacity="0" result="BackgroundImageFix"/>
<feBlend mode="normal" in="SourceGraphic" in2="BackgroundImageFix" result="shape"/>
<feGaussianBlur stdDeviation="230" result="effect1_foregroundBlur_452_29421"/>
</filter>
<clipPath id="clip0_452_29421">
<rect width="1735" height="1125" fill="white" transform="translate(-7 -8)"/>
</clipPath>
<clipPath id="clip1_452_29421">
<rect width="1728" height="1117" fill="white" transform="translate(1)"/>
</clipPath>
</defs>
</svg>
