<svg width="1728" height="815" viewBox="0 0 1728 815" fill="none" xmlns="http://www.w3.org/2000/svg">
<path d="M272.35 601.673C-108.753 563.691 -307.592 216.864 -307.598 2L-129.96 26.955C-132.743 161.38 -39.5746 431.463 348.975 486.047C692.407 534.294 800.043 856.965 781.935 1014.52L627.982 992.888C627.982 992.888 653.453 639.656 272.35 601.673Z" fill="#1E1E1E" stroke="black" stroke-width="2"/>
<path d="M1337.38 701.267C1507.82 437.674 1825.7 415.421 1976.13 491.159L1891.61 611.467C1798.55 562.058 1574.29 534.564 1389.42 797.717C1226.01 1030.31 959.471 994.796 855.999 926.096L929.25 821.829C929.25 821.829 1166.95 964.86 1337.38 701.267Z" fill="white" stroke="black" stroke-width="2"/>
</svg>
