<svg width="975" height="415" viewBox="0 0 975 415" fill="none" xmlns="http://www.w3.org/2000/svg">
<g clip-path="url(#clip0_312_28880)">
<path d="M312.973 331.077H268.503V409.125H160.682V331.077H0V251.35L167.814 5.87451H268.503V249.671H312.973V331.077ZM160.682 249.671V202.674C160.682 193.862 161.102 182.113 161.521 167.007C162.36 151.901 162.78 144.348 163.199 143.508H160.262C153.969 157.775 146.837 170.783 138.866 183.372L94.3954 249.671H160.682Z" fill="#1E1E1E"/>
<path d="M632.659 208.129C632.659 279.464 620.493 331.916 596.999 365.066C573.085 398.215 536.586 415 487.081 415C438.834 415 402.754 397.796 378.002 362.968C353.668 328.14 341.502 276.527 341.502 208.129C341.502 136.375 353.249 83.9231 377.582 50.3539C401.495 16.7846 437.995 0 487.5 0C535.327 0 571.827 17.6239 596.16 52.452C620.493 87.2801 632.659 138.893 632.659 208.129ZM449.742 208.129C449.742 253.868 452.679 285.339 458.133 302.123C464.006 319.328 473.236 327.72 486.661 327.72C500.086 327.72 509.736 318.908 515.609 301.284C521.063 283.66 524 252.609 524 208.129C524 163.231 521.063 132.179 515.609 114.135C509.736 96.092 500.506 87.2801 487.081 87.2801C473.656 87.2801 464.006 96.092 458.552 113.296C452.679 130.501 449.742 161.972 449.742 208.129Z" fill="#1E1E1E"/>
<path d="M975 331.077H930.529V409.125H822.709V331.077H662.027V251.35L829.841 5.87451H930.529V249.671H975V331.077ZM823.128 249.671V202.674C823.128 193.862 823.548 182.113 823.967 167.007C824.807 151.901 825.226 144.348 825.646 143.508H822.709C816.416 157.775 809.284 170.783 801.313 183.372L756.422 250.091H823.128V249.671Z" fill="#1E1E1E"/>
</g>
<g clip-path="url(#clip1_312_28880)">
<path d="M594.206 218.661C627.119 218.661 653.8 191.942 653.8 158.983C653.8 126.023 627.119 99.3047 594.206 99.3047C561.293 99.3047 534.612 126.023 534.612 158.983C534.612 191.942 561.293 218.661 594.206 218.661Z" fill="white"/>
<path d="M398.139 218.661C431.052 218.661 457.734 191.942 457.734 158.983C457.734 126.023 431.052 99.3047 398.139 99.3047C365.226 99.3047 338.545 126.023 338.545 158.983C338.545 191.942 365.226 218.661 398.139 218.661Z" fill="white"/>
<path d="M433.176 110.817C439.277 120.215 442.796 131.337 442.796 143.398C442.796 176.369 416.127 203.076 383.202 203.076C370.063 203.076 357.941 198.768 348.086 191.563C358.723 207.931 377.101 218.661 398.061 218.661C430.987 218.661 457.655 191.954 457.655 158.983C457.655 139.247 448.036 121.704 433.176 110.817Z" fill="#EFEFEF"/>
<path d="M629.243 110.817C635.344 120.215 638.863 131.337 638.863 143.398C638.863 176.369 612.194 203.076 579.269 203.076C566.13 203.076 554.007 198.768 544.153 191.563C554.79 207.931 573.168 218.661 594.128 218.661C627.054 218.661 653.722 191.954 653.722 158.983C653.722 139.247 644.025 121.704 629.243 110.817Z" fill="#EFEFEF"/>
<path d="M398.139 221.48C363.806 221.48 335.808 193.442 335.808 159.061C335.808 124.679 363.806 96.6416 398.139 96.6416C432.472 96.6416 460.471 124.679 460.471 159.061C460.471 193.442 432.472 221.48 398.139 221.48ZM398.139 102.046C366.778 102.046 341.282 127.577 341.282 158.982C341.282 190.388 366.778 215.919 398.139 215.919C429.5 215.919 454.996 190.388 454.996 158.982C454.996 127.655 429.5 102.046 398.139 102.046Z" fill="#FFE662"/>
<path d="M376.945 168.616C392.883 168.616 405.804 155.677 405.804 139.717C405.804 123.756 392.883 110.817 376.945 110.817C361.007 110.817 348.086 123.756 348.086 139.717C348.086 155.677 361.007 168.616 376.945 168.616Z" fill="#1E1E1E"/>
<path d="M369.907 146.295C376.429 146.295 381.716 141 381.716 134.469C381.716 127.938 376.429 122.643 369.907 122.643C363.384 122.643 358.097 127.938 358.097 134.469C358.097 141 363.384 146.295 369.907 146.295Z" fill="white"/>
<path d="M594.206 221.48C559.873 221.48 531.875 193.442 531.875 159.061C531.875 124.679 559.873 96.6416 594.206 96.6416C628.539 96.6416 656.538 124.679 656.538 159.061C656.538 193.442 628.539 221.48 594.206 221.48ZM594.206 102.046C562.845 102.046 537.349 127.577 537.349 158.982C537.349 190.388 562.845 215.919 594.206 215.919C625.567 215.919 651.063 190.388 651.063 158.982C651.063 127.655 625.567 102.046 594.206 102.046Z" fill="#FFE662"/>
<path d="M612.037 208.323C627.976 208.323 640.896 195.384 640.896 179.424C640.896 163.463 627.976 150.524 612.037 150.524C596.099 150.524 583.179 163.463 583.179 179.424C583.179 195.384 596.099 208.323 612.037 208.323Z" fill="#1E1E1E"/>
<path d="M604.999 186.002C611.521 186.002 616.808 180.707 616.808 174.176C616.808 167.645 611.521 162.35 604.999 162.35C598.477 162.35 593.189 167.645 593.189 174.176C593.189 180.707 598.477 186.002 604.999 186.002Z" fill="white"/>
<path d="M321.887 77.8453C331.976 89.4363 341.048 68.4472 372.253 61.8685C398.296 56.3863 414.563 69.4654 419.099 59.5973C423.635 49.7293 402.832 35.9454 364.51 42.0542C335.964 46.5183 310.156 64.3747 321.887 77.8453Z" fill="#FFE662"/>
<path d="M669.677 79.7251C658.962 90.7679 651.063 69.3089 620.249 61.0072C594.519 54.1153 577.548 66.2545 573.559 56.1515C569.571 46.0486 591.078 33.4394 629.009 41.5845C657.32 47.6932 682.112 66.881 669.677 79.7251Z" fill="#FFE662"/>
<path d="M487.374 352.192C468.292 352.192 453.823 335.432 439.668 319.064C426.842 304.183 413.546 288.755 397.826 288.05C362.398 286.405 323.998 336.215 323.607 336.685C321.652 339.27 317.976 339.74 315.396 337.782C312.815 335.824 312.345 332.143 314.301 329.558C316.021 327.365 355.36 276.302 396.106 276.302C396.888 276.302 397.592 276.302 398.374 276.381C419.099 277.399 434.037 294.707 448.505 311.467C463.834 329.245 477.129 344.595 494.257 339.426C510.524 334.492 524.992 318.907 539.07 303.87C556.666 284.996 574.811 265.495 597.178 267.922C618.607 270.272 636.204 283.351 648.17 305.75C656.929 322.197 659.51 337.86 659.588 338.487C660.135 341.698 657.945 344.674 654.739 345.222C651.532 345.77 648.561 343.577 648.013 340.366C647.935 339.818 638.315 284.134 595.927 279.592C579.425 277.79 564.018 294.394 547.673 311.859C532.578 327.992 517.015 344.752 497.698 350.626C494.1 351.644 490.659 352.192 487.374 352.192Z" fill="white"/>
</g>
<defs>
<clipPath id="clip0_312_28880">
<rect width="975" height="415" fill="white"/>
</clipPath>
<clipPath id="clip1_312_28880">
<rect width="384" height="324" fill="white" transform="translate(296 39)"/>
</clipPath>
</defs>
</svg>
