<svg width="1728" height="1890" viewBox="0 0 1728 1890" fill="none" xmlns="http://www.w3.org/2000/svg">
<g clip-path="url(#clip0_277_28578)">
<path fill-rule="evenodd" clip-rule="evenodd" d="M2477.68 5.76634C2325.95 -291.508 1934.5 -185.318 1763.01 -407.259C1669.13 -528.751 1518.1 -799.424 1085.16 -456.637C806.523 -234.404 958.806 57.1839 1331.6 187.485C1429.67 235.003 1473.46 299.095 1500.89 384.562C1528.31 470.03 1466.94 656.28 1579.2 827.294C1917.05 1341.93 3045.92 1119.04 2477.68 5.76634Z" fill="#FFE662"/>
<path fill-rule="evenodd" clip-rule="evenodd" d="M2969.65 2109.98C2817.92 1812.7 2299.15 1465.66 2127.66 1243.71C2033.78 1122.22 1882.76 851.549 1449.81 1194.34C1171.17 1416.57 1323.46 1708.16 1696.25 1838.46C1794.33 1885.98 1838.11 1950.07 1865.54 2035.54C1892.96 2121 1831.59 2307.25 1943.86 2478.27C2281.7 2992.91 3537.89 3223.25 2969.65 2109.98Z" fill="#FFE662"/>
<path fill-rule="evenodd" clip-rule="evenodd" d="M642.681 1689.77C490.948 1392.49 99.5013 1498.68 -71.9944 1276.74C-165.874 1155.25 -316.895 884.576 -749.841 1227.36C-1028.48 1449.6 -876.194 1741.18 -503.404 1871.49C-405.326 1919 -361.541 1983.09 -334.114 2068.56C-306.688 2154.03 -368.062 2340.28 -255.797 2511.29C82.0454 3025.93 1210.92 2803.04 642.681 1689.77Z" fill="#FFE662"/>
</g>
<defs>
<clipPath id="clip0_277_28578">
<rect width="1728" height="1890" fill="white"/>
</clipPath>
</defs>
</svg>
