<svg width="708" height="621" viewBox="0 0 708 621" fill="none" xmlns="http://www.w3.org/2000/svg">
<g clip-path="url(#clip0_276_28823)">
<path d="M64.6388 620.779H370.535H556.676C576.65 620.779 596.129 614.542 612.411 602.934L632.903 588.324C675.341 558.068 676.615 495.29 635.439 463.327C595.284 432.155 595.306 371.325 635.485 340.182L649.853 329.045C691.7 296.61 697.563 235.463 662.645 195.619L597.24 120.986C551.893 69.2406 471.903 68.1653 425.19 118.673C383.266 164.003 313.318 168.497 265.974 128.902L250.715 116.14C213.639 85.1323 162.647 76.9056 117.751 94.6886C52.1658 120.666 18.5186 193.78 41.3454 260.713L70.6447 346.625C84.7947 388.117 65.3249 433.617 25.5968 451.901C-4.6473 465.82 -24.0352 496.144 -24.0352 529.528V531.813C-24.0352 580.947 15.6656 620.779 64.6388 620.779Z" fill="#FFE662" fill-opacity="0.28"/>
<path d="M325.411 18.3679C325.411 9.3991 332.681 2.12842 341.65 2.12842H688.889C697.858 2.12842 705.129 9.39908 705.129 18.3679V365.607C705.129 374.576 697.858 381.846 688.889 381.846H341.65C332.681 381.846 325.411 374.576 325.411 365.607V18.3679Z" fill="white"/>
<path fill-rule="evenodd" clip-rule="evenodd" d="M322.977 18.3679C322.977 8.0548 331.337 -0.305664 341.65 -0.305664H688.889C699.202 -0.305664 707.563 8.05478 707.563 18.3679V365.607C707.563 375.92 699.202 384.28 688.889 384.28H341.65C331.337 384.28 322.977 375.92 322.977 365.607V18.3679ZM341.65 4.56251C334.026 4.56251 327.845 10.7434 327.845 18.3679V365.607C327.845 373.231 334.026 379.412 341.65 379.412H688.889C696.514 379.412 702.694 373.231 702.694 365.607V18.3679C702.694 10.7434 696.514 4.56251 688.889 4.56251H341.65Z" fill="#1E1E1E"/>
<path d="M325.411 18.3679C325.411 9.39908 332.681 2.12842 341.65 2.12842H688.889C697.858 2.12842 705.129 9.39908 705.129 18.3679V58.1125H325.411V18.3679Z" fill="#1E1E1E"/>
<path d="M376.787 30.5187C376.787 37.2386 371.339 42.6862 364.619 42.6862C357.899 42.6862 352.452 37.2386 352.452 30.5187C352.452 23.7987 357.899 18.3511 364.619 18.3511C371.339 18.3511 376.787 23.7987 376.787 30.5187Z" fill="white"/>
<path d="M417.349 30.5187C417.349 37.2386 411.901 42.6862 405.181 42.6862C398.461 42.6862 393.014 37.2386 393.014 30.5187C393.014 23.7987 398.461 18.3511 405.181 18.3511C411.901 18.3511 417.349 23.7987 417.349 30.5187Z" fill="white"/>
<path d="M457.901 30.5187C457.901 37.2386 452.453 42.6862 445.733 42.6862C439.014 42.6862 433.566 37.2386 433.566 30.5187C433.566 23.7987 439.014 18.3511 445.733 18.3511C452.453 18.3511 457.901 23.7987 457.901 30.5187Z" fill="white"/>
<path d="M306.703 212.428C304.368 218.944 309.212 226.807 311.925 229.923L292.336 252.573C291.001 252.502 287.725 246.837 281.759 245.311C275.794 243.784 270.467 239.341 263.966 232.026C262.834 230.121 257.858 223.991 258.585 217.488C259.309 210.985 271.699 197.034 278.578 195.556C284.082 194.373 293.424 202.263 296.573 206.837C297.92 202.627 299.941 200.233 303.902 196.125C306.685 194.205 311.633 193.887 312.681 197.088C313.392 199.257 312.664 201.634 311.136 203.337C308.968 205.754 308.263 208.074 306.703 212.428Z" fill="#EFCB96"/>
<path d="M488.599 155.374L483.322 174.631C480.683 184.259 488.599 195.638 510.591 195.638C528.183 195.638 530.822 179.299 529.943 171.13L525.544 149.247C529.943 144.871 533.461 142.245 533.461 121.238C533.461 94.9789 519.387 85.3506 502.674 85.3506C485.961 85.3506 471.886 99.3403 471.886 124.739C471.885 146.621 483.615 153.624 488.599 155.374Z" fill="#EFCB96"/>
<path d="M504.43 186.01C520.616 186.01 528.767 175.506 530.82 170.254L530.904 170.254C546.451 170.254 571.781 170.254 597.672 193.887C623.609 217.563 645.266 250.782 664.86 309.92C672.536 333.086 673.394 365.103 671.048 377.649H406.008C376.1 377.649 352.379 372.332 344.129 362.256C324.777 338.623 283.587 267.364 285.346 258.611C287.105 249.858 309.095 222.121 315.252 224.747C320.178 226.847 345.16 245.27 370.942 264.768C400.849 186.01 462.208 169.087 482.439 170.254C483.026 175.506 488.245 186.01 504.43 186.01Z" fill="#FFE662"/>
<path d="M445.494 136.993C432.124 150.997 432.886 175.506 434.939 186.009C457.482 172.55 474.868 169.953 482.373 170.254C482.373 171.736 483.422 174.787 483.943 174.861L488.597 155.374C479.232 151.424 472.763 143.995 471.884 123.863C471.884 108.156 479.214 96.729 483.319 93.2277C497.393 92.3524 504.43 109.858 508.829 116.861C512.347 122.463 514.986 121.529 515.866 120.362C520.264 109.858 528.181 108.983 529.94 120.362C531.347 129.465 524.662 134.075 521.144 135.242L530.265 172.518L531.05 170.955C546.753 170.955 567.905 175.855 575.681 179.007C578.32 150.997 556.329 141.369 549.292 123.863C542.255 106.357 551.931 97.6043 544.894 86.2254C539.678 77.7916 529.94 76.5971 523.783 74.8466C517.625 73.096 514.106 66.0936 507.069 62.5924C494.754 58.2159 483.026 69.0112 479.8 76.5971C477.748 76.3053 471.884 77.1223 464.847 82.7242C444.615 96.729 462.207 119.487 445.494 136.993Z" fill="#1E1E1E"/>
<path d="M586.483 270.925C594.733 309.92 604.236 364.995 602.983 377.649H615.359C615.805 353.235 593.702 284.265 586.483 270.925Z" fill="#1E1E1E"/>
<path d="M507.068 154.499C496.513 157.3 490.355 156.25 488.596 155.374L485.957 165.003C497.216 166.403 504.723 158.584 507.068 154.499Z" fill="#1E1E1E"/>
<path d="M411.165 259.637C403.74 290.833 399.133 351.31 397.758 377.649H389.508C391.158 334.959 404.633 281.187 411.165 259.637Z" fill="#1E1E1E"/>
<path d="M347.225 364.309C374.451 357.741 388.82 361.572 392.601 364.309L390.539 377.649C369.913 377.649 353.069 368.756 347.225 364.309Z" fill="#1E1E1E"/>
<path d="M136.301 354.496L132.024 377.031L136.301 400.639C147.352 402.07 169.881 404.931 171.593 404.931C173.304 404.931 185.852 394.2 191.912 388.835L185.495 354.496C203.462 348.486 209.379 321.945 210.092 309.426C214.37 257.917 180.148 251.479 173.731 251.479C167.315 251.479 126.676 251.479 121.329 294.402C117.051 328.741 129.528 348.773 136.301 354.496Z" fill="#EFCB96"/>
<path d="M32.5649 620.624H200.466L413.284 619.55C426.452 610.933 430.138 597.029 430.173 585.236C430.203 575.574 423.261 567.8 414.587 563.604C380.126 546.934 327.819 521.136 318.104 514.387C304.201 504.729 291.368 452.148 265.702 411.37C245.168 378.748 206.526 371.308 190.841 371.665C189.415 378.104 183.355 390.981 161.966 390.981C140.578 390.981 131.666 378.104 128.814 371.665C117.763 371.665 87.1061 377.675 61.4396 401.712C29.3789 431.738 15.4733 500.341 2.64748 563.618L2.62072 563.75C-7.64585 614.4 18.3058 622.054 32.5649 620.624Z" fill="#FFE662"/>
<path d="M104.216 537.995L120.258 472.536L117.05 537.995L190.096 555.872C199.475 558.168 208.246 564.02 210.021 573.542C213.187 590.527 206.872 608.59 199.396 615.258C205.813 606.045 205.813 571.261 198.327 565.895C192.338 561.603 118.119 547.653 81.7583 541.214L104.216 537.995Z" fill="#1E1E1E"/>
<path d="M263.563 455.367L303.133 620.623H320.244L263.563 455.367Z" fill="#1E1E1E"/>
<path d="M148.061 333.034C143.783 357.929 137.723 360.576 135.228 358.788C105.284 339.472 106.006 277.759 124.534 256.844C141.644 237.528 154.478 245.04 189.769 236.455C225.06 227.87 236.824 242.894 230.408 262.209C221.171 290.015 191.908 275.087 184.422 278.306C176.936 281.525 167.311 290.11 163.033 307.279C158.755 324.449 156.617 321.23 153.408 311.572C150.2 301.914 141.644 287.964 135.228 305.133C130.095 318.869 141.644 329.457 148.061 333.034Z" fill="#1E1E1E"/>
<path d="M274.257 620.624C274.257 591.435 231.123 582.708 210.091 581.992C210.091 596.586 201.179 613.827 196.188 620.624H274.257Z" fill="#EFCB96"/>
<path d="M482.116 618.652C482.116 592.707 447.935 587.193 429.495 586.557C429.495 599.53 418.047 612.611 413.672 618.652H482.116Z" fill="#EFCB96"/>
<path fill-rule="evenodd" clip-rule="evenodd" d="M0.332624 581.889C-0.173036 602.606 7.0664 620.624 29.1564 620.624H48.6103C43.4772 586.285 16.3246 565.539 3.49095 559.458C3.20917 560.846 2.92809 562.233 2.64753 563.617L2.62076 563.749C1.25287 570.498 0.527928 576.521 0.332624 581.889Z" fill="#1E1E1E"/>
<path d="M164.969 354.169C174.929 357.5 181.829 355.557 185.288 354.169L188.496 369.192C175.216 367.527 167.735 357.986 164.969 354.169Z" fill="#1E1E1E"/>
<path d="M384.4 463.032L326.772 594.304C323.879 600.894 328.69 608.293 335.868 608.293H511.715C515.754 608.293 519.391 605.842 520.917 602.091L574.343 470.819C577.012 464.26 572.203 457.08 565.141 457.08H393.496C389.556 457.08 385.988 459.414 384.4 463.032Z" fill="white"/>
<path fill-rule="evenodd" clip-rule="evenodd" d="M393.496 459.15C390.375 459.15 387.547 461 386.289 463.866L328.662 595.139C326.369 600.36 330.181 606.222 335.869 606.222H511.715C514.915 606.222 517.797 604.28 519.006 601.309L572.432 470.036C574.547 464.84 570.736 459.15 565.141 459.15H393.496ZM382.511 462.197C384.429 457.829 388.738 455.009 393.496 455.009H565.141C573.67 455.009 579.478 463.681 576.254 471.601L522.829 602.874C520.985 607.404 516.593 610.364 511.715 610.364H335.869C327.2 610.364 321.389 601.428 324.883 593.47L382.511 462.197Z" fill="#1E1E1E"/>
<path d="M438.111 522.184C441.343 514.666 448.723 509.796 456.885 509.796C471.583 509.796 481.479 524.889 475.659 538.427L474.208 541.802C470.976 549.32 463.596 554.189 455.434 554.189C440.736 554.189 430.84 539.097 436.66 525.558L438.111 522.184Z" fill="#FFE662"/>
<path d="M508.955 620.779H203.77C198.806 620.779 194.781 616.742 194.781 611.761C194.781 606.781 198.806 602.744 203.77 602.744H508.955C515.396 602.744 519.747 609.341 517.228 615.288C515.818 618.617 512.561 620.779 508.955 620.779Z" fill="#1E1E1E"/>
<path d="M144.47 149.278C140.9 156.64 130.363 159.05 125.541 159.335L125.015 190.534C126.161 191.603 129.199 194.638 132.193 198.225C133.934 201.039 157.219 200.628 168.644 200.071C171.163 199.452 176.391 197.896 177.154 196.628C178.108 195.043 185.849 166.123 181.496 159.088C178.013 153.46 164.344 154.299 157.945 155.422C161.95 149.788 161.694 140.294 160.472 132.902C159.821 128.963 155.577 127.092 152.038 128.853C149.64 130.047 148.237 132.628 148.05 135.327C147.784 139.157 146.856 144.36 144.47 149.278Z" fill="#FFE662"/>
<path d="M101.96 155.31C101.954 152.708 104.032 150.594 106.601 150.589L123.374 150.551C125.943 150.546 128.03 152.65 128.035 155.252L128.123 195.713C128.129 198.315 126.051 200.429 123.482 200.435L106.709 200.473C104.141 200.478 102.054 198.374 102.048 195.772L101.96 155.31Z" fill="#1E1E1E"/>
<path d="M239.901 50.8572L242.745 59.4372C242.918 59.9592 242.785 60.5259 242.4 60.9064L237.505 65.7456C236.452 66.7868 237.505 68.5722 238.957 68.2066L245.827 66.4759C246.329 66.3495 246.867 66.4965 247.243 66.8625L252.866 72.3328C253.923 73.3612 255.65 72.4335 255.322 71.0133L253.507 63.1534C253.401 62.6919 253.524 62.2134 253.839 61.8685L258.139 57.1593C259.107 56.0985 258.06 54.4039 256.649 54.7477L250.52 56.2403C250.027 56.3602 249.501 56.2179 249.128 55.8642L242.306 49.3921C241.19 48.3336 239.422 49.411 239.901 50.8572Z" fill="#FFE662"/>
<path d="M579 523.806C568.091 530 584.182 559.948 593.954 574.702C594.301 575.226 594.942 575.447 595.543 575.266L606.839 571.868C607.524 571.662 607.956 570.984 607.844 570.276C603.749 544.308 592.693 516.032 579 523.806Z" fill="#1E1E1E"/>
<path d="M612.544 443.428C579.396 451.072 588.705 531.071 597.774 571.543C597.956 572.353 598.778 572.809 599.572 572.57L626.288 564.532C626.793 564.38 627.171 563.982 627.278 563.465C636.355 519.715 645.888 435.739 612.544 443.428Z" fill="white"/>
<path fill-rule="evenodd" clip-rule="evenodd" d="M599.167 571.189L625.878 563.153C630.405 541.327 635.03 509.531 634.385 484.197C634.061 471.493 632.413 460.61 628.901 453.425C627.155 449.852 624.998 447.298 622.417 445.839C619.864 444.397 616.741 443.937 612.863 444.832C605.212 446.596 599.862 452.543 596.31 461.509C592.754 470.488 591.102 482.274 590.762 495.21C590.084 521.047 594.649 551.018 599.167 571.189ZM593.644 460.451C597.387 451.003 603.303 444.083 612.226 442.026C616.683 440.998 620.556 441.481 623.829 443.33C627.073 445.163 629.571 448.25 631.478 452.152C635.273 459.917 636.926 471.32 637.253 484.117C637.907 509.778 633.231 541.832 628.682 563.754C628.463 564.812 627.685 565.613 626.697 565.91L599.981 573.948C598.432 574.414 596.748 573.524 596.375 571.861C591.826 551.561 587.207 521.317 587.894 495.14C588.237 482.063 589.907 469.887 593.644 460.451Z" fill="#1E1E1E"/>
<path d="M643.932 489.407C624.139 492.432 620.669 540.551 621.338 565.658C621.363 566.599 622.272 567.24 623.171 566.969L637.641 562.615C638.057 562.49 638.389 562.196 638.553 561.793C648.932 536.197 664.056 486.331 643.932 489.407Z" fill="#1E1E1E"/>
<path fill-rule="evenodd" clip-rule="evenodd" d="M614.899 476.37L615.175 454.869L612.305 454.838L611.74 498.856L600.704 488.242L598.715 490.323L611.69 502.8L611.133 546.115L601.465 538.027L599.624 540.24L611.086 549.828L610.843 568.745L613.712 568.776L614.208 530.169L625.664 518.908L623.657 516.853L614.261 526.091L614.845 480.585L624.317 470.661L622.246 468.672L614.899 476.37Z" fill="#1E1E1E"/>
<path d="M574.497 563.078C573.924 560.389 575.964 557.853 578.7 557.853H644.292C646.968 557.853 648.994 560.284 648.524 562.932L638.876 617.218C638.51 619.278 636.727 620.778 634.644 620.778H590.278C588.25 620.778 586.499 619.356 586.074 617.364L574.497 563.078Z" fill="#FFE662"/>
<path d="M623.904 111.466L626.228 122.579C626.37 123.256 626.122 123.949 625.587 124.377L618.781 129.82C617.317 130.991 618.376 133.362 620.241 133.088L629.07 131.792C629.714 131.697 630.366 131.95 630.783 132.456L637.023 140.026C638.196 141.449 640.485 140.506 640.279 138.684L639.137 128.603C639.07 128.012 639.293 127.428 639.736 127.035L645.779 121.68C647.141 120.473 646.076 118.217 644.263 118.468L636.395 119.56C635.763 119.648 635.126 119.403 634.711 118.912L627.117 109.935C625.875 108.467 623.512 109.592 623.904 111.466Z" fill="#FFE662"/>
<path d="M29.7891 342.585L27.237 345.734C27.0817 345.926 26.8285 346.018 26.5805 345.973L23.4262 345.404C22.7475 345.281 22.3381 346.103 22.8619 346.536L25.3409 348.587C25.5219 348.737 25.6074 348.968 25.5658 349.194L24.9439 352.576C24.827 353.212 25.6396 353.606 26.0997 353.136L28.6463 350.537C28.7958 350.384 29.0125 350.311 29.2284 350.339L32.1755 350.725C32.8394 350.813 33.2154 350.016 32.7106 349.591L30.5188 347.749C30.3428 347.601 30.2587 347.376 30.2965 347.154L30.9876 343.091C31.1006 342.426 30.2193 342.055 29.7891 342.585Z" fill="#FFE662"/>
</g>
<defs>
<clipPath id="clip0_276_28823">
<rect width="708" height="621" fill="white"/>
</clipPath>
</defs>
</svg>
