<svg width="125" height="125" viewBox="0 0 125 125" fill="none" xmlns="http://www.w3.org/2000/svg">
<path d="M115.988 27.3809L96.6886 8.08191C95.9616 7.35486 94.7841 7.35486 94.0571 8.08191L59.7209 42.4169L38.9926 22.0224C38.9765 22.0062 38.9554 21.9951 38.938 21.9802C38.8698 21.9181 38.7966 21.8623 38.7184 21.8102C38.6812 21.7854 38.6464 21.7581 38.608 21.7358C38.5162 21.6836 38.4181 21.6427 38.3164 21.6055C38.2903 21.5968 38.268 21.5807 38.242 21.572L10.1675 12.8003C9.50995 12.5956 8.78662 12.7717 8.29655 13.2606C7.80647 13.7506 7.62905 14.4715 7.83625 15.1315L16.6092 43.2047C16.6626 43.3747 16.7444 43.531 16.8425 43.6774C16.8735 43.7246 16.9107 43.763 16.9454 43.8065C16.9913 43.8635 17.0286 43.9256 17.0807 43.9764L37.7879 64.3499L8.08191 94.0571C7.35486 94.7841 7.35486 95.9616 8.08191 96.6886L27.3822 115.99C27.7308 116.339 28.2047 116.535 28.6985 116.535C29.1923 116.535 29.665 116.339 30.0149 115.99L60.0273 85.9777L84.3102 109.577C84.6204 109.876 85.0099 110.021 85.4082 110.065C88.2246 112.676 91.8574 114.122 95.7209 114.122C99.7804 114.122 103.598 112.541 106.468 109.67C112.315 103.823 112.381 94.3623 106.687 88.4194C106.597 88.1104 106.436 87.8251 106.2 87.598L81.8462 64.1576L115.989 30.0137C116.715 29.2854 116.715 28.108 115.988 27.3809ZM35.3859 24.5807L33.9951 29.3077L27.5112 31.2147C26.9045 31.3933 26.4293 31.8673 26.2506 32.4752L24.3449 38.9578L19.6166 40.3487L12.4492 17.4132L35.3859 24.5807ZM28.6973 112.042L12.0286 95.3722L19.041 88.3598L27.3747 96.6936C27.7382 97.0571 28.2147 97.2382 28.6911 97.2382C29.1675 97.2382 29.6439 97.0571 30.0075 96.6936C30.7345 95.9665 30.7345 94.7891 30.0075 94.0621L21.6737 85.7283L28.5025 78.8995L36.8363 87.2333C37.1998 87.5968 37.6762 87.7779 38.1526 87.7779C38.6291 87.7779 39.1055 87.5968 39.469 87.2333C40.1961 86.5062 40.1961 85.3288 39.469 84.6018L31.1353 76.268L40.4516 66.9516L57.3586 83.3834L28.6973 112.042ZM103.833 107.037C99.6675 111.2 93.0782 111.484 88.5769 107.9L104.696 91.7804C108.28 96.2829 107.996 102.875 103.833 107.037ZM85.5869 105.628L41.6142 62.8921L21.9467 43.5422L26.3697 42.242C26.9764 42.0633 27.4516 41.5893 27.6303 40.9814L29.5372 34.4988L36.0211 32.5918C36.6278 32.4132 37.103 31.9392 37.2817 31.3313L38.5993 26.8536L77.8623 65.4839L102.253 88.9628L85.5869 105.628ZM79.1774 61.5621L62.3735 45.0273L71.9256 35.4752L80.2593 43.809C80.6229 44.1725 81.0993 44.3536 81.5757 44.3536C82.0521 44.3536 82.5286 44.1725 82.8921 43.809C83.6191 43.0831 83.6191 41.9032 82.8921 41.1774L74.5583 32.8437L82.3176 25.0844L90.6514 33.4181C91.0149 33.7817 91.4913 33.9628 91.9678 33.9628C92.4442 33.9628 92.9206 33.7817 93.2841 33.4181C94.0112 32.6923 94.0112 31.5124 93.2841 30.7866L84.9504 22.4529L95.3747 12.0286L112.041 28.6973L79.1774 61.5621Z" fill="#FFE662"/>
</svg>
