<svg width="125" height="125" viewBox="0 0 125 125" fill="none" xmlns="http://www.w3.org/2000/svg">
<path d="M108.156 14.894H16.8464C11.0574 14.894 6.34814 19.6021 6.34814 25.3911V84.9609C6.34814 90.7512 11.0574 95.4595 16.8464 95.4595H53.6672L48.7842 105.226H40.5281C36.4888 105.226 33.2034 108.511 33.2034 112.551C33.2034 116.587 36.489 119.873 40.5281 119.873H84.4744C88.5112 119.873 91.7966 116.587 91.7966 112.551C91.7966 108.511 88.5112 105.226 84.4744 105.226H76.2158L71.3325 95.4595H108.156C113.944 95.4595 118.652 90.7512 118.652 84.9609V25.3911C118.652 19.6021 113.944 14.894 108.156 14.894ZM16.8464 19.7759H108.156C111.251 19.7759 113.771 22.2954 113.771 25.3911V78.3706H52.9356C53.1289 77.8308 53.3064 77.2861 53.4634 76.7366L61.5662 74.9248C62.6824 74.6765 63.4751 73.687 63.4751 72.5415V66.1311C63.4751 64.988 62.6824 63.9983 61.5662 63.7502L53.4644 61.9385C52.9038 59.9783 52.1182 58.084 51.1189 56.282L55.5693 49.2539C56.1797 48.2883 56.04 47.0288 55.2312 46.2214L50.7031 41.6934C49.8958 40.8845 48.6335 40.7449 47.668 41.3577L40.6448 45.8179C38.8635 44.8232 36.9702 44.0366 34.9858 43.4663L33.1765 35.3586C32.926 34.2424 31.9363 33.4497 30.7932 33.4497H24.3828C23.2397 33.4497 22.249 34.2424 21.9995 35.3586L20.1877 43.4663C18.2058 44.0366 16.3115 44.8232 14.5312 45.8179L11.2312 43.7229V25.3914C11.2312 22.2954 13.7507 19.7759 16.8464 19.7759ZM42.3543 78.3706C42.7629 76.7876 42.9697 75.1558 42.9697 73.4876C42.9697 62.7168 34.2075 53.9558 23.4382 53.9558C18.8943 53.9558 14.6323 55.4868 11.2314 58.2202V49.5068L13.1819 50.7446C13.9832 51.2529 15.0059 51.2517 15.8047 50.7422C17.929 49.3853 20.2781 48.4075 22.7878 47.8384C23.707 47.6294 24.4233 46.9094 24.6289 45.9902L26.3384 38.3323H28.8372L30.5479 45.9902C30.7522 46.9097 31.4695 47.6294 32.3889 47.8384C34.8975 48.4075 37.2466 49.385 39.3709 50.7422C40.1709 51.2517 41.1921 51.2529 41.9937 50.7446L48.6338 46.5291L50.3982 48.2935L46.1921 54.9351C45.6887 55.7327 45.6887 56.7493 46.1921 57.5457C47.5649 59.7161 48.5376 62.0627 49.085 64.5264C49.2903 65.4504 50.0127 66.1726 50.9368 66.3794L58.5923 68.0891V70.5864L50.9368 72.2961C50.0127 72.5029 49.2903 73.2251 49.085 74.1492C48.7651 75.5913 48.291 77.0066 47.6758 78.3708L42.3543 78.3706ZM11.2312 78.3706V65.3918C13.9575 61.2771 18.4734 58.8379 23.438 58.8379C31.5154 58.8379 38.0864 65.4087 38.0864 73.4876C38.0864 75.1726 37.8044 76.8093 37.25 78.3706H11.2312ZM86.9136 112.551C86.9136 113.896 85.8193 114.99 84.4744 114.99H40.5281C39.1807 114.99 38.0864 113.896 38.0864 112.551C38.0864 111.203 39.1807 110.109 40.5281 110.109C50.2092 110.109 75.6953 110.109 84.4744 110.109C85.8193 110.109 86.9136 111.203 86.9136 112.551ZM70.7561 105.226H54.2437L59.1267 95.4595H65.8752L70.7561 105.226ZM108.156 90.5762C104.175 90.5762 20.842 90.5762 16.8467 90.5762C13.751 90.5762 11.2314 88.0569 11.2314 84.9609V83.2539C14.8223 83.2539 110.376 83.2539 113.771 83.2539V84.9609C113.771 88.0569 111.252 90.5762 108.156 90.5762Z" fill="#FFE662"/>
<path d="M89.5023 50H72.4137V54.8821H89.5023V50Z" fill="#FFE662"/>
<path d="M99.1216 42.2412H72.2664V47.1233H99.1216V42.2412Z" fill="#FFE662"/>
<path d="M106.446 44.1909H101.563V49.073H106.446V44.1909Z" fill="#FFE662"/>
<path d="M94.5382 64.6553H89.6552V69.5386H94.5382V64.6553Z" fill="#FFE662"/>
<path d="M106.446 57.7588H72.2664V62.6418H106.446V57.7588Z" fill="#FFE662"/>
<path d="M86.9136 64.6553H72.2664V69.5386H86.9136V64.6553Z" fill="#FFE662"/>
<path d="M97.2668 38.9344C98.22 39.8876 99.7666 39.8876 100.72 38.9344L105.603 34.0511C106.557 33.098 106.557 31.5511 105.603 30.5978L100.72 25.7159C99.7669 24.7614 98.2202 24.7614 97.2668 25.7159C96.3135 26.6691 96.3135 28.2145 97.2668 29.1678L100.423 32.3243L97.2668 35.4811C96.3132 36.4344 96.3132 37.9811 97.2668 38.9344Z" fill="#FFE662"/>
<path d="M78.0118 38.9344C78.965 39.8876 80.5092 39.8876 81.4652 38.9344C82.4183 37.9811 82.4183 36.4344 81.4652 35.4811L78.3085 32.3243L81.4652 29.1678C82.4183 28.2145 82.4183 26.6691 81.4652 25.7159C80.5094 24.7614 78.9652 24.7614 78.0118 25.7159L73.1285 30.5978C72.1754 31.5511 72.1754 33.0978 73.1285 34.0511L78.0118 38.9344Z" fill="#FFE662"/>
<path d="M86.9263 39.6492C87.821 39.6492 88.6843 39.1555 89.1099 38.2995L93.9932 28.5332C94.5964 27.3269 94.1074 25.8606 92.9011 25.2575C91.6951 24.6557 90.2285 25.1445 89.6255 26.3496L84.7446 36.1159C83.9253 37.7512 85.1314 39.6492 86.9263 39.6492Z" fill="#FFE662"/>
</svg>
