<svg width="125" height="125" viewBox="0 0 125 125" fill="none" xmlns="http://www.w3.org/2000/svg">
<g clip-path="url(#clip0_341_31529)">
<path d="M82.0924 91.2593V80.4878" stroke="#FFE662" stroke-width="4" stroke-miterlimit="10" stroke-linecap="round" stroke-linejoin="round"/>
<path d="M19.5894 56.2532V56.2508V23.2325V23.2301V17.7731C19.5894 13.5001 23.0794 10 27.3453 10H74.3362C78.6 10 82.0921 13.5001 82.0921 17.7731V23.2325V30.1496" stroke="#FFE662" stroke-width="4" stroke-miterlimit="10" stroke-linecap="round" stroke-linejoin="round"/>
<path d="M82.0912 91.2583V95.9681V101.426C82.0912 105.7 78.6011 109.197 74.3369 109.197H27.3436C23.0794 109.197 19.5894 105.7 19.5894 101.426V95.9681V56.2515" stroke="#FFE662" stroke-width="4" stroke-miterlimit="10" stroke-linecap="round" stroke-linejoin="round"/>
<path d="M19.5896 23.2305H82.0907" stroke="#FFE662" stroke-width="4" stroke-miterlimit="10" stroke-linecap="round" stroke-linejoin="round"/>
<path d="M82.0912 95.9673H67.2992" stroke="#FFE662" stroke-width="4" stroke-miterlimit="10" stroke-linecap="round" stroke-linejoin="round"/>
<path d="M67.2992 95.9673H19.5898" stroke="#FFE662" stroke-width="4" stroke-miterlimit="10" stroke-linecap="round" stroke-linejoin="round"/>
<path d="M43.8268 16.8921H57.8541" stroke="#FFE662" stroke-width="4" stroke-miterlimit="10" stroke-linecap="round" stroke-linejoin="round"/>
<path d="M30.9501 16.8921H34.7331" stroke="#FFE662" stroke-width="4" stroke-miterlimit="10" stroke-linecap="round" stroke-linejoin="round"/>
<path d="M43.8268 102.306H57.8541" stroke="#FFE662" stroke-width="4" stroke-miterlimit="10" stroke-linecap="round" stroke-linejoin="round"/>
<path d="M89.3423 37.3906C88.0284 36.7555 86.6445 36.2485 85.2051 35.8823" stroke="white" stroke-width="4" stroke-miterlimit="10" stroke-linecap="round" stroke-linejoin="round"/>
<path d="M61.5057 44.5293C60.6527 45.7203 59.9127 46.9977 59.3027 48.3457" stroke="white" stroke-width="4" stroke-miterlimit="10" stroke-linecap="round" stroke-linejoin="round"/>
<path d="M67.0575 76.0702C65.8423 75.239 64.7137 74.2869 63.689 73.2378" stroke="white" stroke-width="4" stroke-miterlimit="10" stroke-linecap="round" stroke-linejoin="round"/>
<path d="M95.6433 73.2368C94.6189 74.2864 93.49 75.2385 92.2748 76.0702" stroke="white" stroke-width="4" stroke-miterlimit="10" stroke-linecap="round" stroke-linejoin="round"/>
<path d="M101.947 59.2798C101.835 60.775 101.577 62.2276 101.188 63.6238" stroke="white" stroke-width="4" stroke-miterlimit="10" stroke-linecap="round" stroke-linejoin="round"/>
<path d="M77.4664 79.8677C78.1908 79.9383 78.9241 79.9749 79.666 79.9749C80.4072 79.9749 81.1411 79.9388 81.8649 79.8677" stroke="white" stroke-width="4" stroke-miterlimit="10" stroke-linecap="round" stroke-linejoin="round"/>
<path d="M58.1435 63.6238C57.7534 62.2278 57.4967 60.7752 57.3843 59.2798" stroke="white" stroke-width="4" stroke-miterlimit="10" stroke-linecap="round" stroke-linejoin="round"/>
<path d="M74.1275 35.8823C72.6871 36.2485 71.3034 36.7555 69.99 37.3906" stroke="white" stroke-width="4" stroke-miterlimit="10" stroke-linecap="round" stroke-linejoin="round"/>
<path d="M100.028 48.3457C99.4179 46.9977 98.6784 45.7201 97.8257 44.5293" stroke="white" stroke-width="4" stroke-miterlimit="10" stroke-linecap="round" stroke-linejoin="round"/>
<path d="M74.1277 35.8819V32.7924C74.1277 31.3383 75.3142 30.1499 76.7643 30.1499H82.5667C84.0179 30.1499 85.2045 31.3395 85.2045 32.7924V35.8819" stroke="white" stroke-width="4" stroke-miterlimit="10" stroke-linecap="round" stroke-linejoin="round"/>
<path d="M61.5058 44.5287L59.5245 42.16C58.5923 41.0457 58.7387 39.3701 59.849 38.4361L64.2943 34.6977C65.4061 33.7637 67.078 33.9099 68.0095 35.0232L69.9894 37.3901" stroke="white" stroke-width="4" stroke-miterlimit="10" stroke-linecap="round" stroke-linejoin="round"/>
<path d="M57.3843 59.2794L54.3458 58.7422C52.9165 58.4904 51.9549 57.1122 52.2067 55.6813L53.2138 49.9545C53.4651 48.5221 54.8402 47.5589 56.2702 47.8098L59.3028 48.3452" stroke="white" stroke-width="4" stroke-miterlimit="10" stroke-linecap="round" stroke-linejoin="round"/>
<path d="M58.1436 63.624L55.4771 65.1682C54.2196 65.8956 53.7857 67.5196 54.5112 68.7798L57.4124 73.8151C58.1367 75.0756 59.7584 75.5107 61.0154 74.7843L63.6888 73.2373" stroke="white" stroke-width="4" stroke-miterlimit="10" stroke-linecap="round" stroke-linejoin="round"/>
<path d="M67.0575 76.0703L66.0027 78.9758C65.5063 80.3425 66.2148 81.8686 67.578 82.3646L73.0299 84.3541C74.3942 84.8506 75.9155 84.1392 76.4108 82.7738L77.4662 79.8679" stroke="white" stroke-width="4" stroke-miterlimit="10" stroke-linecap="round" stroke-linejoin="round"/>
<path d="M92.2748 76.0703L93.3296 78.9758C93.8257 80.3435 93.1173 81.8686 91.7542 82.3646L86.3023 84.3541C84.9376 84.8506 83.417 84.1392 82.9219 82.7738L81.8661 79.8679" stroke="white" stroke-width="4" stroke-miterlimit="10" stroke-linecap="round" stroke-linejoin="round"/>
<path d="M101.188 63.624L103.855 65.1682C105.111 65.8956 105.546 67.5196 104.82 68.7798L101.919 73.8151C101.196 75.0756 99.5732 75.5107 98.316 74.7824L95.6436 73.2373" stroke="white" stroke-width="4" stroke-miterlimit="10" stroke-linecap="round" stroke-linejoin="round"/>
<path d="M100.028 48.3453L103.061 47.8098C104.492 47.5587 105.866 48.5222 106.118 49.9544L107.126 55.6811C107.376 57.1121 106.415 58.49 104.986 58.7435L101.947 59.2792" stroke="white" stroke-width="4" stroke-miterlimit="10" stroke-linecap="round" stroke-linejoin="round"/>
<path d="M89.3423 37.3905L91.3212 35.0239C92.2532 33.9104 93.9261 33.7644 95.0364 34.7003L99.481 38.437C100.593 39.3715 100.738 41.0483 99.8067 42.1616L97.8249 44.5297" stroke="white" stroke-width="4" stroke-miterlimit="10" stroke-linecap="round" stroke-linejoin="round"/>
<path d="M79.6661 69.9676C86.6297 69.9676 92.2749 64.31 92.2749 57.331C92.2749 50.352 86.6297 44.6943 79.6661 44.6943C72.7025 44.6943 67.0574 50.352 67.0574 57.331C67.0574 64.31 72.7025 69.9676 79.6661 69.9676Z" stroke="white" stroke-width="4" stroke-miterlimit="10" stroke-linecap="round" stroke-linejoin="round"/>
</g>
<defs>
<clipPath id="clip0_341_31529">
<rect width="125" height="125" fill="white"/>
</clipPath>
</defs>
</svg>
