<svg width="125" height="125" viewBox="0 0 125 125" fill="none" xmlns="http://www.w3.org/2000/svg">
<path fill-rule="evenodd" clip-rule="evenodd" d="M32.258 40.3356L22.657 31.801C21.1219 30.4372 20.2417 28.477 20.2417 26.4222V26.1864C20.2417 24.4155 20.9311 22.7512 22.1838 21.4985C23.2698 20.4126 24.7147 19.8147 26.2498 19.8147C27.7849 19.8147 29.2299 20.4126 30.3159 21.4985L32.258 23.4407L34.2001 21.4985C36.3721 19.3281 40.1602 19.3281 42.3321 21.4985C43.5848 22.7512 44.2743 24.4155 44.2743 26.1864V26.4222C44.2743 28.4755 43.3941 30.4372 41.859 31.801L32.258 40.3356ZM47.2783 26.4221V26.1863C47.2783 23.6133 46.2764 21.195 44.4559 19.3745C42.8037 17.7208 40.6047 16.8105 38.2661 16.8105C36.013 16.8105 33.8891 17.6562 32.2579 19.1973C30.6267 17.6562 28.5028 16.8105 26.2498 16.8105C23.9111 16.8105 21.7121 17.7208 20.0599 19.3745C18.2394 21.195 17.2375 23.6133 17.2375 26.1863V26.4221C17.2375 29.333 18.4857 32.1118 20.6607 34.0449L32.2579 44.3549L43.8536 34.0464C46.0301 32.1133 47.2783 29.3345 47.2783 26.4221L47.2783 26.4221Z" fill="white"/>
<path fill-rule="evenodd" clip-rule="evenodd" d="M120.968 66.5328C120.968 67.6457 120.063 68.5489 118.952 68.5489H95.8307L85.9678 80.3816C85.5686 80.8574 84.6775 80.5368 84.6775 79.9159V68.5489H58.4678C57.3569 68.5489 56.4517 67.6457 56.4517 66.5328V56.4522H58.4678C61.8025 56.4522 64.5162 53.7385 64.5162 50.4038V20.1618H118.952C120.063 20.1618 120.968 21.0651 120.968 22.178L120.968 66.5328ZM72.5807 106.855C72.5807 107.968 71.6755 108.871 70.5646 108.871H44.3549V120.238C44.3549 120.861 43.4638 121.183 43.0646 120.703L33.2017 108.871H10.0807C8.96984 108.871 8.06461 107.968 8.06461 106.855V66.532C8.06461 65.4191 8.96986 64.5159 10.0807 64.5159H29.9699L31.9033 66.8345C32.8106 67.9232 34.1432 68.5482 35.5606 68.5482C37.9356 68.5482 39.8932 66.7941 40.2481 64.5159H52.4195V66.532C52.4195 69.8667 55.1332 72.5804 58.4678 72.5804H72.5807L72.5807 106.855ZM52.4194 60.4839H40.3226V56.4516H52.4194V60.4839ZM6.0483 52.4192C4.93741 52.4192 4.03218 51.516 4.03218 50.4031V6.04825C4.03218 4.93535 4.93743 4.03213 6.0483 4.03213H58.4677C59.5786 4.03213 60.4838 4.93535 60.4838 6.04825V50.4031C60.4838 51.516 59.5785 52.4192 58.4677 52.4192H36.2902V63.7862C36.2902 64.4091 35.3991 64.7317 34.9999 64.2519L25.137 52.4192H6.0483ZM118.952 16.129H64.5161V6.04838C64.5161 2.7137 61.8024 0 58.4677 0H6.04838C2.7137 0 0 2.7137 0 6.04838V50.4032C0 53.7379 2.7137 56.4516 6.04838 56.4516H23.25L26.6109 60.4839H10.0806C6.74597 60.4839 4.03226 63.1976 4.03226 66.5323V106.855C4.03226 110.19 6.74597 112.903 10.0806 112.903H31.3145L39.9677 123.286C40.875 124.375 42.2077 125 43.625 125C46.25 125 48.3871 122.863 48.3871 120.238V112.903H70.5645C73.8992 112.903 76.6129 110.19 76.6129 106.855V72.5806H80.6452V79.9153C80.6452 82.5403 82.7823 84.6774 85.4073 84.6774C86.8246 84.6774 88.1573 84.0524 89.0645 82.9637L97.7177 72.5806H118.952C122.286 72.5806 125 69.8669 125 66.5323V22.1774C125 18.8427 122.286 16.129 118.952 16.129Z" fill="#FFE662"/>
<path fill-rule="evenodd" clip-rule="evenodd" d="M54.9805 85.8084C54.9805 87.4252 53.6656 88.7401 52.0488 88.7401C50.432 88.7401 49.1172 87.4252 49.1172 85.8084C49.1172 84.1916 50.432 82.8768 52.0488 82.8768C53.6656 82.8768 54.9805 84.1916 54.9805 85.8084ZM37.3907 82.8766C37.3907 81.2598 38.7055 79.945 40.3223 79.945C41.9391 79.945 43.254 81.2598 43.254 82.8766C43.254 84.4934 41.9391 85.8083 40.3223 85.8083C38.7055 85.8083 37.3907 84.4934 37.3907 82.8766ZM25.6639 85.8084C25.6639 84.1916 26.9788 82.8768 28.5956 82.8768C30.2124 82.8768 31.5272 84.1916 31.5272 85.8084C31.5272 87.4252 30.2124 88.7401 28.5956 88.7401C26.9788 88.7401 25.6639 87.4252 25.6639 85.8084ZM46.1858 85.8082C46.1858 86.6774 46.3881 87.4953 46.7282 88.2371C46.0964 87.6771 45.3928 87.1992 44.6321 86.8196C45.5878 85.7759 46.1858 84.3995 46.1858 82.8765C46.1858 79.6429 43.5562 77.0132 40.3225 77.0132C37.0889 77.0132 34.4592 79.6429 34.4592 82.8765C34.4592 84.3995 35.0573 85.7759 36.013 86.8196C35.2522 87.1992 34.5486 87.6771 33.9168 88.237C34.2569 87.4953 34.4592 86.6774 34.4592 85.8082C34.4592 82.5745 31.8295 79.9448 28.5959 79.9448C25.3623 79.9448 22.7326 82.5745 22.7326 85.8082C22.7326 87.3707 23.3555 88.7823 24.3552 89.8348C21.6434 91.3343 19.8009 94.222 19.8009 97.5348V100.466H22.7326V97.5348C22.7326 94.3012 25.3623 91.6715 28.5959 91.6715C29.5193 91.6715 30.4047 91.8914 31.2109 92.2944C30.9793 92.9643 30.8093 93.665 30.7272 94.3964L30.0705 100.304L32.9831 100.628L33.6398 94.7204C34.0194 91.3109 36.8925 88.7398 40.3225 88.7398C43.7526 88.7398 46.6256 91.3109 47.0052 94.7204L47.6619 100.628L50.5745 100.304L49.9178 94.3964C49.8372 93.665 49.6657 92.9643 49.4341 92.2944C50.2403 91.8913 51.1257 91.6715 52.0492 91.6715C55.2828 91.6715 57.9125 94.3011 57.9125 97.5348V100.466H60.8441V97.5348C60.8441 94.222 59.0016 91.3343 56.2898 89.8348C57.2895 88.7823 57.9125 87.3707 57.9125 85.8081C57.9125 82.5745 55.2828 79.9448 52.0492 79.9448C48.8156 79.9448 46.1858 82.5745 46.1858 85.8081V85.8082Z" fill="white"/>
<path fill-rule="evenodd" clip-rule="evenodd" d="M103.121 52.6182C103.121 54.1373 101.885 55.3726 100.366 55.3726H94.3135C91.5797 55.3726 88.9286 54.6276 86.5942 53.2269V42.1707L87.8282 40.9367C89.6365 39.1284 90.9214 36.8601 91.5412 34.3797C91.694 33.7669 92.2436 33.3372 92.8771 33.3372C93.6525 33.3372 94.3851 33.676 94.8864 34.2696C95.3877 34.8618 95.6026 35.6399 95.4745 36.4056L94.6096 41.6005H100.366C101.885 41.6005 103.121 42.8359 103.121 44.3549V52.6182ZM78.3308 55.3722V41.6H83.8397L83.8411 55.3722H78.3308ZM100.366 38.8453H97.8598L98.1917 36.8566C98.452 35.2907 98.0141 33.6987 96.988 32.4881C95.962 31.2762 94.4636 30.582 92.8771 30.582C90.9779 30.582 89.3294 31.8697 88.868 33.7111C88.3695 35.708 87.3365 37.5315 85.8808 38.9886L85.4745 39.3948C85.0159 39.0547 84.454 38.8453 83.8398 38.8453H78.3309C76.8118 38.8453 75.5765 40.0807 75.5765 41.5998V55.3719C75.5765 56.891 76.8118 58.1263 78.3309 58.1263H83.8398C85.0421 58.1263 86.0543 57.3482 86.4303 56.2726C88.8735 57.4845 91.5577 58.1263 94.3135 58.1263H100.366C103.404 58.1263 105.875 55.6556 105.875 52.6175V44.3542C105.875 41.316 103.404 38.8453 100.366 38.8453L100.366 38.8453Z" fill="white"/>
</svg>
