<svg width="776" height="677" viewBox="0 0 776 677" fill="none" xmlns="http://www.w3.org/2000/svg">
<path d="M602.546 146.822C602.546 146.822 524.763 61.6011 401.618 65.6776C278.472 69.7541 173.429 152.328 86.5858 216.934C-0.257554 281.54 -23.5382 381.888 26.945 460.231C77.4282 538.573 157.877 505.594 260.292 556.444C362.707 607.294 382.163 636.178 496.247 623.813C610.332 611.448 697.175 484.98 684.231 350.261C671.286 215.543 602.546 146.822 602.546 146.822Z" fill="#FFC300"/>
<path opacity="0.7" d="M602.546 146.822C602.546 146.822 524.763 61.6011 401.618 65.6776C278.472 69.7541 173.429 152.328 86.5858 216.934C-0.257554 281.54 -23.5382 381.888 26.945 460.231C77.4282 538.573 157.877 505.594 260.292 556.444C362.707 607.294 382.163 636.178 496.247 623.813C610.332 611.448 697.175 484.98 684.231 350.261C671.286 215.543 602.546 146.822 602.546 146.822Z" fill="#FFE662"/>
<path d="M638.385 336.814C638.269 336.814 639.718 329.608 639.872 329.086C641.534 323.947 647.793 314.983 653.841 315.002C654.846 315.031 655.834 315.271 656.741 315.707C657.647 316.142 658.452 316.764 659.103 317.531C659.753 318.298 660.235 319.194 660.517 320.159C660.798 321.125 660.874 322.139 660.738 323.136C660.293 327.406 656.468 331.018 653.01 333.124C648.953 335.655 638.385 336.814 638.385 336.814Z" fill="#FFC300"/>
<path d="M626.657 288.302C632.356 290.35 635.196 300.899 635.003 306.308C635.003 306.772 633.921 314.036 633.824 314.036H633.708C634.153 315.698 634.636 317.494 635.119 319.446C635.969 323.078 636.896 327.174 637.611 331.733C638.44 336.624 638.982 341.559 639.234 346.513C639.542 352.057 639.354 357.618 638.674 363.128C638.663 363.192 638.663 363.258 638.674 363.321C639.427 361.718 641.649 357.274 641.861 356.946C644.837 352.425 653.222 345.354 659.076 347.054C660.035 347.35 660.922 347.844 661.678 348.504C662.434 349.164 663.043 349.976 663.466 350.887C663.888 351.798 664.115 352.787 664.131 353.791C664.147 354.795 663.951 355.79 663.558 356.714C662.012 360.694 657.375 363.186 653.492 364.287C649.106 365.543 639.331 364.056 638.558 363.94C637.733 369.527 636.533 375.052 634.964 380.478C634.063 383.646 633.084 386.815 632.028 389.983C632.704 388.611 633.341 387.394 633.438 387.22C636.413 382.699 644.798 375.628 650.652 377.309C651.613 377.602 652.502 378.095 653.26 378.755C654.018 379.414 654.628 380.226 655.051 381.138C655.474 382.049 655.7 383.04 655.714 384.045C655.729 385.049 655.531 386.046 655.134 386.969C653.589 390.968 648.952 393.441 645.069 394.562C641.185 395.682 632.762 394.562 630.559 394.272C630.154 395.47 629.748 396.687 629.323 397.885C627.391 403.681 625.304 409.477 623.527 415.157C622.889 417.089 622.329 419.176 621.769 421.185C622.387 419.968 622.909 418.944 623.005 418.809C625.961 414.288 634.365 407.217 640.2 408.897C641.159 409.194 642.046 409.688 642.803 410.348C643.56 411.007 644.17 411.819 644.594 412.729C645.018 413.639 645.247 414.628 645.265 415.632C645.284 416.636 645.092 417.632 644.701 418.557C643.156 422.537 638.5 425.03 634.616 426.131C630.733 427.232 623.14 426.266 620.513 425.899C619.991 427.986 619.489 430.053 619.083 432.081C618.832 433.472 618.504 434.805 618.33 436.216C618.156 437.626 617.943 438.998 617.75 440.35C617.48 442.997 617.17 445.741 616.977 448.33C616.823 450.126 616.707 451.846 616.591 453.565C617.19 451.633 618.523 447.653 618.619 447.325C620.765 443.078 623.956 439.448 627.893 436.776C628.108 436.292 628.373 435.832 628.685 435.404C629.233 434.561 629.951 433.843 630.795 433.295C631.638 432.748 632.587 432.384 633.58 432.228C634.573 432.071 635.588 432.125 636.558 432.386C637.529 432.647 638.434 433.109 639.215 433.743C643.813 437.607 642.654 448.581 640.548 453.565C640.432 453.855 638.712 456.888 637.611 458.782C638.442 457.777 639.215 456.85 640.084 455.729C641.765 453.681 643.504 451.672 645.358 449.508L648.198 446.436C649.126 445.374 650.246 444.388 651.27 443.364C653.685 441.027 656.255 438.766 658.902 436.544C657.086 435.076 650.768 429.724 648.952 426.092C647.136 422.46 645.841 417.379 647.735 413.554C648.149 412.635 648.752 411.813 649.505 411.143C650.258 410.473 651.144 409.969 652.105 409.665C653.065 409.361 654.08 409.262 655.081 409.376C656.083 409.49 657.049 409.814 657.916 410.327C663.036 413.534 663.558 424.45 662.225 429.647C662.225 429.975 660.756 433.627 659.964 435.617C661.568 434.303 663.152 432.97 664.814 431.753C669.605 428.043 674.57 424.45 679.497 420.837L683.998 417.495C683.361 416.973 675.71 410.791 673.662 406.734C671.865 403.121 670.552 398.02 672.445 394.176C672.861 393.259 673.466 392.44 674.219 391.771C674.972 391.103 675.858 390.6 676.818 390.296C677.778 389.992 678.791 389.893 679.792 390.005C680.792 390.118 681.758 390.439 682.627 390.949C687.746 394.176 688.268 405.091 686.935 410.269C686.838 410.675 684.848 415.93 684.269 417.244C687.573 414.771 690.838 412.298 693.929 409.728C698.161 406.272 702.163 402.541 705.907 398.561C705.617 398.329 697.6 391.915 695.513 387.742C693.697 384.129 692.403 379.029 694.296 375.203C694.708 374.285 695.309 373.464 696.06 372.794C696.811 372.124 697.696 371.62 698.655 371.316C699.614 371.011 700.627 370.913 701.627 371.027C702.627 371.14 703.592 371.464 704.458 371.977C709.597 375.184 710.119 386.1 708.786 391.297C708.689 391.625 707.182 395.644 706.41 397.537L706.719 397.711C710.383 393.607 713.674 389.185 716.553 384.496C718.156 381.946 719.567 379.415 720.88 376.903C719.257 375.86 711.935 371.107 709.636 367.475C707.337 363.843 705.598 359.168 707.047 355.149C707.359 354.203 707.865 353.333 708.533 352.594C709.2 351.855 710.014 351.262 710.923 350.855C711.832 350.448 712.816 350.235 713.811 350.229C714.807 350.223 715.794 350.425 716.707 350.821C722.175 353.449 723.875 364.249 723.121 369.6C723.121 369.89 722.349 372.808 721.788 374.933C722.349 373.793 722.967 372.634 723.488 371.532C725.42 367.398 727.063 363.495 728.415 359.94C729.188 358.008 729.825 356.076 730.347 354.473C729.284 352.541 725.15 345.103 724.744 340.949C724.339 336.795 724.995 331.695 728.145 328.797C728.863 328.092 729.721 327.547 730.664 327.196C731.608 326.845 732.614 326.697 733.618 326.76C734.622 326.824 735.602 327.099 736.493 327.566C737.384 328.033 738.166 328.683 738.79 329.473C742.422 334.322 738.964 344.678 735.834 349.102C735.563 349.469 730.637 354.898 730.579 354.898V354.782C730.038 356.424 729.458 358.182 728.763 360.076C727.488 363.573 725.981 367.533 724.087 371.668C722.07 376.2 719.793 380.612 717.267 384.883C714.454 389.668 711.221 394.193 707.607 398.407L707.472 398.561C708.979 397.614 713.268 395.161 713.635 395.006C718.62 392.881 729.478 391.664 733.458 396.243C734.095 397.02 734.563 397.922 734.83 398.891C735.097 399.86 735.158 400.875 735.009 401.869C734.859 402.863 734.503 403.815 733.963 404.663C733.423 405.511 732.711 406.236 731.873 406.792C728.376 409.264 723.121 408.723 719.277 407.545C714.93 406.173 707.685 399.546 707.008 399.025C703.241 403.228 699.194 407.172 694.895 410.829C692.383 412.993 689.814 415.08 687.167 417.128C688.5 416.374 689.698 415.698 689.872 415.621C694.837 413.496 705.695 412.278 709.675 416.857C710.315 417.633 710.785 418.535 711.054 419.505C711.323 420.475 711.385 421.49 711.235 422.485C711.086 423.48 710.729 424.432 710.187 425.28C709.645 426.128 708.931 426.852 708.09 427.406C704.613 429.879 699.358 429.338 695.513 428.159C691.668 426.981 685.235 421.417 683.573 419.929L680.54 422.267C675.671 425.996 670.88 429.686 666.147 433.453C664.504 434.786 662.94 436.158 661.355 437.51C662.553 436.834 663.538 436.274 663.712 436.216C668.678 434.071 679.535 432.873 683.515 437.433C684.159 438.208 684.631 439.11 684.902 440.08C685.173 441.05 685.235 442.066 685.086 443.062C684.936 444.058 684.578 445.011 684.034 445.859C683.49 446.707 682.774 447.43 681.931 447.982C678.434 450.455 673.198 449.914 669.354 448.755C665.509 447.595 659.694 442.534 657.762 440.775C656.197 442.224 654.613 443.654 653.164 445.142C652.178 446.166 651.232 447.074 650.266 448.175C649.3 449.276 648.334 450.261 647.484 451.305C645.803 453.353 644.045 455.478 642.441 457.526C641.32 458.936 640.277 460.308 639.234 461.68C640.837 460.346 644.083 457.816 644.373 457.603C648.952 454.744 659.501 451.904 664.137 455.806C664.886 456.48 665.485 457.304 665.895 458.224C666.305 459.145 666.516 460.141 666.516 461.148C666.516 462.156 666.305 463.152 665.895 464.072C665.485 464.992 664.886 465.816 664.137 466.49C661.066 469.446 655.81 469.775 651.831 469.156C647.426 468.461 639.466 463.36 638.48 462.626C636.742 464.906 635.08 467.147 633.535 469.292C628.183 476.691 624.01 483.048 621.15 487.549L620.861 487.993L617.151 486.197C617.344 485.907 617.538 485.636 617.731 485.327C620.725 480.845 625.092 474.508 630.656 467.147C632.414 464.829 634.327 462.375 636.317 459.864C634.246 457.61 632.31 455.236 630.521 452.754C626.251 454.415 617.383 454.493 616.243 454.493C616.069 457.352 615.915 460.134 615.799 462.762C615.412 471.9 615.451 479.512 615.548 484.825V485.463L611.471 483.531C611.471 478.256 611.684 471.088 612.225 462.646C612.398 459.728 612.65 456.618 612.939 453.449C611.8 453.159 602.584 450.783 599.106 448.001C595.957 445.489 592.634 441.394 592.75 437.124C592.739 436.117 592.941 435.119 593.343 434.195C593.745 433.272 594.337 432.444 595.082 431.765C595.826 431.086 596.705 430.573 597.662 430.258C598.618 429.943 599.631 429.833 600.633 429.937C606.641 430.71 611.664 440.408 612.669 445.721C612.669 446.03 612.978 449.585 613.094 451.711C613.229 450.397 613.326 449.141 613.461 447.847C613.732 445.2 614.079 442.553 614.446 439.713C614.659 438.36 614.891 436.989 615.103 435.598C615.316 434.207 615.683 432.777 615.973 431.347C616.707 428.063 617.596 424.759 618.581 421.455C616.262 421.204 608.051 420.238 604.516 418.229C600.98 416.22 597.116 412.665 596.595 408.434C596.43 407.439 596.478 406.421 596.734 405.446C596.991 404.471 597.451 403.561 598.084 402.777C598.717 401.992 599.509 401.35 600.408 400.894C601.307 400.437 602.292 400.175 603.299 400.126C609.346 399.972 615.799 408.801 617.576 413.901C617.692 414.23 618.562 418.036 618.987 420.142C619.605 418.21 620.184 416.162 620.919 414.191C622.851 408.395 625.034 402.715 627.159 396.977C627.816 395.219 628.434 393.461 629.091 391.722C628.26 391.722 618.465 390.698 614.524 388.437C611.027 386.505 607.124 382.873 606.583 378.642C606.425 377.648 606.477 376.632 606.736 375.66C606.995 374.688 607.456 373.781 608.088 372.997C608.719 372.214 609.509 371.573 610.405 371.114C611.3 370.655 612.282 370.39 613.287 370.335C619.354 370.18 625.807 379.009 627.584 384.11C627.719 384.496 628.956 389.906 629.207 391.393C630.598 387.529 631.97 383.665 633.071 379.801C634.705 374.585 635.996 369.267 636.935 363.882C636.548 363.882 626.309 362.916 622.29 360.597C618.774 358.665 614.871 355.033 614.35 350.802C614.191 349.808 614.243 348.792 614.503 347.82C614.762 346.848 615.222 345.94 615.854 345.157C616.486 344.374 617.276 343.732 618.171 343.274C619.067 342.815 620.049 342.55 621.054 342.495C627.101 342.359 633.554 351.169 635.331 356.27C635.447 356.617 636.394 360.791 636.8 362.781H637.147C637.945 357.339 638.255 351.836 638.075 346.339C638.075 343.306 637.785 340.427 637.495 337.607C635.563 337.607 626.792 337.607 622.928 335.945C619.064 334.284 614.949 331.231 613.944 327.077C613.676 326.104 613.617 325.085 613.769 324.088C613.922 323.09 614.284 322.136 614.831 321.288C615.379 320.44 616.099 319.717 616.945 319.167C617.79 318.616 618.743 318.25 619.74 318.093C625.749 317.282 633.129 325.338 635.467 330.226C635.582 330.497 636.587 333.337 637.263 335.404C637.128 334.148 636.993 332.835 636.819 331.637C636.22 327.096 635.37 322.962 634.597 319.33C634.133 317.263 633.689 315.466 633.245 313.669C631.313 312.703 623.739 308.723 621.131 305.497C618.523 302.27 616.243 297.653 617.267 293.499C617.488 292.509 617.916 291.577 618.524 290.765C619.131 289.952 619.905 289.278 620.792 288.787C621.68 288.296 622.661 287.999 623.672 287.915C624.683 287.831 625.7 287.963 626.657 288.302Z" fill="#FFC300"/>
<path d="M736.163 381.675C731.43 381.482 721.963 376.633 721.963 376.614C721.963 376.594 727.044 371.359 727.411 371.069C731.642 367.688 741.804 363.669 746.847 367.012C747.669 367.593 748.36 368.34 748.875 369.206C749.39 370.071 749.717 371.035 749.836 372.035C749.954 373.035 749.861 374.049 749.563 375.011C749.264 375.973 748.767 376.861 748.103 377.618C745.398 380.864 740.201 381.83 736.163 381.675Z" fill="#FFC300"/>
<g opacity="0.5">
<path d="M638.384 336.814C638.268 336.814 639.717 329.608 639.871 329.086C641.533 323.947 647.792 314.983 653.84 315.002C654.845 315.031 655.833 315.271 656.74 315.707C657.646 316.142 658.451 316.764 659.102 317.531C659.752 318.298 660.234 319.194 660.516 320.16C660.797 321.125 660.873 322.139 660.737 323.136C660.292 327.406 656.467 331.018 653.009 333.124C648.952 335.655 638.384 336.814 638.384 336.814Z" fill="white"/>
<path d="M626.657 288.302C632.356 290.35 635.196 300.899 635.003 306.308C635.003 306.772 633.921 314.036 633.824 314.036H633.708C634.153 315.698 634.636 317.494 635.119 319.446C635.969 323.078 636.896 327.174 637.611 331.733C638.44 336.624 638.982 341.559 639.234 346.513C639.542 352.057 639.354 357.618 638.674 363.128C638.663 363.192 638.663 363.258 638.674 363.321C639.427 361.718 641.649 357.274 641.861 356.946C644.837 352.425 653.222 345.354 659.076 347.054C660.035 347.35 660.922 347.844 661.678 348.504C662.434 349.164 663.043 349.976 663.466 350.887C663.888 351.798 664.115 352.787 664.131 353.791C664.147 354.795 663.951 355.79 663.558 356.714C662.012 360.694 657.375 363.186 653.492 364.287C649.106 365.543 639.331 364.056 638.558 363.94C637.733 369.527 636.533 375.052 634.964 380.478C634.063 383.646 633.084 386.815 632.028 389.983C632.704 388.611 633.341 387.394 633.438 387.22C636.413 382.699 644.798 375.628 650.652 377.309C651.613 377.602 652.502 378.095 653.26 378.755C654.018 379.414 654.628 380.226 655.051 381.138C655.474 382.049 655.7 383.04 655.714 384.045C655.729 385.049 655.531 386.046 655.134 386.969C653.589 390.968 648.952 393.441 645.069 394.562C641.185 395.682 632.762 394.562 630.559 394.272C630.154 395.47 629.748 396.687 629.323 397.885C627.391 403.681 625.304 409.477 623.527 415.157C622.889 417.089 622.329 419.176 621.769 421.185C622.387 419.968 622.909 418.944 623.005 418.809C625.961 414.288 634.365 407.217 640.2 408.897C641.159 409.194 642.046 409.688 642.803 410.348C643.56 411.007 644.17 411.819 644.594 412.729C645.018 413.639 645.247 414.628 645.265 415.632C645.284 416.636 645.092 417.632 644.701 418.557C643.156 422.537 638.5 425.03 634.616 426.131C630.733 427.232 623.14 426.266 620.513 425.899C619.991 427.986 619.489 430.053 619.083 432.081C618.832 433.472 618.504 434.805 618.33 436.216C618.156 437.626 617.943 438.998 617.75 440.35C617.48 442.997 617.17 445.741 616.977 448.33C616.823 450.126 616.707 451.846 616.591 453.565C617.19 451.633 618.523 447.653 618.619 447.325C620.765 443.078 623.956 439.448 627.893 436.776C628.108 436.292 628.373 435.832 628.685 435.404C629.233 434.561 629.951 433.843 630.795 433.295C631.638 432.748 632.587 432.384 633.58 432.228C634.573 432.071 635.588 432.125 636.558 432.386C637.529 432.647 638.434 433.109 639.215 433.743C643.813 437.607 642.654 448.581 640.548 453.565C640.432 453.855 638.712 456.888 637.611 458.782C638.442 457.777 639.215 456.85 640.084 455.729C641.765 453.681 643.504 451.672 645.358 449.508L648.198 446.436C649.126 445.374 650.246 444.388 651.27 443.364C653.685 441.027 656.255 438.766 658.902 436.544C657.086 435.076 650.768 429.724 648.952 426.092C647.136 422.46 645.841 417.379 647.735 413.554C648.149 412.635 648.752 411.813 649.505 411.143C650.258 410.473 651.144 409.969 652.105 409.665C653.065 409.361 654.08 409.262 655.081 409.376C656.083 409.49 657.049 409.814 657.916 410.327C663.036 413.534 663.558 424.45 662.225 429.647C662.225 429.975 660.756 433.627 659.964 435.617C661.568 434.303 663.152 432.97 664.814 431.753C669.605 428.043 674.57 424.45 679.497 420.837L683.998 417.495C683.361 416.973 675.71 410.791 673.662 406.734C671.865 403.121 670.552 398.02 672.445 394.176C672.861 393.259 673.466 392.44 674.219 391.771C674.972 391.103 675.858 390.6 676.818 390.296C677.778 389.992 678.791 389.893 679.792 390.005C680.792 390.118 681.758 390.439 682.627 390.949C687.746 394.176 688.268 405.091 686.935 410.269C686.838 410.675 684.848 415.93 684.269 417.244C687.573 414.771 690.838 412.298 693.929 409.728C698.161 406.272 702.163 402.541 705.907 398.561C705.617 398.329 697.6 391.915 695.513 387.742C693.697 384.129 692.403 379.029 694.296 375.203C694.708 374.285 695.309 373.464 696.06 372.794C696.811 372.124 697.696 371.62 698.655 371.316C699.614 371.011 700.627 370.913 701.627 371.027C702.627 371.14 703.592 371.464 704.458 371.977C709.597 375.184 710.119 386.1 708.786 391.297C708.689 391.625 707.182 395.644 706.41 397.537L706.719 397.711C710.383 393.607 713.674 389.185 716.553 384.496C718.156 381.946 719.567 379.415 720.88 376.903C719.257 375.86 711.935 371.107 709.636 367.475C707.337 363.843 705.598 359.168 707.047 355.149C707.359 354.203 707.865 353.333 708.533 352.594C709.2 351.855 710.014 351.262 710.923 350.855C711.832 350.448 712.816 350.235 713.811 350.229C714.807 350.223 715.794 350.425 716.707 350.821C722.175 353.449 723.875 364.249 723.121 369.6C723.121 369.89 722.349 372.808 721.788 374.933C722.349 373.793 722.967 372.634 723.488 371.532C725.42 367.398 727.063 363.495 728.415 359.94C729.188 358.008 729.825 356.076 730.347 354.473C729.284 352.541 725.15 345.103 724.744 340.949C724.339 336.795 724.995 331.695 728.145 328.797C728.863 328.092 729.721 327.547 730.664 327.196C731.608 326.845 732.614 326.697 733.618 326.76C734.622 326.824 735.602 327.099 736.493 327.566C737.384 328.033 738.166 328.683 738.79 329.473C742.422 334.322 738.964 344.678 735.834 349.102C735.563 349.469 730.637 354.898 730.579 354.898V354.782C730.038 356.424 729.458 358.182 728.763 360.076C727.488 363.573 725.981 367.533 724.087 371.668C722.07 376.2 719.793 380.612 717.267 384.883C714.454 389.668 711.221 394.193 707.607 398.407L707.472 398.561C708.979 397.614 713.268 395.161 713.635 395.006C718.62 392.881 729.478 391.664 733.458 396.243C734.095 397.02 734.563 397.922 734.83 398.891C735.097 399.86 735.158 400.875 735.009 401.869C734.859 402.863 734.503 403.815 733.963 404.663C733.423 405.511 732.711 406.236 731.873 406.792C728.376 409.264 723.121 408.723 719.277 407.545C714.93 406.173 707.685 399.546 707.008 399.025C703.241 403.228 699.194 407.172 694.895 410.829C692.383 412.993 689.814 415.08 687.167 417.128C688.5 416.374 689.698 415.698 689.872 415.621C694.837 413.496 705.695 412.278 709.675 416.857C710.315 417.633 710.785 418.535 711.054 419.505C711.323 420.475 711.385 421.49 711.235 422.485C711.086 423.48 710.729 424.432 710.187 425.28C709.645 426.128 708.931 426.852 708.09 427.406C704.613 429.879 699.358 429.338 695.513 428.159C691.668 426.981 685.235 421.417 683.573 419.929L680.54 422.267C675.671 425.996 670.88 429.686 666.147 433.453C664.504 434.786 662.94 436.158 661.355 437.51C662.553 436.834 663.538 436.274 663.712 436.216C668.678 434.071 679.535 432.873 683.515 437.433C684.159 438.208 684.631 439.11 684.902 440.08C685.173 441.05 685.235 442.066 685.086 443.062C684.936 444.058 684.578 445.011 684.034 445.859C683.49 446.707 682.774 447.43 681.931 447.982C678.434 450.455 673.198 449.914 669.354 448.755C665.509 447.595 659.694 442.534 657.762 440.775C656.197 442.224 654.613 443.654 653.164 445.142C652.178 446.166 651.232 447.074 650.266 448.175C649.3 449.276 648.334 450.261 647.484 451.305C645.803 453.353 644.045 455.478 642.441 457.526C641.32 458.936 640.277 460.308 639.234 461.68C640.837 460.346 644.083 457.816 644.373 457.603C648.952 454.744 659.501 451.904 664.137 455.806C664.886 456.48 665.485 457.304 665.895 458.224C666.305 459.145 666.516 460.141 666.516 461.148C666.516 462.156 666.305 463.152 665.895 464.072C665.485 464.992 664.886 465.816 664.137 466.49C661.066 469.446 655.81 469.775 651.831 469.156C647.426 468.461 639.466 463.36 638.48 462.626C636.742 464.906 635.08 467.147 633.535 469.292C628.183 476.691 624.01 483.048 621.15 487.549L620.861 487.993L617.151 486.197C617.344 485.907 617.538 485.636 617.731 485.327C620.725 480.845 625.092 474.508 630.656 467.147C632.414 464.829 634.327 462.375 636.317 459.864C634.246 457.61 632.31 455.236 630.521 452.754C626.251 454.415 617.383 454.493 616.243 454.493C616.069 457.352 615.915 460.134 615.799 462.762C615.412 471.9 615.451 479.512 615.548 484.825V485.463L611.471 483.531C611.471 478.256 611.684 471.088 612.225 462.646C612.398 459.728 612.65 456.618 612.939 453.449C611.8 453.159 602.584 450.783 599.106 448.001C595.957 445.489 592.634 441.394 592.75 437.124C592.739 436.117 592.941 435.119 593.343 434.195C593.745 433.272 594.337 432.444 595.082 431.765C595.826 431.086 596.705 430.573 597.662 430.258C598.618 429.943 599.631 429.833 600.633 429.937C606.641 430.71 611.664 440.408 612.669 445.721C612.669 446.03 612.978 449.585 613.094 451.711C613.229 450.397 613.326 449.141 613.461 447.847C613.732 445.2 614.079 442.553 614.446 439.713C614.659 438.36 614.891 436.989 615.103 435.598C615.316 434.207 615.683 432.777 615.973 431.347C616.707 428.063 617.596 424.759 618.581 421.455C616.262 421.204 608.051 420.238 604.516 418.229C600.98 416.22 597.116 412.665 596.595 408.434C596.43 407.439 596.478 406.421 596.734 405.446C596.991 404.471 597.451 403.561 598.084 402.777C598.717 401.992 599.509 401.35 600.408 400.894C601.307 400.437 602.292 400.175 603.299 400.126C609.346 399.972 615.799 408.801 617.576 413.901C617.692 414.23 618.562 418.036 618.987 420.142C619.605 418.21 620.184 416.162 620.919 414.191C622.851 408.395 625.034 402.715 627.159 396.977C627.816 395.219 628.434 393.461 629.091 391.722C628.26 391.722 618.465 390.698 614.524 388.437C611.027 386.505 607.124 382.873 606.583 378.642C606.425 377.648 606.477 376.632 606.736 375.66C606.995 374.688 607.456 373.781 608.088 372.997C608.719 372.214 609.509 371.573 610.405 371.114C611.3 370.655 612.282 370.39 613.287 370.335C619.354 370.18 625.807 379.009 627.584 384.11C627.719 384.496 628.956 389.906 629.207 391.393C630.598 387.529 631.97 383.665 633.071 379.801C634.705 374.585 635.996 369.267 636.935 363.882C636.548 363.882 626.309 362.916 622.29 360.597C618.774 358.665 614.871 355.033 614.35 350.802C614.191 349.808 614.243 348.792 614.503 347.82C614.762 346.848 615.222 345.94 615.854 345.157C616.486 344.374 617.276 343.732 618.171 343.274C619.067 342.815 620.049 342.55 621.054 342.495C627.101 342.359 633.554 351.169 635.331 356.27C635.447 356.617 636.394 360.791 636.8 362.781H637.147C637.945 357.339 638.255 351.836 638.075 346.339C638.075 343.306 637.785 340.427 637.495 337.607C635.563 337.607 626.792 337.607 622.928 335.945C619.064 334.284 614.949 331.231 613.944 327.077C613.676 326.104 613.617 325.085 613.769 324.088C613.922 323.09 614.284 322.136 614.831 321.288C615.379 320.44 616.099 319.717 616.945 319.167C617.79 318.616 618.743 318.25 619.74 318.093C625.749 317.282 633.129 325.338 635.467 330.226C635.582 330.497 636.587 333.337 637.263 335.404C637.128 334.148 636.993 332.835 636.819 331.637C636.22 327.096 635.37 322.962 634.597 319.33C634.133 317.263 633.689 315.466 633.245 313.669C631.313 312.703 623.739 308.723 621.131 305.497C618.523 302.27 616.243 297.653 617.267 293.499C617.488 292.509 617.916 291.577 618.524 290.765C619.131 289.952 619.905 289.278 620.792 288.787C621.68 288.296 622.661 287.999 623.672 287.915C624.683 287.831 625.7 287.963 626.657 288.302Z" fill="white"/>
<path d="M736.162 381.675C731.429 381.482 721.962 376.633 721.962 376.614C721.962 376.594 727.043 371.359 727.41 371.069C731.641 367.688 741.804 363.669 746.846 367.012C747.668 367.593 748.359 368.34 748.874 369.206C749.389 370.071 749.716 371.035 749.835 372.035C749.953 373.035 749.86 374.049 749.562 375.011C749.263 375.973 748.766 376.861 748.102 377.618C745.397 380.864 740.2 381.83 736.162 381.675Z" fill="white"/>
</g>
<path d="M680.888 500.223C680.888 500.223 652.159 430.961 636.085 433.975C620.011 436.989 663.616 544.369 663.616 544.369C663.616 544.369 613.075 449.025 578.608 449.025C544.141 449.025 591.243 554.416 634.887 589.539C634.887 589.539 565.973 515.273 525.768 531.328C485.563 547.383 606.178 622.654 606.178 622.654C606.178 622.654 536.104 600.571 544.141 617.631C552.178 634.69 574.01 637.704 574.01 637.704L494.798 641.723H770.494L708.458 635.695C708.458 635.695 772.793 603.585 755.56 590.544C738.326 577.503 700.421 605.594 700.421 605.594C700.421 605.594 765.896 533.338 753.261 506.232C740.625 479.126 684.327 555.42 684.327 555.42C684.327 555.42 730.289 458.067 721.035 441.007C711.781 423.948 680.888 500.223 680.888 500.223Z" fill="#FFC300"/>
<path opacity="0.4" d="M680.888 500.223C680.888 500.223 652.159 430.961 636.085 433.975C620.011 436.989 663.616 544.369 663.616 544.369C663.616 544.369 613.075 449.025 578.608 449.025C544.141 449.025 591.243 554.416 634.887 589.539C634.887 589.539 565.973 515.273 525.768 531.328C485.563 547.383 606.178 622.654 606.178 622.654C606.178 622.654 536.104 600.571 544.141 617.631C552.178 634.69 574.01 637.704 574.01 637.704L494.798 641.723H770.494L708.458 635.695C708.458 635.695 772.793 603.585 755.56 590.544C738.326 577.503 700.421 605.594 700.421 605.594C700.421 605.594 765.896 533.338 753.261 506.232C740.625 479.126 684.327 555.42 684.327 555.42C684.327 555.42 730.289 458.067 721.035 441.007C711.781 423.948 680.888 500.223 680.888 500.223Z" fill="white"/>
<path d="M690.085 503.855C664.795 578.527 664.795 631.367 664.795 631.367C664.795 631.367 694.664 632.507 725.692 609.535" stroke="#263238" stroke-linecap="round" stroke-linejoin="round"/>
<path d="M677.45 544.079C672.234 521.752 665.316 499.856 656.758 478.585" stroke="#263238" stroke-linecap="round" stroke-linejoin="round"/>
<path d="M602.777 500.416L667.094 595.76C667.094 595.76 710.757 559.052 725.691 538.322" stroke="#263238" stroke-linecap="round" stroke-linejoin="round"/>
<path d="M665.954 618.751C665.954 618.751 598.179 586.583 570.609 568.268" stroke="#263238" stroke-linecap="round" stroke-linejoin="round"/>
<path d="M605.115 104.588H398.7C390.249 104.588 383.398 111.439 383.398 119.889V626.421C383.398 634.872 390.249 641.722 398.7 641.722H605.115C613.566 641.722 620.416 634.872 620.416 626.421V119.889C620.416 111.439 613.566 104.588 605.115 104.588Z" fill="white" stroke="#263238" stroke-linecap="round" stroke-linejoin="round"/>
<path d="M612.495 198.618C611.66 198.618 610.859 198.287 610.268 197.696C609.677 197.105 609.346 196.304 609.346 195.469V153.255C609.408 152.46 609.768 151.718 610.353 151.176C610.939 150.635 611.707 150.334 612.505 150.334C613.302 150.334 614.07 150.635 614.656 151.176C615.241 151.718 615.601 152.46 615.663 153.255V195.392C615.671 195.813 615.595 196.231 615.439 196.622C615.283 197.013 615.051 197.37 614.756 197.67C614.461 197.97 614.109 198.209 613.721 198.372C613.333 198.535 612.916 198.618 612.495 198.618Z" fill="#263238"/>
<path d="M612.495 237.722C611.66 237.722 610.859 237.39 610.268 236.8C609.677 236.209 609.346 235.408 609.346 234.573V210.983C609.408 210.188 609.768 209.446 610.353 208.904C610.939 208.363 611.707 208.062 612.505 208.062C613.302 208.062 614.07 208.363 614.656 208.904C615.241 209.446 615.601 210.188 615.663 210.983V234.573C615.658 235.41 615.322 236.211 614.729 236.801C614.135 237.391 613.332 237.722 612.495 237.722Z" fill="#263238"/>
<path d="M587.244 104.588H380.829C372.378 104.588 365.527 111.439 365.527 119.889V626.421C365.527 634.872 372.378 641.722 380.829 641.722H587.244C595.694 641.722 602.545 634.872 602.545 626.421V119.889C602.545 111.439 595.694 104.588 587.244 104.588Z" fill="#263238" stroke="#263238" stroke-linecap="round" stroke-linejoin="round"/>
<path d="M586.76 140.349H381.312V601.054H586.76V140.349Z" fill="#FBE15C"/>
<path d="M453.53 125.627H508.225" stroke="white" stroke-width="3" stroke-linecap="round" stroke-linejoin="round"/>
<path d="M476.675 617.36C476.675 621.127 474.318 624.18 471.401 624.18C468.483 624.18 466.146 621.127 466.146 617.36C466.146 613.593 468.503 610.521 471.401 610.521C474.299 610.521 476.675 613.573 476.675 617.36Z" fill="white"/>
<path d="M484.036 254.994C503.712 254.994 519.662 236.397 519.662 213.456C519.662 190.515 503.712 171.918 484.036 171.918C464.361 171.918 448.41 190.515 448.41 213.456C448.41 236.397 464.361 254.994 484.036 254.994Z" fill="white"/>
<path d="M484.036 212.934C491.505 212.934 497.56 205.868 497.56 197.15C497.56 188.433 491.505 181.366 484.036 181.366C476.567 181.366 470.512 188.433 470.512 197.15C470.512 205.868 476.567 212.934 484.036 212.934Z" fill="#263238" stroke="#263238" stroke-linecap="round" stroke-linejoin="round"/>
<path d="M484.036 217.127C470.512 217.127 459.441 227.502 459.441 240.311C459.452 241.503 459.562 242.692 459.77 243.866C462.77 247.367 466.492 250.178 470.68 252.105C474.869 254.031 479.425 255.029 484.036 255.029C488.646 255.029 493.202 254.031 497.391 252.105C501.58 250.178 505.302 247.367 508.302 243.866C508.493 242.69 508.597 241.502 508.611 240.311C508.611 227.502 497.598 217.127 484.036 217.127Z" fill="#263238" stroke="#263238" stroke-linecap="round" stroke-linejoin="round"/>
<path d="M527.351 394.388H440.72C438.428 394.297 436.265 393.3 434.707 391.616C433.149 389.931 432.324 387.697 432.413 385.404V331.926C432.413 301.111 455.597 276.034 484.036 276.034C512.475 276.034 535.64 301.15 535.64 331.926V385.365C535.689 386.502 535.513 387.638 535.123 388.707C534.733 389.776 534.136 390.757 533.366 391.595C532.597 392.433 531.669 393.111 530.637 393.591C529.605 394.07 528.488 394.341 527.351 394.388ZM449.009 376.42H519.044V331.984C519.044 311.08 503.336 294.059 484.036 294.059C464.735 294.059 449.009 311.08 449.009 331.984V376.42Z" fill="#263238"/>
<path d="M544.179 357.892H423.893V471.687H544.179V357.892Z" fill="white"/>
<path d="M501.559 436.235L492.634 414.77C494.607 413.278 496.204 411.344 497.294 409.122C498.385 406.901 498.939 404.455 498.913 401.981C498.913 393.422 492.518 386.525 484.616 386.525C476.714 386.525 470.338 393.441 470.338 401.981C470.308 404.454 470.859 406.899 471.946 409.121C473.033 411.342 474.627 413.277 476.598 414.77L467.691 436.235H501.559Z" fill="#263238" stroke="#263238" stroke-linecap="round" stroke-linejoin="round"/>
<path d="M447.386 573.948C447.572 574.084 447.795 574.158 448.024 574.16C448.188 574.16 448.35 574.119 448.495 574.042C448.64 573.964 448.763 573.852 448.855 573.716L586.761 386.138V382.583L447.232 572.48C447.146 572.586 447.081 572.709 447.042 572.84C447.003 572.972 446.99 573.11 447.005 573.246C447.019 573.382 447.06 573.514 447.126 573.635C447.191 573.755 447.28 573.862 447.386 573.948Z" fill="white"/>
<path d="M559.017 207.931C558.934 208.042 558.875 208.168 558.842 208.303C558.81 208.437 558.804 208.577 558.825 208.713C558.847 208.85 558.895 208.981 558.968 209.099C559.041 209.216 559.136 209.318 559.249 209.399C559.475 209.56 559.756 209.626 560.03 209.582C560.304 209.539 560.551 209.39 560.717 209.167L586.76 173.753V170.276L559.017 207.931Z" fill="white"/>
<path d="M381.312 453.237L551.559 221.725C551.723 221.5 551.791 221.218 551.748 220.943C551.704 220.667 551.553 220.421 551.328 220.257C551.102 220.093 550.821 220.025 550.545 220.069C550.27 220.112 550.023 220.263 549.859 220.489L381.389 449.682L381.312 453.237Z" fill="white"/>
<path d="M431.389 596.784C431.554 596.781 431.715 596.742 431.862 596.668C432.01 596.595 432.138 596.489 432.239 596.359L441.899 583.299C441.981 583.188 442.041 583.061 442.074 582.927C442.106 582.792 442.112 582.653 442.091 582.516C442.069 582.379 442.021 582.249 441.948 582.131C441.875 582.013 441.78 581.911 441.667 581.83C441.441 581.669 441.16 581.604 440.886 581.647C440.612 581.69 440.365 581.839 440.199 582.062L430.539 595.103C430.456 595.213 430.395 595.339 430.361 595.473C430.327 595.606 430.319 595.745 430.339 595.882C430.359 596.018 430.405 596.15 430.476 596.268C430.547 596.387 430.641 596.49 430.752 596.572C430.933 596.715 431.158 596.79 431.389 596.784Z" fill="white"/>
<path d="M586.761 423.696L473.546 577.696C473.431 577.852 473.362 578.037 473.346 578.23C473.331 578.423 473.369 578.617 473.457 578.789C473.546 578.962 473.68 579.106 473.846 579.207C474.012 579.307 474.202 579.359 474.396 579.357C474.561 579.361 474.725 579.324 474.873 579.25C475.021 579.176 475.149 579.067 475.246 578.932L586.761 427.232V423.696Z" fill="white"/>
<path d="M189.136 207.255C191.052 203.01 191.977 198.385 191.841 193.731C191.841 185.094 181.389 180.091 169.101 178.719C156.814 177.347 151.365 182.351 153.181 185.539C155.069 188.168 157.372 190.472 160.001 192.359C160.001 192.359 147.714 185.539 139.522 191.006C131.331 196.474 143.174 194.194 140.894 199.642C138.614 205.091 125.882 202.83 122.694 217.378C119.507 231.926 128.606 246.493 120.415 252.869C112.223 259.245 87.5707 250.589 80.3837 266.509C73.1966 282.429 83.3976 289.5 66.1255 299.508C48.8534 309.515 36.2568 319.291 41.2607 343.847C46.2645 368.403 62.6479 377 94.9509 368.325C127.254 359.651 124.974 340.118 135.523 320.025C146.072 299.933 162.378 304.106 167.382 292.726C172.385 281.347 166.01 267.707 166.474 257.235C166.937 246.764 177.389 244.503 181.485 232.119C185.581 219.735 189.136 207.255 189.136 207.255Z" fill="#263238" stroke="#263238" stroke-linecap="round" stroke-linejoin="round"/>
<path d="M45.0281 343.383C44.1808 345.094 43.7505 346.981 43.7723 348.889" stroke="white" stroke-width="0.5" stroke-linecap="round" stroke-linejoin="round"/>
<path d="M171.671 198.232C171.671 198.232 165.991 191.663 176.926 194.716C190.701 198.58 174.53 214.519 168.309 217.726C155.828 224.121 139.329 222.073 129.669 233.704C120.898 244.214 132.741 255.168 127.486 263.495C122.231 271.822 101.191 266.992 94.1976 277.019C87.2038 287.046 106.891 308.569 86.7401 320.392C72.1729 328.951 56.2145 332.236 48.5059 339.017" stroke="white" stroke-width="0.5" stroke-linecap="round" stroke-linejoin="round"/>
<path d="M139.001 237.104C137.807 239.898 137.445 242.977 137.958 245.972C139.697 253.41 149.782 267.436 140.585 275.319C131.389 283.201 115.604 282.757 112.996 291.992C110.388 301.227 115.624 326.594 106.872 338.36C98.1199 350.126 81.0217 349.314 71.8254 357.197C62.629 365.08 63.9428 369.465 63.9428 369.465" stroke="white" stroke-width="0.5" stroke-linecap="round" stroke-linejoin="round"/>
<path d="M143.637 228.448C142.841 229.574 142.106 230.741 141.435 231.945" stroke="white" stroke-width="0.5" stroke-linecap="round" stroke-linejoin="round"/>
<path d="M195.029 342.688L197.25 360.076C197.25 360.076 208.843 371.668 217.363 378.835C225.883 386.003 247.714 401.169 247.714 401.169L236.644 404.318C236.644 404.318 200.458 382.873 193.309 381.134C186.161 379.396 180.809 369.079 178.587 365.949C176.366 362.819 189.213 339.558 195.029 342.688Z" fill="white" stroke="#263238" stroke-linecap="round" stroke-linejoin="round"/>
<path d="M217.131 625.59C217.131 625.59 228.066 634.825 232.587 637.917C237.108 641.008 242.382 642.399 241.551 644.08C240.72 645.76 238.46 647.441 227.815 646.012C217.169 644.582 214.098 640.969 212.127 640.409C210.156 639.849 205.404 641.259 201.771 639.018C198.139 636.777 203.897 623.427 203.897 623.427C205.492 625.292 207.696 626.532 210.118 626.928C212.54 627.324 215.024 626.85 217.131 625.59Z" fill="white" stroke="#263238" stroke-linecap="round" stroke-linejoin="round"/>
<path d="M241.513 644.08C241.521 643.99 241.521 643.899 241.513 643.809C235.366 644.374 229.169 643.791 223.236 642.09C216.358 640.467 214.329 636.815 207.78 636.815C205.21 636.839 202.654 636.42 200.226 635.579C200.155 636.223 200.243 636.875 200.483 637.478C200.722 638.081 201.104 638.616 201.597 639.037C205.23 641.278 210.002 639.868 211.953 640.428C213.904 640.988 216.995 644.64 227.641 646.031C238.286 647.422 240.662 645.76 241.513 644.08Z" fill="white" stroke="#263238" stroke-linecap="round" stroke-linejoin="round"/>
<path d="M159.886 252.193C159.886 252.193 161.991 266.374 159.287 272.092C156.582 277.811 148.12 278.429 140.894 279.646C133.668 280.864 117.072 287.181 118.869 303.468C120.666 319.755 141.493 355.033 141.493 364.983C141.493 374.933 135.156 380.053 128.22 399.353C121.284 418.654 122.192 454.55 124.356 477.773C125.942 493.1 128.969 508.243 133.398 523.001C133.398 523.001 116.01 551.054 108.282 563.109C100.554 575.165 73.5059 627.658 73.5059 627.658C73.5059 627.658 73.5059 629.454 77.7176 630.671C80.6808 631.392 83.7464 631.595 86.7787 631.27C86.7787 631.27 138.634 568.848 148.294 558.299C157.954 547.75 166.995 529.319 168.193 520.895C169.391 512.472 167.903 460.887 167.903 460.887C167.903 460.887 178.742 486.815 187.223 500.088C192.368 508.21 197.088 516.593 201.366 525.204C200.178 536.119 200.178 547.132 201.366 558.048C203.472 573.117 201.694 621.533 203.8 625.455C205.906 629.377 214.078 627.735 215.894 625.938C217.71 624.141 218.56 612.414 218.56 612.414C218.56 612.414 222.173 575.706 224.356 558.434C226.54 541.162 230.152 526.459 228.897 522.537C227.641 518.616 220.145 476.691 214.407 456.849C208.669 437.008 191.223 399.855 187.359 390.215C183.495 380.574 181.311 371.803 181.93 368.789C182.548 365.775 194.294 347.692 197.386 342.862C199.148 339.587 200.12 335.946 200.224 332.229C200.328 328.512 199.561 324.823 197.985 321.455C194.372 313.611 197.985 303.043 197.386 296.725C196.787 290.408 187.436 287.664 182.606 285.269C177.776 282.873 175.96 277.425 175.96 272.904C176.255 269.096 177.175 265.362 178.684 261.853C178.684 261.853 163.808 252.193 159.886 252.193Z" fill="white" stroke="#263238" stroke-linecap="round" stroke-linejoin="round"/>
<path d="M196.439 316.702C194.85 312.665 193.527 308.528 192.479 304.318" stroke="#263238" stroke-linecap="round" stroke-linejoin="round"/>
<path d="M157.277 350.28C157.277 350.28 162.726 351.478 173.641 346.03" stroke="#263238" stroke-linecap="round" stroke-linejoin="round"/>
<path d="M214.465 456.656C208.997 437.646 192.788 402.927 187.938 391.471C164.754 400.165 143.077 392.746 132.896 387.954C131.427 391.162 129.843 394.871 128.22 399.353C121.284 418.673 122.192 454.551 124.356 477.773C125.942 493.1 128.969 508.243 133.398 523.001C133.398 523.001 116.01 551.054 108.282 563.11C100.554 575.165 73.5059 627.658 73.5059 627.658C73.5059 627.658 73.5059 629.454 77.7176 630.672C80.6808 631.393 83.7464 631.595 86.7787 631.271C86.7787 631.271 138.634 568.848 148.294 558.299C157.954 547.75 166.995 529.319 168.193 520.895C169.391 512.472 167.903 460.887 167.903 460.887C167.903 460.887 178.742 486.815 187.223 500.088C192.368 508.21 197.088 516.593 201.366 525.204C200.178 536.12 200.178 547.132 201.366 558.048C203.472 573.117 201.694 621.533 203.8 625.455C205.906 629.377 214.078 627.735 215.894 625.938C217.71 624.141 218.56 612.414 218.56 612.414C218.56 612.414 222.173 575.706 224.356 558.434C226.54 541.162 230.152 526.46 228.897 522.538C227.641 518.616 220.203 476.556 214.465 456.656Z" fill="#263238" stroke="#263238" stroke-linecap="round" stroke-linejoin="round"/>
<path d="M332.587 437.51V433.569H335.89V402.618H332.587H299.974H296.671V433.569H299.974V437.51H296.651V444.697H309.383V442.282H323.178V444.697H335.91V437.51H332.587Z" fill="#FFC300" stroke="#263238" stroke-linecap="round" stroke-linejoin="round"/>
<path d="M121.806 393.364H349.318C350.23 393.364 351.105 393.726 351.75 394.371C352.395 395.016 352.757 395.891 352.757 396.803V403.72C352.757 404.632 352.395 405.506 351.75 406.151C351.105 406.796 350.23 407.159 349.318 407.159H121.806V393.345V393.364Z" fill="#FFC300" stroke="#263238" stroke-linecap="round" stroke-linejoin="round"/>
<path d="M285.098 391.297H271.246C270.189 391.297 269.333 392.153 269.333 393.209V407.332C269.333 408.389 270.189 409.245 271.246 409.245H285.098C286.154 409.245 287.011 408.389 287.011 407.332V393.209C287.011 392.153 286.154 391.297 285.098 391.297Z" fill="#FFC300" stroke="#263238" stroke-linecap="round" stroke-linejoin="round"/>
<path d="M128.924 406.08C132.13 386.505 118.86 368.038 99.2845 364.832C79.7095 361.627 61.2421 374.897 58.0366 394.472C54.831 414.047 68.1012 432.515 87.6762 435.72C107.251 438.926 125.719 425.655 128.924 406.08Z" fill="#FFC300" stroke="#263238" stroke-linecap="round" stroke-linejoin="round"/>
<path d="M100.863 400.184C102.945 399.187 104.712 397.635 105.97 395.699C107.228 393.763 107.927 391.518 107.992 389.21C107.992 382.158 101.501 376.44 93.483 376.44C85.4652 376.44 78.9736 382.236 78.9736 389.21C79.0341 391.519 79.732 393.766 80.9902 395.703C82.2484 397.639 84.0178 399.19 86.1027 400.184C84.019 401.184 82.2513 402.74 80.9936 404.679C79.736 406.618 79.0371 408.867 78.9736 411.177C78.9736 418.229 85.4652 423.948 93.483 423.948C101.501 423.948 107.992 418.152 107.992 411.177C107.925 408.868 107.224 406.621 105.967 404.682C104.71 402.744 102.944 401.188 100.863 400.184Z" fill="white" stroke="#263238" stroke-linecap="round" stroke-linejoin="round"/>
<path d="M240.624 407.468C240.624 407.468 251.868 412.22 255.346 412.22C258.823 412.22 262.842 408.723 264.832 404.492C266.822 400.261 266.764 398.252 265.585 399.257L263.093 401.189C263.093 401.189 265.025 396.958 262.842 397.46C261.33 397.963 260.075 399.038 259.345 400.455C259.345 400.455 259.094 396.706 257.104 398.523C255.787 399.715 254.613 401.057 253.607 402.522C253.607 402.522 253.356 397.788 252.1 399.025C250.844 400.261 246.13 407.004 246.13 407.004L240.624 407.468Z" fill="white" stroke="#263238" stroke-linecap="round" stroke-linejoin="round"/>
<path d="M253.607 402.483C253.607 402.483 252.854 408.472 249.125 409.477Z" fill="white"/>
<path d="M253.607 402.483C253.607 402.483 252.854 408.472 249.125 409.477" stroke="#263238" stroke-linecap="round" stroke-linejoin="round"/>
<path d="M259.345 400.493C259.345 400.493 257.413 409.96 254.36 411.467Z" fill="white"/>
<path d="M259.345 400.493C259.345 400.493 257.413 409.96 254.36 411.467" stroke="#263238" stroke-linecap="round" stroke-linejoin="round"/>
<path d="M263.093 401.227C262.097 404.682 260.757 408.028 259.094 411.216Z" fill="white"/>
<path d="M263.093 401.227C262.097 404.682 260.757 408.028 259.094 411.216" stroke="#263238" stroke-linecap="round" stroke-linejoin="round"/>
<path d="M181.891 284.689C179.945 283.375 178.369 281.584 177.313 279.487C176.258 277.389 175.758 275.056 175.863 272.711C176.209 268.963 177.162 265.296 178.683 261.853C178.683 261.853 163.904 252.193 159.982 252.193C159.982 252.193 162.088 266.374 159.383 272.092C158.496 273.871 157.051 275.31 155.268 276.188C158.84 285.805 163.68 294.901 169.661 303.236C175.09 310.056 177.737 295.682 181.891 284.689Z" fill="white" stroke="#263238" stroke-linecap="round" stroke-linejoin="round"/>
<path d="M136.276 281.598C132.59 282.227 129.1 283.705 126.082 285.915C123.064 288.124 120.602 291.005 118.888 294.33C112.938 305.806 86.933 357.892 89.1548 361.003C101.79 378.777 147.752 391.567 152.428 396.243C157.102 401.132 162.232 405.563 167.749 409.477C172.424 412.452 181.756 411.177 183.456 410.327C185.156 409.477 186.431 405.651 183.456 405.651C182.319 405.667 181.212 405.291 180.318 404.588C179.425 403.885 178.8 402.896 178.548 401.787C178.123 400.087 183.224 403.488 185.774 402.213C188.324 400.937 180.075 396.281 177.524 394.156C174.974 392.031 172.849 389.075 169.449 389.075C166.048 389.075 159.653 389.075 159.653 389.075C159.653 389.075 144.004 377.734 134.537 369.291C127.171 362.644 119.136 356.779 110.561 351.787L139.252 304.589" fill="white"/>
<path d="M136.276 281.598C132.59 282.227 129.1 283.705 126.082 285.915C123.064 288.124 120.602 291.005 118.888 294.33C112.938 305.806 86.933 357.892 89.1548 361.003C101.79 378.777 147.752 391.567 152.428 396.243C157.102 401.132 162.232 405.563 167.749 409.477C172.424 412.452 181.756 411.177 183.456 410.327C185.156 409.477 186.431 405.651 183.456 405.651C182.319 405.667 181.212 405.291 180.318 404.588C179.425 403.885 178.8 402.896 178.548 401.787C178.123 400.087 183.224 403.488 185.774 402.213C188.324 400.937 180.075 396.281 177.524 394.156C174.974 392.031 172.849 389.075 169.449 389.075C166.048 389.075 159.653 389.075 159.653 389.075C159.653 389.075 144.004 377.734 134.537 369.291C127.171 362.644 119.136 356.779 110.561 351.787L139.252 304.589" stroke="#263238" stroke-linecap="round" stroke-linejoin="round"/>
<path d="M177.505 394.176C174.955 392.05 172.829 389.094 169.429 389.094C166.029 389.094 159.634 389.094 159.634 389.094C159.634 389.094 143.985 377.754 134.518 369.311C127.152 362.664 119.117 356.798 110.542 351.807L122.018 332.912C116.151 329.361 109.44 327.446 102.582 327.367C94.8539 343.48 87.9181 359.4 89.0579 361.08C101.693 378.855 147.655 391.645 152.331 396.32C157.005 401.209 162.135 405.641 167.652 409.554C172.327 412.53 181.659 411.254 183.359 410.404C185.059 409.554 186.334 405.729 183.359 405.729C182.222 405.744 181.115 405.368 180.222 404.665C179.328 403.962 178.704 402.973 178.452 401.865C178.027 400.165 183.127 403.565 185.677 402.29C188.227 401.015 180.055 396.32 177.505 394.176Z" fill="white" stroke="#263238" stroke-linecap="round" stroke-linejoin="round"/>
<path d="M193.058 231.385C191.551 228.371 191.551 225.956 192.15 221.725C192.749 217.494 189.136 207.235 189.136 207.235C185.446 213.611 174.781 217.398 170.067 218.827C164.87 220.411 172.463 224.005 171.651 228.816C170.84 233.626 160.465 236.408 160.465 236.408C160.465 236.408 157.432 230.168 153.22 230.168C149.008 230.168 146.013 239.828 148.409 244.948C149.033 246.366 150.121 247.53 151.493 248.25C152.866 248.97 154.442 249.202 155.963 248.908C155.963 248.908 155.673 257.97 161.392 260.674C167.494 263.586 173.86 265.908 180.403 267.61C184.016 268.209 187.629 266.412 189.136 260.983C190.314 255.512 191.121 249.968 191.551 244.388C194.081 242.732 196.408 240.787 198.487 238.592C199.936 236.505 194.565 234.399 193.058 231.385Z" fill="white" stroke="#263238" stroke-linecap="round" stroke-linejoin="round"/>
<path d="M187.185 231.52C187.185 233.182 186.644 234.515 185.987 234.515C185.33 234.515 184.789 233.182 184.789 231.52C184.789 229.859 185.33 228.526 185.987 228.526C186.644 228.526 187.185 229.859 187.185 231.52Z" fill="#263238"/>
<path d="M181.987 226.536C181.987 226.536 185.194 222.923 187.59 223.734" stroke="#263238" stroke-linecap="round" stroke-linejoin="round"/>
<path d="M187.591 251.304C186.143 251.741 184.606 251.792 183.132 251.453C181.658 251.115 180.298 250.397 179.187 249.372" stroke="#263238" stroke-linecap="round" stroke-linejoin="round"/>
<path d="M73.6406 627.658C73.6406 627.658 66.4342 642.109 66.7047 644.08C66.9752 646.05 81.272 656.406 87.9567 660.038C94.6414 663.67 106.736 664.25 105.886 659.207C105.036 654.165 93.5595 650.803 90.7581 643.23C89.2662 639.312 87.9765 635.32 86.8941 631.271C82.224 631.34 77.6294 630.088 73.6406 627.658Z" fill="white" stroke="#263238" stroke-linecap="round" stroke-linejoin="round"/>
<path d="M105.924 659.284C100.781 659.974 95.5464 659.232 90.7969 657.14C80.4221 652.638 70.3757 643.442 67.6129 640.834C67.1222 641.876 66.8088 642.992 66.6855 644.138C66.9753 646.07 81.2528 656.464 87.9375 660.096C94.6223 663.728 106.62 664.23 105.924 659.284Z" fill="white" stroke="#263238" stroke-linecap="round" stroke-linejoin="round"/>
</svg>
