<svg width="220" height="219" viewBox="0 0 220 219" fill="none" xmlns="http://www.w3.org/2000/svg">
<g clip-path="url(#clip0_455_29993)">
<rect x="0.828613" y="0.012207" width="218.911" height="218.911" rx="109.456" fill="white"/>
<rect x="0.828613" y="0.012207" width="218.911" height="218.911" rx="109.456" fill="#FFB800" fill-opacity="0.6"/>
<path d="M133.346 215.042C159.147 268.103 213.638 323.762 244.693 323.762C273.879 323.762 347.254 266.264 381.577 232.466C389.399 224.761 318.038 163.849 310.362 172.78C292.442 193.648 250.53 238.946 237.104 238.946C225.138 238.946 187.487 211.802 154.535 184.892C114.608 152.233 123.072 193.999 133.346 215.042Z" fill="#F7A9A0"/>
<path d="M147.968 179.084C169.537 193.502 222.219 239.442 236.608 235.764C250.997 232.087 297.199 182.908 297.199 182.908L369.99 251.759C369.99 251.759 287.48 330.212 241.862 327.323C196.243 324.433 148.932 254.356 133.871 224.177C118.811 193.999 112.04 155.122 147.968 179.084Z" fill="#FFC727"/>
<path d="M239.994 274.378C239.022 271.69 239.022 268.747 239.994 266.06C240.966 268.747 240.966 271.69 239.994 274.378ZM308.874 223.448C308.902 222.032 308.654 220.624 308.144 219.303C307.634 220.624 307.387 222.032 307.414 223.448C307.401 224.862 307.648 226.267 308.144 227.592C308.64 226.267 308.888 224.862 308.874 223.448ZM317.63 288.358C317.644 286.944 317.396 285.539 316.9 284.214C315.928 286.891 315.928 289.825 316.9 292.503C317.396 291.178 317.644 289.773 317.63 288.358ZM166.794 257.917C166.839 256.5 166.591 255.089 166.064 253.772C165.092 256.45 165.092 259.384 166.064 262.061C166.574 260.74 166.822 259.333 166.794 257.917ZM295.944 278.844C295.972 277.428 295.724 276.02 295.215 274.699C294.242 277.377 294.242 280.311 295.215 282.988C295.724 281.667 295.972 280.259 295.944 278.844ZM214.222 231.678C215.636 231.688 217.04 231.441 218.366 230.948C217.049 230.427 215.639 230.178 214.222 230.219C212.806 230.188 211.398 230.436 210.077 230.948C211.42 231.454 212.846 231.702 214.28 231.678H214.222ZM219.475 291.948C220.89 291.962 222.295 291.715 223.62 291.219C220.943 290.246 218.008 290.246 215.331 291.219C216.673 291.725 218.099 291.972 219.534 291.948H219.475ZM271.661 262.762C273.077 262.787 274.484 262.54 275.806 262.032C274.484 261.525 273.077 261.277 271.661 261.302C270.237 261.289 268.822 261.536 267.487 262.032C268.839 262.545 270.274 262.802 271.719 262.791L271.661 262.762ZM334.441 268.92C335.857 268.948 337.265 268.7 338.586 268.19C335.908 267.218 332.974 267.218 330.297 268.19C331.633 268.721 333.062 268.979 334.5 268.949L334.441 268.92ZM299.417 198.872C300.832 198.889 302.238 198.641 303.562 198.143C302.245 197.616 300.834 197.368 299.417 197.413C298.002 197.387 296.595 197.635 295.273 198.143C296.575 198.658 297.959 198.935 299.359 198.96L299.417 198.872ZM164.459 210.722C163.462 209.705 162.284 208.883 160.986 208.3C161.563 209.594 162.385 210.763 163.408 211.744C164.386 212.769 165.556 213.593 166.852 214.166C166.251 212.904 165.42 211.766 164.4 210.81L164.459 210.722ZM194.521 275.312C193.535 274.295 192.367 273.473 191.077 272.89C192.289 275.452 194.352 277.514 196.914 278.727C196.309 277.476 195.478 276.348 194.463 275.4L194.521 275.312ZM266.232 289.905C265.241 288.882 264.062 288.059 262.759 287.483C263.942 290.065 266.014 292.137 268.596 293.32C267.995 292.066 267.175 290.929 266.174 289.964L266.232 289.905ZM305.634 252.371C304.656 251.346 303.486 250.523 302.19 249.949C303.402 252.511 305.465 254.574 308.027 255.786C307.449 254.509 306.637 253.351 305.634 252.371ZM252.106 238.099C251.119 237.092 249.95 236.28 248.662 235.706C249.874 238.268 251.937 240.331 254.499 241.543C253.912 240.288 253.101 239.151 252.106 238.187V238.099ZM241.745 310.511C240.728 311.497 239.906 312.665 239.322 313.955C240.616 313.378 241.786 312.555 242.766 311.533C243.792 310.555 244.615 309.384 245.189 308.088C243.899 308.672 242.73 309.494 241.745 310.511ZM286.196 305.111C285.182 306.093 284.369 307.263 283.803 308.555C286.365 307.343 288.428 305.28 289.64 302.718C288.333 303.29 287.145 304.102 286.137 305.111H286.196ZM210.895 255.494C209.869 256.472 209.046 257.643 208.472 258.938C209.768 258.365 210.938 257.542 211.916 256.516C212.939 255.535 213.762 254.366 214.339 253.072C213.04 253.581 211.852 254.334 210.836 255.29L210.895 255.494ZM338.06 236.727C337.043 237.706 336.23 238.877 335.667 240.171C336.957 239.588 338.125 238.766 339.111 237.749C340.121 236.757 340.941 235.59 341.534 234.305C340.235 234.889 339.057 235.71 338.06 236.727ZM184.247 236.727C183.231 237.713 182.409 238.881 181.825 240.171C184.387 238.959 186.45 236.896 187.662 234.334C186.406 234.919 185.268 235.73 184.306 236.727H184.247ZM276.915 225.87C275.898 226.856 275.076 228.024 274.492 229.314C275.795 228.738 276.974 227.915 277.965 226.892C278.975 225.9 279.796 224.733 280.388 223.448C279.11 224.038 277.952 224.859 276.973 225.87H276.915ZM145.05 192.656C145.064 191.241 144.816 189.836 144.32 188.511C143.796 189.828 143.548 191.239 143.59 192.656C143.56 194.072 143.807 195.48 144.32 196.8C144.839 195.48 145.106 194.074 145.108 192.656H145.05ZM146.48 237.253C147.904 237.266 149.319 237.019 150.654 236.523C149.326 235.999 147.906 235.751 146.48 235.793C145.064 235.768 143.657 236.016 142.335 236.523C143.68 237.022 145.104 237.27 146.538 237.253H146.48Z" fill="white"/>
<path d="M235.908 326.535C192.128 318.333 148.348 253.043 133.755 224.207C124.065 204.914 117.936 182.09 124.152 174.356C141.869 198.406 203.802 282.872 235.908 326.535Z" fill="#263238"/>
<path d="M197.148 410.533C194.229 413.831 -2.66314 414.123 -3.65548 412.926C-6.36983 409.657 40.2703 208.329 83.9041 173.305C93.273 165.775 129.231 166.913 134.134 168.839C139.738 170.97 155.557 197.734 162.766 219.536C177.126 263.17 199.716 407.644 197.148 410.533Z" fill="#FFC727"/>
<path d="M120.913 288.359C120.417 287.034 120.169 285.629 120.183 284.214C120.152 282.798 120.4 281.39 120.913 280.07C121.425 281.39 121.673 282.798 121.642 284.214C121.656 285.629 121.409 287.034 120.913 288.359ZM145.838 331.555C145.851 330.131 145.604 328.716 145.108 327.381C144.584 328.708 144.336 330.128 144.379 331.555C144.353 332.97 144.601 334.377 145.108 335.699C145.6 334.373 145.848 332.969 145.838 331.555ZM145.108 192.656C145.122 191.241 144.875 189.836 144.379 188.511C143.854 189.828 143.606 191.239 143.649 192.656C143.618 194.072 143.866 195.48 144.379 196.8C144.877 195.476 145.125 194.071 145.108 192.656ZM84.9256 333.131C84.9421 331.716 84.6946 330.31 84.1959 328.986C83.6693 330.303 83.4209 331.714 83.4663 333.131C83.4384 334.546 83.6862 335.954 84.1959 337.275C84.692 335.95 84.9394 334.545 84.9256 333.131ZM187.75 352.773C187.778 351.348 187.53 349.931 187.02 348.6C186.51 349.931 186.262 351.348 186.29 352.773C186.281 354.188 186.528 355.592 187.02 356.918C187.528 355.596 187.775 354.189 187.75 352.773ZM116.739 381.143C116.767 379.727 116.519 378.319 116.009 376.998C115.5 378.319 115.252 379.727 115.28 381.143C115.263 382.557 115.511 383.963 116.009 385.287C116.522 383.967 116.77 382.559 116.739 381.143ZM58.9495 400.668C58.9633 399.254 58.716 397.849 58.2199 396.524C57.2475 399.201 57.2475 402.135 58.2199 404.813C58.716 403.488 58.9633 402.083 58.9495 400.668ZM106.349 230.131C106.374 228.716 106.126 227.309 105.619 225.987C104.647 228.674 104.647 231.618 105.619 234.305C106.129 232.974 106.376 231.557 106.349 230.131ZM68.9606 206.549C68.977 205.134 68.7296 203.728 68.2309 202.404C67.2586 205.082 67.2586 208.016 68.2309 210.693C68.727 209.368 68.9743 207.963 68.9606 206.549ZM68.2309 277.034C68.2407 275.62 67.9935 274.216 67.5012 272.89C66.5293 275.577 66.5293 278.52 67.5012 281.208C67.997 279.873 68.2443 278.458 68.2309 277.034ZM28.8874 352.919C28.9328 351.502 28.6844 350.091 28.1578 348.775C27.6591 350.099 27.4116 351.504 27.4281 352.919C27.4183 354.333 27.6655 355.738 28.1578 357.064C28.6842 355.696 28.9323 354.238 28.8874 352.773V352.919ZM166.794 258.063C166.839 256.646 166.591 255.235 166.064 253.918C165.092 256.596 165.092 259.53 166.064 262.207C166.593 260.841 166.841 259.382 166.794 257.917V258.063ZM95.0241 270.817C96.4384 270.827 97.8427 270.58 99.1686 270.088C96.481 269.116 93.538 269.116 90.8505 270.088C92.1948 270.534 93.609 270.732 95.0241 270.672V270.817ZM90.8505 363.222C92.2745 363.235 93.689 362.988 95.0241 362.492C92.3366 361.52 89.3935 361.52 86.706 362.492C88.041 362.935 89.4451 363.133 90.8505 363.076V363.222ZM113.324 409.979C114.74 410.01 116.148 409.762 117.469 409.249C116.144 408.75 114.739 408.503 113.324 408.52C111.91 408.51 110.505 408.757 109.18 409.249C110.501 409.757 111.909 410.005 113.324 409.979ZM164.955 286.724C166.37 286.738 167.775 286.491 169.1 285.994C166.422 285.022 163.488 285.022 160.811 285.994C162.103 286.502 163.478 286.77 164.868 286.782L164.955 286.724ZM62.8022 236.202C64.2179 236.23 65.6256 235.982 66.9467 235.473C65.6256 234.963 64.2179 234.715 62.8022 234.743C61.3876 234.729 59.9826 234.976 58.6577 235.473C59.9293 235.984 61.2857 236.251 62.6563 236.261L62.8022 236.202ZM114.112 198.26C115.527 198.274 116.932 198.026 118.257 197.53C116.94 197.006 115.529 196.758 114.112 196.8C112.696 196.769 111.288 197.017 109.968 197.53C111.248 198.001 112.602 198.238 113.966 198.231L114.112 198.26ZM62.3644 307.826C63.779 307.84 65.184 307.592 66.5089 307.096C65.1919 306.572 63.7812 306.324 62.3644 306.367C60.9484 306.336 59.5402 306.584 58.2199 307.096C59.544 307.595 60.9495 307.842 62.3644 307.826ZM33.4113 381.113C34.8269 381.139 36.2341 380.891 37.5558 380.384C34.8683 379.412 31.9252 379.412 29.2377 380.384C30.5669 380.904 31.9842 381.161 33.4113 381.143V381.113ZM146.538 237.224C147.962 237.237 149.377 236.99 150.712 236.494C149.385 235.97 147.965 235.722 146.538 235.764C145.123 235.739 143.716 235.986 142.394 236.494C143.718 236.996 145.122 237.253 146.538 237.253V237.224ZM119.424 314.51C120.84 314.541 122.248 314.293 123.569 313.78C120.891 312.808 117.957 312.808 115.28 313.78C116.599 314.3 118.006 314.557 119.424 314.539V314.51ZM178.673 404.142C180.089 404.172 181.497 403.925 182.817 403.412C180.14 402.44 177.206 402.44 174.528 403.412C175.849 403.922 177.257 404.169 178.673 404.142ZM144.379 363.922C145.793 363.932 147.197 363.685 148.523 363.193C145.835 362.221 142.892 362.221 140.205 363.193C141.547 363.649 142.962 363.857 144.379 363.806V363.922ZM144.875 396.874C143.889 395.857 142.721 395.035 141.431 394.452C142.008 395.746 142.83 396.915 143.853 397.896C144.831 398.921 146.001 399.744 147.297 400.318C146.726 398.986 145.904 397.777 144.875 396.757V396.874ZM33.9659 323.353C32.9803 322.336 31.8119 321.515 30.5219 320.931C31.0989 322.225 31.9216 323.394 32.9444 324.375C33.9299 325.391 35.0983 326.213 36.3884 326.797C35.8 325.461 34.9574 324.251 33.9075 323.236L33.9659 323.353ZM94.382 299.362C93.3986 298.33 92.2174 297.506 90.9088 296.939C91.4927 298.229 92.3145 299.398 93.3313 300.383C94.3278 301.4 95.5058 302.222 96.8045 302.806C96.2074 301.474 95.3659 300.267 94.3237 299.245L94.382 299.362ZM61.1678 362.667C60.1822 361.651 59.0138 360.829 57.7237 360.245C58.9361 362.807 60.9989 364.87 63.561 366.082C62.9781 364.759 62.1457 363.56 61.1094 362.551L61.1678 362.667ZM7.87311 397.078C6.88054 396.064 5.70114 395.251 4.3999 394.685C4.98378 395.975 5.80563 397.144 6.82239 398.129C7.81886 399.146 8.99687 399.968 10.2956 400.552C9.69625 399.213 8.85527 397.996 7.81477 396.962L7.87311 397.078ZM52.3534 257.508C51.373 256.486 50.2033 255.663 48.9094 255.086C49.4931 256.385 50.3148 257.563 51.3319 258.559C52.319 259.566 53.4875 260.378 54.7759 260.952C54.1984 259.61 53.3544 258.398 52.295 257.392L52.3534 257.508ZM121.438 252.372C120.454 251.339 119.273 250.515 117.965 249.949C118.549 251.239 119.37 252.408 120.387 253.393C121.384 254.41 122.562 255.232 123.86 255.816C123.268 254.53 122.447 253.363 121.438 252.372ZM167.319 348.103C166.334 347.087 165.165 346.265 163.875 345.681C164.452 346.975 165.275 348.145 166.298 349.125C167.276 350.151 168.446 350.974 169.742 351.547C169.158 350.257 168.336 349.089 167.319 348.103ZM91.4342 213.845C90.4562 212.82 89.286 211.997 87.9902 211.423C89.2026 213.985 91.2654 216.048 93.8275 217.26C93.2413 215.947 92.4091 214.758 91.3758 213.758L91.4342 213.845ZM146.13 300.909C145.144 299.892 143.976 299.07 142.686 298.486C143.262 299.789 144.085 300.969 145.108 301.959C146.1 302.969 147.267 303.79 148.552 304.382C147.961 303.047 147.118 301.839 146.071 300.821L146.13 300.909ZM145.108 267.811C144.085 268.792 143.263 269.961 142.686 271.255C145.248 270.043 147.311 267.98 148.523 265.418C147.227 265.954 146.047 266.737 145.05 267.724L145.108 267.811ZM54.2797 336.837C53.2541 337.815 52.4309 338.986 51.8572 340.281C53.1456 339.707 54.314 338.895 55.3012 337.888C56.3183 336.892 57.14 335.714 57.7237 334.415C56.4199 334.966 55.2317 335.758 54.2213 336.75L54.2797 336.837ZM168.545 320.405C167.522 321.386 166.699 322.555 166.123 323.849C167.421 323.266 168.599 322.444 169.596 321.427C170.603 320.44 171.415 319.271 171.989 317.983C170.684 318.531 169.495 319.324 168.487 320.318L168.545 320.405ZM88.8074 392.467C87.7906 393.452 86.9688 394.621 86.3849 395.911C87.6862 395.345 88.8656 394.532 89.8581 393.518C90.8662 392.514 91.6865 391.337 92.2806 390.044C90.9818 390.628 89.8039 391.45 88.8074 392.467ZM83.6705 250.941C82.6478 251.922 81.825 253.091 81.2481 254.385C83.8102 253.173 85.873 251.11 87.0854 248.548C85.8196 249.083 84.6622 249.844 83.6705 250.795V250.941ZM114.754 348.249C113.747 349.237 112.935 350.405 112.361 351.693C113.657 351.12 114.827 350.296 115.805 349.271C116.828 348.29 117.65 347.121 118.227 345.827C116.94 346.367 115.763 347.139 114.754 348.103V348.249ZM167.29 379.566C166.264 380.544 165.441 381.715 164.868 383.01C167.43 381.798 169.492 379.735 170.705 377.173C169.439 377.708 168.282 378.469 167.29 379.421V379.566ZM40.5912 291.248C39.5745 292.234 38.7526 293.402 38.1687 294.692C39.4675 294.108 40.6455 293.287 41.642 292.27C42.6493 291.282 43.4613 290.114 44.0352 288.826C42.7568 289.366 41.5892 290.138 40.5912 291.102V291.248ZM128.414 219.77C127.397 220.756 126.575 221.924 125.991 223.214C128.553 222.002 130.616 219.939 131.828 217.377C130.563 217.911 129.405 218.673 128.414 219.624V219.77ZM84.9839 184.367C83.9668 185.357 83.1537 186.537 82.5907 187.84C83.8807 187.256 85.0491 186.434 86.0347 185.418C87.0442 184.426 87.8651 183.259 88.4571 181.974C87.1712 182.503 85.9939 183.265 84.9839 184.221V184.367Z" fill="white"/>
<path d="M136.381 224.557L139.241 211.948L127.625 199.281L118.636 215.188L124.94 226.045L119.453 354.875L143.59 397.487L156.14 349.534L136.381 224.557Z" fill="#263238"/>
<path d="M98.468 168.548L9.27393 352.773C25.7643 289.526 55.447 196.129 83.8163 173.305C88.25 170.572 93.2742 168.94 98.468 168.548Z" fill="#263238"/>
<path d="M82.0068 211.51C69.6026 233.75 -3.91835 316.582 -5.78629 324.783C-7.65423 332.984 8.51512 354.699 8.63187 357.968C9.04048 371.277 -5.75712 459.333 -18.249 451.803C-34.681 441.85 -105.283 367.775 -100.672 330.241C-96.0603 292.707 46.6035 192.218 69.2523 181.769C91.901 171.32 94.2652 189.445 82.0068 211.51Z" fill="#F7A9A0"/>
<path d="M-53.2727 429.534L5.10038 345.739C5.10038 345.739 -4.56036 329.395 -3.65558 324.083C-2.7508 318.771 71.7916 237.165 85.305 209.059C98.8183 180.952 101.971 163.732 70.2447 178.617C38.519 193.502 -94.2798 295.918 -101.956 322.944C-109.632 349.971 -78.0229 392.817 -53.2727 429.534Z" fill="#FFC727"/>
<path d="M33.4113 250.445C32.4394 247.758 32.4394 244.815 33.4113 242.127C34.3833 244.815 34.3833 247.758 33.4113 250.445ZM68.9606 206.665C68.977 205.251 68.7296 203.845 68.2309 202.521C67.2586 205.198 67.2586 208.133 68.2309 210.81C68.7413 209.448 68.9889 208.003 68.9606 206.549V206.665ZM-13.5498 277.151C-13.5241 275.735 -13.7719 274.328 -14.2795 273.007C-15.2514 275.694 -15.2514 278.637 -14.2795 281.325C-13.7545 279.957 -13.5065 278.499 -13.5498 277.034V277.151ZM-71.3975 305.608C-71.3696 304.192 -71.6174 302.784 -72.1271 301.463C-73.0995 304.141 -73.0995 307.075 -72.1271 309.752C-71.5992 308.396 -71.351 306.946 -71.3975 305.491V305.608ZM-22.8603 326.184C-22.8465 324.77 -23.0939 323.365 -23.59 322.04C-24.5623 324.717 -24.5623 327.651 -23.59 330.329C-23.0795 328.967 -22.8319 327.521 -22.8603 326.068V326.184ZM-69.9382 354.846C-69.9102 353.42 -70.1579 352.003 -70.6678 350.672C-71.6398 353.359 -71.6398 356.303 -70.6678 358.99C-70.1452 357.632 -69.8972 356.184 -69.9382 354.729V354.846ZM-22.8603 369.03C-22.8465 367.616 -23.0939 366.211 -23.59 364.886C-24.5623 367.563 -24.5623 370.497 -23.59 373.175C-23.0795 371.813 -22.8319 370.367 -22.8603 368.913V369.03ZM57.4902 190.992C58.9058 191.018 60.313 190.77 61.6347 190.263C60.3088 189.77 58.9045 189.523 57.4902 189.533C56.0754 189.517 54.6699 189.764 53.3457 190.263C54.66 190.805 56.0684 191.083 57.4902 191.08V190.992ZM62.6563 236.319C64.072 236.347 65.4796 236.099 66.8007 235.589C65.4796 235.08 64.072 234.832 62.6563 234.86C61.2416 234.846 59.8366 235.093 58.5118 235.589C59.8368 236.079 61.2443 236.307 62.6563 236.261V236.319ZM9.2741 232.729C10.6898 232.757 12.0975 232.509 13.4186 231.999C12.0975 231.49 10.6898 231.242 9.2741 231.27C7.85926 231.253 6.45371 231.501 5.12957 231.999C6.45385 232.492 7.86199 232.72 9.2741 232.671V232.729ZM28.8875 269.884C30.3115 269.897 31.726 269.65 33.0611 269.154C30.3736 268.182 27.4305 268.182 24.7429 269.154C26.0688 269.646 27.4732 269.893 28.8875 269.884ZM-34.1847 266.702C-32.77 266.716 -31.365 266.469 -30.0402 265.973C-32.7176 265 -35.6517 265 -38.3292 265.973C-37.0089 266.491 -35.6032 266.758 -34.1847 266.761V266.702ZM-44.6334 315.21C-43.2177 315.238 -41.81 314.99 -40.489 314.481C-43.1664 313.508 -46.1005 313.508 -48.7779 314.481C-47.4617 315.013 -46.0533 315.281 -44.6334 315.269V315.21ZM-58.8765 408.607C-57.4594 408.653 -56.0483 408.404 -54.732 407.878C-57.4094 406.905 -60.3435 406.905 -63.021 407.878C-61.7059 408.417 -60.298 408.695 -58.8765 408.695V408.607ZM-48.7779 363.718C-47.3636 363.728 -45.9593 363.481 -44.6334 362.989C-45.9551 362.481 -47.3623 362.233 -48.7779 362.259C-50.1939 362.228 -51.6022 362.476 -52.9224 362.989C-51.604 363.517 -50.1983 363.794 -48.7779 363.806V363.718ZM-92.3243 347.053C-90.899 347.081 -89.4818 346.833 -88.1506 346.323C-90.8381 345.351 -93.7812 345.351 -96.4688 346.323C-95.153 346.861 -93.7456 347.138 -92.3243 347.14V347.053ZM-14.4837 247.206C-15.4693 246.189 -16.6377 245.367 -17.9278 244.783C-17.3547 246.088 -16.5318 247.268 -15.5053 248.256C-14.5181 249.264 -13.3497 250.076 -12.0613 250.65C-12.6546 249.391 -13.4759 248.253 -14.4837 247.293V247.206ZM-33.6593 292.824C-34.6558 291.807 -35.8338 290.985 -37.1325 290.402C-35.9201 292.964 -33.8573 295.027 -31.2952 296.239C-31.8729 294.995 -32.6743 293.867 -33.6593 292.912V292.824ZM-75.2793 380.53C-76.2608 379.516 -77.4307 378.703 -78.7233 378.136C-77.511 380.699 -75.4482 382.761 -72.886 383.974C-73.4634 382.713 -74.2756 381.574 -75.2793 380.617V380.53ZM-32.9005 387.622C-33.8809 386.599 -35.0505 385.777 -36.3445 385.2C-35.7675 386.494 -34.9448 387.663 -33.922 388.644C-32.944 389.669 -31.7738 390.492 -30.478 391.066C-31.0713 389.807 -31.8926 388.669 -32.9005 387.71V387.622ZM-88.8511 324.725C-89.842 323.701 -91.0213 322.879 -92.3243 322.303C-91.7473 323.597 -90.9246 324.766 -89.9018 325.747C-88.9185 326.766 -87.7495 327.588 -86.4577 328.169C-87.0411 326.912 -87.8526 325.774 -88.8511 324.813V324.725ZM-39.9636 338.793C-40.9508 337.786 -42.1192 336.974 -43.4076 336.4C-42.8446 337.694 -42.0312 338.865 -41.0143 339.844C-40.0179 340.861 -38.8399 341.682 -37.5411 342.266C-38.1441 341.004 -38.9641 339.858 -39.9636 338.881V338.793ZM26.8444 216.589C25.8479 215.572 24.6699 214.75 23.3712 214.166C23.9549 215.465 24.7765 216.643 25.7936 217.64C26.7808 218.647 27.9493 219.459 29.2377 220.033C28.6543 218.776 27.8428 217.638 26.8444 216.676V216.589ZM12.2511 289.876C11.2707 288.854 10.1011 288.031 8.8071 287.454C9.39085 288.753 10.2125 289.931 11.2296 290.927C12.2168 291.934 13.3852 292.746 14.6736 293.32C14.0814 292.053 13.2488 290.913 12.2219 289.964L12.2511 289.876ZM47.5376 219.537C46.512 220.515 45.6889 221.685 45.1152 222.981C47.6773 221.768 49.7401 219.706 50.9525 217.143C49.6536 217.738 48.4836 218.581 47.5084 219.624L47.5376 219.537ZM7.55206 257.304C6.52641 258.282 5.70327 259.452 5.12957 260.748C6.41794 260.174 7.58642 259.362 8.57361 258.355C9.59071 257.358 10.4123 256.18 10.9961 254.882C9.68843 255.488 8.50937 256.341 7.52289 257.392L7.55206 257.304ZM-59.3726 286.17C-60.38 287.157 -61.192 288.325 -61.766 289.614C-60.4776 289.04 -59.3091 288.228 -58.3219 287.22C-57.3048 286.224 -56.4832 285.046 -55.8994 283.747C-57.2157 284.354 -58.4043 285.206 -59.4018 286.257L-59.3726 286.17ZM-65.7353 331.438C-66.759 332.429 -67.5815 333.608 -68.1578 334.911C-65.5752 333.728 -63.5037 331.656 -62.3205 329.074C-63.6024 329.684 -64.7679 330.514 -65.7645 331.526L-65.7353 331.438ZM-15.4761 348.016C-16.5598 349.026 -17.4241 350.248 -18.0153 351.606C-16.7195 351.032 -15.5493 350.209 -14.5713 349.183C-13.5621 348.209 -12.7496 347.05 -12.178 345.769C-13.4195 346.339 -14.5469 347.13 -15.5053 348.103L-15.4761 348.016ZM-55.199 384.703C-56.2312 385.676 -57.0553 386.847 -57.6215 388.147C-55.0594 386.935 -52.9965 384.872 -51.7842 382.31C-53.079 382.911 -54.2477 383.753 -55.2282 384.791L-55.199 384.703ZM-9.98903 305.9C-11.0058 306.885 -11.8276 308.054 -12.4115 309.344C-9.84939 308.131 -7.78658 306.069 -6.57421 303.506C-7.85956 304.073 -9.02761 304.875 -10.0182 305.871L-9.98903 305.9ZM85.0131 184.25C83.996 185.24 83.1829 186.42 82.6198 187.723C83.9099 187.14 85.0783 186.318 86.0639 185.301C87.0734 184.309 87.8943 183.142 88.4864 181.857C87.1809 182.418 85.9927 183.22 84.9839 184.221L85.0131 184.25Z" fill="white"/>
<path d="M130.165 195.078C119.833 198.785 99.7816 184.63 91.084 172.313C90.5003 171.467 90.8213 161.806 90.617 150.044C90.4711 142.922 90.15 134.983 89.3328 127.774C89.1577 126.286 94.528 128.416 94.528 128.416L104.13 129.613L135.885 133.612C134.321 142.934 133.91 152.412 134.66 161.835C134.776 162.827 134.991 163.804 135.302 164.754C135.302 164.754 135.302 165.045 135.302 165.221C136.965 170.795 140.147 191.488 130.165 195.078Z" fill="#F7A9A0"/>
<path d="M135.301 164.812C135.301 164.812 135.301 165.104 135.301 165.279C133.781 165.681 132.228 165.945 130.661 166.067C100.102 168.986 91.9009 130.489 91.9009 130.489L104.013 129.642L135.768 133.641C134.204 142.963 133.792 152.442 134.542 161.864C134.695 162.87 134.949 163.857 135.301 164.812Z" fill="#263238"/>
<path d="M78.8837 72.0572C74.6225 88.4017 85.1296 134.692 97.0669 144.586C114.345 158.975 141.664 159.179 153.63 138.748C165.305 118.814 150.478 58.7482 137.228 49.8463C117.76 36.6539 85.1296 47.8908 78.8837 72.0572Z" fill="#F7A9A0"/>
<path d="M118.607 99.7261C118.607 99.7261 118.373 99.9304 118.432 100.047C119.22 103.141 119.599 106.818 117.001 108.482C117.001 108.482 117.001 108.686 117.001 108.657C120.416 107.402 119.833 102.528 118.607 99.7261Z" fill="#263238"/>
<path d="M115.075 97.0696C109.996 97.7993 111.835 107.956 116.563 107.285C121.292 106.614 119.365 96.4567 115.075 97.0696Z" fill="#263238"/>
<path d="M137.607 95.6982C137.607 95.6982 137.87 95.6982 137.899 95.9317C138.366 99.0839 139.446 102.645 142.452 103.17V103.345C138.921 103.52 137.549 98.7628 137.607 95.6982Z" fill="#263238"/>
<path d="M139.825 91.8454C144.787 90.532 147.034 100.601 142.423 101.827C137.811 103.053 135.622 92.9837 139.825 91.8454Z" fill="#263238"/>
<path d="M110.23 93.1588C111.497 92.5329 112.725 91.8312 113.907 91.0574C115.308 90.2402 116.534 89.744 117.264 88.1388C117.43 87.6894 117.439 87.1973 117.291 86.7419C117.142 86.2865 116.845 85.8944 116.447 85.6287C115.583 85.2043 114.622 85.0184 113.662 85.0903C112.703 85.1621 111.78 85.4891 110.989 86.0373C109.208 86.9037 107.814 88.4019 107.078 90.2402C106.923 90.6711 106.899 91.1379 107.008 91.5826C107.117 92.0272 107.354 92.43 107.689 92.741C108.025 93.052 108.445 93.2574 108.897 93.3317C109.349 93.406 109.812 93.3459 110.23 93.1588Z" fill="#263238"/>
<path d="M142.802 86.0079C141.397 85.9833 139.994 85.8859 138.599 85.716C137.089 85.812 135.589 85.4012 134.338 84.5486C133.996 84.2119 133.776 83.7709 133.713 83.2952C133.649 82.8195 133.746 82.3363 133.988 81.9218C134.588 81.1706 135.378 80.5933 136.276 80.2495C137.174 79.9057 138.147 79.808 139.096 79.9663C141.074 79.9845 142.976 80.7329 144.437 82.0677C144.747 82.3953 144.956 82.8059 145.038 83.2497C145.12 83.6935 145.071 84.1515 144.899 84.5684C144.726 84.9853 144.436 85.3431 144.064 85.5986C143.692 85.8541 143.253 85.9962 142.802 86.0079Z" fill="#263238"/>
<path d="M121.817 128.854C122.722 129.467 123.656 130.342 124.736 130.226C125.895 129.998 126.991 129.52 127.946 128.825C127.946 128.825 128.18 128.825 128.122 128.825C127.787 129.525 127.268 130.121 126.62 130.548C125.972 130.975 125.219 131.216 124.444 131.247C123.783 131.184 123.155 130.929 122.637 130.514C122.118 130.1 121.732 129.543 121.525 128.912C121.467 128.883 121.7 128.766 121.817 128.854Z" fill="#263238"/>
<path d="M123.423 118.843C124.444 119.95 125.686 120.83 127.068 121.428C128.451 122.027 129.943 122.329 131.449 122.316C132.761 122.328 134.069 122.151 135.331 121.791L136.06 121.586L136.702 121.353C136.869 121.295 137.011 121.183 137.106 121.035C137.201 120.887 137.244 120.711 137.228 120.536V120.215V119.952C136.878 117.5 135.973 113.881 135.973 113.881C136.936 114.144 141.81 115.37 141.518 114.115C139.245 103.248 135.882 92.6384 131.478 82.4473C131.45 82.3798 131.398 82.3253 131.332 82.2944C131.265 82.2636 131.19 82.2586 131.12 82.2806C131.051 82.3026 130.992 82.3499 130.955 82.4132C130.919 82.4765 130.908 82.5511 130.923 82.6224C132.937 92.6918 136.761 102.323 138.95 112.393C137.208 111.931 135.409 111.725 133.609 111.78C133.288 111.78 135.477 118.785 135.564 119.894C133.622 120.449 131.587 120.609 129.582 120.363C127.576 120.117 125.641 119.471 123.889 118.463C123.393 118.376 123.189 118.639 123.423 118.843Z" fill="#263238"/>
<path d="M133.754 121.237C132.66 123.158 131.08 124.759 129.172 125.877C128.121 126.48 126.902 126.726 125.699 126.578C123.101 126.257 122.78 123.951 122.78 121.908C122.906 120.814 123.151 119.738 123.51 118.697C126.559 120.631 130.155 121.522 133.754 121.237Z" fill="#263238"/>
<path d="M129.085 125.877C128.033 126.48 126.815 126.726 125.612 126.578C123.014 126.257 122.693 123.951 122.693 121.908C124.051 121.744 125.424 122.047 126.586 122.769C127.748 123.491 128.63 124.587 129.085 125.877Z" fill="#FF9ABB"/>
<path d="M83.1448 107.285C93.8563 105.184 92.2219 85.3662 92.2219 85.3662C92.2219 85.3662 110.026 78.8576 110.055 64.4978C110.055 64.4978 129.61 72.3198 142.394 64.7313C155.177 57.1428 149.982 40.4481 147.793 37.4419C142.802 30.5538 133.2 42.462 133.2 42.462C133.2 42.462 113.907 35.2821 94.6735 40.9734C79.0003 45.6141 73.8635 62.1629 73.8635 62.1629C73.8635 62.1629 65.6329 65.6361 63.9985 72.1739C62.364 78.7116 76.3444 108.599 83.1448 107.285Z" fill="#263238"/>
<path d="M87.9315 86.3291C102.525 85.5119 110.113 74.2459 109.588 60.2363H109.851C111.864 73.02 102.729 89.4229 87.9023 87.0296C87.8094 87.0257 87.7219 86.9851 87.659 86.9167C87.596 86.8483 87.5628 86.7576 87.5667 86.6647C87.5706 86.5718 87.6112 86.4843 87.6796 86.4214C87.748 86.3584 87.8387 86.3252 87.9315 86.3291Z" fill="#263238"/>
<path d="M74.2722 61.8418C74.2722 61.8418 74.5349 62.0169 74.2722 62.1045C70.6239 64.7021 66.3334 66.9494 64.232 71.1231C61.6928 76.1432 63.5316 81.747 65.7206 86.5044C69.1646 93.8302 75.031 103.082 82.7947 106.293C83.2616 106.497 82.7947 107.139 82.5028 106.993C73.3091 103.695 66.0124 91.6121 63.123 82.7393C60.0584 72.8159 65.2827 65.8404 74.2722 61.8418Z" fill="#263238"/>
<path d="M126.341 65.2276C130.002 66.6663 134.008 66.9877 137.852 66.1514C141.696 65.315 145.206 63.3584 147.939 60.5285C154.36 53.3487 151.033 44.2716 146.363 37.1793C146.129 36.8291 146.567 36.3037 146.888 36.6248C152.58 42.6372 154.856 53.0276 149.807 60.1783C144.758 67.329 133.637 69.518 125.903 66.3658C125.29 66.0156 125.699 64.9649 126.341 65.2276Z" fill="#263238"/>
<path d="M90.4707 109.649C90.4707 109.649 78.9712 95.231 72.375 99.4047C65.7789 103.578 75.0602 124.943 83.2908 127.424C84.322 127.814 85.4215 127.992 86.5231 127.946C87.6248 127.9 88.7058 127.632 89.7011 127.158C90.6964 126.683 91.5853 126.012 92.3145 125.185C93.0436 124.358 93.5979 123.392 93.9439 122.345L90.4707 109.649Z" fill="#F7A9A0"/>
<path d="M75.1772 105.476C75.1772 105.476 75.1772 105.651 75.1772 105.68C81.0146 107.606 84.2543 112.655 86.6768 117.938C86.3141 117.394 85.8379 116.935 85.2809 116.593C84.7239 116.251 84.0993 116.034 83.4502 115.956C82.8011 115.878 82.1429 115.942 81.5209 116.143C80.8989 116.344 80.3278 116.678 79.8471 117.121C79.7012 117.121 79.8471 117.442 80.0222 117.413C80.9906 117.034 82.0527 116.966 83.0617 117.217C84.0708 117.468 84.977 118.026 85.6552 118.814C86.7889 120.128 87.7682 121.567 88.5739 123.104C88.8658 123.6 89.7706 123.279 89.5371 122.725C89.1576 115.399 82.9409 105.709 75.1772 105.476Z" fill="#263238"/>
<path d="M135.798 166.475L125.933 194.494L90.2376 161.134L81.0146 172.809C81.0146 172.809 116.856 226.687 116.972 224.177L127.275 199.982L144.379 215.771L141.256 174.414L135.798 166.475Z" fill="#FFC727"/>
<path d="M143.999 195.166C143.24 188.336 142.686 181.448 141.635 174.735C141.635 174.502 141.197 174.414 141.168 174.735C140.088 181.39 143.065 207.424 143.299 213.699C142.598 213.028 127.509 199.836 127.363 200.069C125.086 203.951 117.498 221.58 117.001 223.156C111.31 214.604 89.6829 183.52 83.0575 175.494C83.0227 175.44 82.9678 175.402 82.9048 175.388C82.8419 175.374 82.7761 175.386 82.7219 175.421C82.6677 175.456 82.6296 175.511 82.6159 175.574C82.6022 175.637 82.6141 175.702 82.6489 175.757C87.7274 184.834 116.418 226.687 116.797 226.57C120.841 218.232 124.446 209.689 127.596 200.974C130.165 203.892 145.488 218.836 145.488 217.814C145.378 210.244 144.881 202.685 143.999 195.166Z" fill="#263238"/>
</g>
<defs>
<clipPath id="clip0_455_29993">
<rect x="0.828613" y="0.012207" width="218.911" height="218.911" rx="109.456" fill="white"/>
</clipPath>
</defs>
</svg>
