<svg width="216" height="197" viewBox="0 0 216 197" fill="none" xmlns="http://www.w3.org/2000/svg">
<path fill-rule="evenodd" clip-rule="evenodd" d="M39.4222 96.2785C39.2826 96.7007 39.1272 97.0784 38.958 97.3679C36.993 100.695 34.4869 103.514 32.2521 106.608C25.9268 115.363 16.7643 121.539 6.06808 123.836C5.0371 124.057 3.88044 123.31 3.48546 122.171C3.09049 121.032 3.6055 119.932 4.63649 119.711C14.5603 117.581 23.0528 111.84 28.9181 103.72C31.0949 100.705 33.5394 97.9674 35.4569 94.7257C35.7437 94.2418 35.8953 93.3529 36.1026 92.5768C36.3349 91.7326 36.6099 90.976 36.932 90.5078C37.4637 89.7336 38.1701 89.4404 38.9073 89.4761C39.4324 89.5028 40.0361 89.6884 40.691 90.2299C40.9578 90.4514 41.3547 90.8844 41.7191 91.6168C42.2775 92.7311 43.1391 95.3141 44.2714 98.7001C46.12 104.25 48.7654 112.088 52.1672 118.826C54.2968 123.052 56.6997 126.846 59.4355 129.213C60.3591 130.01 60.6113 131.341 60.0041 132.186C59.4006 133.029 58.155 133.066 57.2314 132.27C54.0563 129.522 51.1758 125.173 48.6978 120.259C45.1847 113.287 42.4301 105.181 40.5151 99.4408C40.1472 98.3378 39.768 97.2432 39.4222 96.2785Z" fill="white"/>
<path fill-rule="evenodd" clip-rule="evenodd" d="M41.3781 101.545C29.7304 116.088 28.6888 130.621 34.3735 142.139C42.9283 159.472 66.2067 169.479 89.3963 162.114C147.427 143.684 165.292 68.5753 157.337 7.23723C157.188 6.07459 157.953 5.17379 159.047 5.21528C160.141 5.25676 161.149 6.23588 161.302 7.39569C169.469 70.3697 150.718 147.239 91.138 166.16C65.6891 174.243 40.2724 162.552 30.8844 143.53C24.6096 130.809 25.2723 114.59 38.1368 98.5306C38.7854 97.7247 40.039 97.7445 40.9286 98.5739C41.8253 99.4049 42.0267 100.739 41.3781 101.545Z" fill="white"/>
</svg>
