<svg width="300" height="307" viewBox="0 0 300 307" fill="none" xmlns="http://www.w3.org/2000/svg">
<g clip-path="url(#clip0_334_13245)">
<path fill-rule="evenodd" clip-rule="evenodd" d="M81.4222 151.279C81.2826 151.701 81.1272 152.078 80.958 152.368C78.993 155.695 76.4869 158.514 74.2521 161.608C67.9268 170.363 58.7643 176.539 48.0681 178.836C47.0371 179.057 45.8804 178.31 45.4855 177.171C45.0905 176.032 45.6055 174.932 46.6365 174.711C56.5603 172.581 65.0528 166.84 70.9181 158.72C73.0949 155.705 75.5394 152.967 77.4569 149.726C77.7437 149.242 77.8953 148.353 78.1026 147.577C78.3349 146.733 78.6099 145.976 78.932 145.508C79.4637 144.734 80.1701 144.44 80.9073 144.476C81.4324 144.503 82.0361 144.688 82.691 145.23C82.9578 145.451 83.3547 145.884 83.7191 146.617C84.2775 147.731 85.1391 150.314 86.2714 153.7C88.12 159.25 90.7654 167.088 94.1672 173.826C96.2968 178.052 98.6997 181.846 101.436 184.213C102.359 185.01 102.611 186.341 102.004 187.186C101.401 188.029 100.155 188.066 99.2314 187.27C96.0563 184.522 93.1758 180.173 90.6978 175.259C87.1847 168.287 84.4301 160.181 82.5151 154.441C82.1472 153.338 81.768 152.243 81.4222 151.279Z" fill="white"/>
<path fill-rule="evenodd" clip-rule="evenodd" d="M83.3781 156.545C71.7304 171.088 70.6888 185.621 76.3735 197.139C84.9283 214.472 108.207 224.479 131.396 217.114C189.427 198.684 207.292 123.575 199.337 62.2372C199.188 61.0746 199.953 60.1738 201.047 60.2153C202.141 60.2568 203.149 61.2359 203.302 62.3957C211.469 125.37 192.718 202.239 133.138 221.16C107.689 229.243 82.2724 217.552 72.8844 198.53C66.6096 185.809 67.2723 169.59 80.1368 153.531C80.7854 152.725 82.039 152.744 82.9286 153.574C83.8253 154.405 84.0267 155.739 83.3781 156.545Z" fill="white"/>
</g>
<defs>
<clipPath id="clip0_334_13245">
<rect width="235.338" height="196.169" fill="white" transform="matrix(0.602047 0.798461 0.798461 -0.602047 0.830078 118.157)"/>
</clipPath>
</defs>
</svg>
