<svg width="579" height="994" viewBox="0 0 579 994" fill="none" xmlns="http://www.w3.org/2000/svg">
<circle cx="109.467" cy="459.596" r="346.417" transform="rotate(-19.2039 109.467 459.596)" stroke="url(#paint0_linear_334_12828)" stroke-width="0.4"/>
<circle cx="70.8425" cy="499.26" r="321.658" transform="rotate(-19.2039 70.8425 499.26)" stroke="url(#paint1_linear_334_12828)" stroke-width="0.4"/>
<circle cx="32.2461" cy="538.932" r="296.9" transform="rotate(-19.2039 32.2461 538.932)" stroke="url(#paint2_linear_334_12828)" stroke-width="0.4"/>
<circle cx="-6.37597" cy="578.597" r="272.142" transform="rotate(-19.2039 -6.37597 578.597)" stroke="url(#paint3_linear_334_12828)" stroke-width="0.4"/>
<circle cx="-45" cy="618.26" r="247.383" transform="rotate(-19.2039 -45 618.26)" stroke="url(#paint4_linear_334_12828)" stroke-width="0.4"/>
<circle cx="-83.6201" cy="657.937" r="222.625" transform="rotate(-19.2039 -83.6201 657.937)" stroke="url(#paint5_linear_334_12828)" stroke-width="0.4"/>
<circle cx="-122.244" cy="697.601" r="197.867" transform="rotate(-19.2039 -122.244 697.601)" stroke="url(#paint6_linear_334_12828)" stroke-width="0.4"/>
<circle cx="-160.864" cy="737.276" r="173.108" transform="rotate(-19.2039 -160.864 737.276)" stroke="url(#paint7_linear_334_12828)" stroke-width="0.4"/>
<defs>
<linearGradient id="paint0_linear_334_12828" x1="109.467" y1="112.979" x2="109.467" y2="806.212" gradientUnits="userSpaceOnUse">
<stop stop-color="white"/>
<stop offset="1" stop-color="#FFE662"/>
</linearGradient>
<linearGradient id="paint1_linear_334_12828" x1="70.8425" y1="177.402" x2="70.8425" y2="821.118" gradientUnits="userSpaceOnUse">
<stop stop-color="white"/>
<stop offset="1" stop-color="#FFE662"/>
</linearGradient>
<linearGradient id="paint2_linear_334_12828" x1="32.2461" y1="241.832" x2="32.2461" y2="836.032" gradientUnits="userSpaceOnUse">
<stop stop-color="white"/>
<stop offset="1" stop-color="#FFE662"/>
</linearGradient>
<linearGradient id="paint3_linear_334_12828" x1="-6.37598" y1="306.255" x2="-6.37598" y2="850.939" gradientUnits="userSpaceOnUse">
<stop stop-color="white"/>
<stop offset="1" stop-color="#FFE662"/>
</linearGradient>
<linearGradient id="paint4_linear_334_12828" x1="-45" y1="370.677" x2="-45" y2="865.844" gradientUnits="userSpaceOnUse">
<stop stop-color="white"/>
<stop offset="1" stop-color="#FFE662"/>
</linearGradient>
<linearGradient id="paint5_linear_334_12828" x1="-83.6201" y1="435.112" x2="-83.6201" y2="880.762" gradientUnits="userSpaceOnUse">
<stop stop-color="white"/>
<stop offset="1" stop-color="#FFE662"/>
</linearGradient>
<linearGradient id="paint6_linear_334_12828" x1="-122.244" y1="499.534" x2="-122.244" y2="895.668" gradientUnits="userSpaceOnUse">
<stop stop-color="white"/>
<stop offset="1" stop-color="#FFE662"/>
</linearGradient>
<linearGradient id="paint7_linear_334_12828" x1="-160.864" y1="563.968" x2="-160.864" y2="910.585" gradientUnits="userSpaceOnUse">
<stop stop-color="white"/>
<stop offset="1" stop-color="#FFE662"/>
</linearGradient>
</defs>
</svg>
