<svg width="231" height="196" viewBox="0 0 231 196" fill="none" xmlns="http://www.w3.org/2000/svg">
<path fill-rule="evenodd" clip-rule="evenodd" d="M94.467 46.6004C98.6966 43.1507 103.374 40.1505 108.217 37.7115C117.689 32.9405 131.908 28.6461 145.074 28.5245C154.099 28.4411 162.625 30.3305 168.921 35.1961C180.915 44.4634 183.385 60.4715 179.958 77.1044C177.458 89.2355 171.846 101.682 164.758 111.9C172.809 107.3 183.22 103.034 193.331 101.984C204.664 100.799 215.606 103.608 222.748 114.068C237.675 135.932 230.2 157.086 213.985 172.355C198.055 187.353 173.626 196.559 154.346 194.985C153.327 194.898 152.568 194.003 152.651 192.984C152.734 191.966 153.629 191.206 154.648 191.293C173.018 192.787 196.267 183.951 211.445 169.657C226.336 155.635 233.397 136.234 219.689 116.161C213.398 106.948 203.698 104.621 193.715 105.664C183.329 106.751 172.622 111.437 164.763 116.192C162.634 117.476 160.488 118.748 158.358 120.051C152.646 126.454 146.384 131.276 140.235 133.61C138.708 134.184 138.006 133.184 137.822 132.894C137.571 132.499 137.329 131.863 137.733 131.041C137.809 130.887 137.996 130.597 138.329 130.276C138.784 129.844 139.797 129.047 140.218 128.658C141.953 127.04 143.855 125.552 145.727 124.107C148.981 121.588 152.438 119.347 155.946 117.192C156.448 116.618 156.945 116.037 157.436 115.445C166.232 104.806 173.444 90.3637 176.33 76.3574C179.448 61.2217 177.569 46.5603 166.656 38.1277C160.975 33.7382 153.25 32.1539 145.108 32.2292C132.524 32.3453 118.936 36.46 109.884 41.0199C104.354 43.8052 99.0485 47.3574 94.4386 51.4987C92.9086 52.8731 91.5131 54.4328 90.1751 55.9944C90.0282 56.166 89.8256 56.4198 89.6003 56.7106C89.0161 57.5831 88.3987 58.4234 87.7473 59.2292C87.404 59.6534 87.1693 59.8046 87.1267 59.8318C86.0073 60.5474 85.2114 59.9467 84.873 59.6355C84.7724 59.5429 83.7561 58.5488 84.5822 57.241C84.7502 56.9761 85.7961 55.5584 86.6297 54.4909C92.8092 45.1815 94.7331 32.0798 92.004 21.4454C90.2733 14.704 86.6618 8.94317 80.9386 5.93679C77.1327 3.9381 72.4116 3.1774 66.7477 4.08568C53.0884 6.2764 41.647 14.0705 31.4652 23.6657C21.0494 33.4814 11.9524 45.1908 3.23584 54.9885C2.55664 55.7523 1.38472 55.8208 0.620926 55.141C-0.142853 54.4618 -0.211395 53.2899 0.468414 52.5261C9.25168 42.6524 18.4283 30.8615 28.9244 20.9693C39.6551 10.8573 51.7652 2.73654 66.1611 0.427879C72.7506 -0.629201 78.2336 0.331585 82.6613 2.65691C89.2872 6.13688 93.589 12.7195 95.592 20.5241C97.6852 28.6801 97.2511 38.1598 94.467 46.6004Z" fill="#FFE662"/>
</svg>
