<svg width="870" height="590" viewBox="0 0 870 590" fill="none" xmlns="http://www.w3.org/2000/svg">
<g clip-path="url(#clip0_504_26578)">
<path d="M0 5C0 2.23858 2.23858 0 5 0H1435C1437.76 0 1440 2.23858 1440 5V41H0V5Z" fill="#202124"/>
<circle cx="19" cy="20" r="5.75" fill="#FF5E5D" stroke="#E14942" stroke-width="0.5"/>
<circle cx="39" cy="20" r="5.75" fill="#FFBC4F" stroke="#E1A325" stroke-width="0.5"/>
<circle cx="59" cy="20" r="5.75" fill="#22CB58" stroke="#3EAF3F" stroke-width="0.5"/>
<rect width="1440" height="38" transform="translate(0 41)" fill="#35363A"/>
<path fill-rule="evenodd" clip-rule="evenodd" d="M32.2197 53.2197C32.5126 52.9268 32.9874 52.9268 33.2803 53.2197C33.5732 53.5126 33.5732 53.9874 33.2803 54.2803L28.0607 59.5H38.25C38.6642 59.5 39 59.8358 39 60.25C39 60.6642 38.6642 61 38.25 61H28.0607L33.2803 66.2197C33.5732 66.5126 33.5732 66.9874 33.2803 67.2803C32.9874 67.5732 32.5126 67.5732 32.2197 67.2803L25.7197 60.7803C25.4268 60.4874 25.4268 60.0126 25.7197 59.7197L32.2197 53.2197Z" fill="#F1F3F4"/>
<path fill-rule="evenodd" clip-rule="evenodd" d="M63.7803 53.2197C63.4874 52.9268 63.0126 52.9268 62.7197 53.2197C62.4268 53.5126 62.4268 53.9874 62.7197 54.2803L67.9393 59.5H57.75C57.3358 59.5 57 59.8358 57 60.25C57 60.6642 57.3358 61 57.75 61H67.9393L62.7197 66.2197C62.4268 66.5126 62.4268 66.9874 62.7197 67.2803C63.0126 67.5732 63.4874 67.5732 63.7803 67.2803L70.2803 60.7803C70.5732 60.4874 70.5732 60.0126 70.2803 59.7197L63.7803 53.2197Z" fill="#BABCBE"/>
<path d="M91 55L101 65M91 65L101 55" stroke="#F1F3F4" stroke-width="1.5" stroke-linecap="round" stroke-linejoin="round"/>
<path fill-rule="evenodd" clip-rule="evenodd" d="M128.888 53.937C128.634 53.6831 128.223 53.6831 127.969 53.937L121.437 60.4689C121.183 60.7227 121.183 61.1343 121.437 61.3881C121.691 61.6419 122.102 61.6419 122.356 61.3881L123.424 60.3203V66.5895C123.424 66.9485 123.715 67.2395 124.074 67.2395H132.783C133.142 67.2395 133.433 66.9485 133.433 66.5895V60.3205L134.501 61.3881C134.755 61.6419 135.166 61.6419 135.42 61.3881C135.674 61.1343 135.674 60.7227 135.42 60.4689L133.248 58.2965C133.244 58.2932 133.241 58.29 133.238 58.2868L128.888 53.937ZM132.133 59.0205L128.428 55.3158L124.724 59.0203V65.9395H132.133V59.0205Z" fill="#F1F3F4"/>
<rect x="152" y="46" width="1115" height="28" rx="14" fill="#202124"/>
<path fill-rule="evenodd" clip-rule="evenodd" d="M174 58V59H170V58C170 56.8954 170.895 56 172 56C173.105 56 174 56.8954 174 58ZM169 59V58C169 56.3431 170.343 55 172 55C173.657 55 175 56.3431 175 58V59C175.552 59 176 59.4477 176 60V65C176 65.5523 175.552 66 175 66H169C168.448 66 168 65.5523 168 65V60C168 59.4477 168.448 59 169 59Z" fill="#8B8A8D"/>
<path d="M187.91 65V61.406L185 56.36H186.242L188.45 60.182L190.652 56.36H191.894L188.99 61.406V65H187.91ZM194.53 65.18C193.886 65.18 193.33 65.034 192.862 64.742C192.398 64.45 192.04 64.046 191.788 63.53C191.536 63.014 191.41 62.422 191.41 61.754C191.41 61.074 191.538 60.478 191.794 59.966C192.05 59.454 192.412 59.056 192.88 58.772C193.348 58.484 193.898 58.34 194.53 58.34C195.178 58.34 195.736 58.486 196.204 58.778C196.672 59.066 197.03 59.468 197.278 59.984C197.53 60.496 197.656 61.086 197.656 61.754C197.656 62.43 197.53 63.026 197.278 63.542C197.026 64.054 196.666 64.456 196.198 64.748C195.73 65.036 195.174 65.18 194.53 65.18ZM194.53 64.166C195.202 64.166 195.702 63.942 196.03 63.494C196.358 63.046 196.522 62.466 196.522 61.754C196.522 61.022 196.356 60.44 196.024 60.008C195.692 59.572 195.194 59.354 194.53 59.354C194.078 59.354 193.706 59.456 193.414 59.66C193.122 59.864 192.904 60.146 192.76 60.506C192.616 60.866 192.544 61.282 192.544 61.754C192.544 62.482 192.712 63.066 193.048 63.506C193.384 63.946 193.878 64.166 194.53 64.166ZM201.437 65.168C201.021 65.168 200.663 65.102 200.363 64.97C200.067 64.838 199.821 64.662 199.625 64.442C199.429 64.222 199.275 63.978 199.163 63.71C199.051 63.442 198.971 63.168 198.923 62.888C198.879 62.608 198.857 62.346 198.857 62.102V58.52H199.937V61.766C199.937 62.07 199.965 62.364 200.021 62.648C200.077 62.932 200.171 63.188 200.303 63.416C200.439 63.644 200.619 63.824 200.843 63.956C201.071 64.088 201.355 64.154 201.695 64.154C201.963 64.154 202.207 64.108 202.427 64.016C202.647 63.924 202.835 63.788 202.991 63.608C203.147 63.424 203.267 63.192 203.351 62.912C203.435 62.632 203.477 62.306 203.477 61.934L204.179 62.15C204.179 62.774 204.065 63.312 203.837 63.764C203.613 64.216 203.295 64.564 202.883 64.808C202.475 65.048 201.993 65.168 201.437 65.168ZM203.597 65V63.266H203.477V58.52H204.551V65H203.597ZM206.231 65V58.52H207.185V60.086L207.029 59.882C207.105 59.682 207.203 59.498 207.323 59.33C207.447 59.162 207.585 59.024 207.737 58.916C207.905 58.78 208.095 58.676 208.307 58.604C208.519 58.532 208.735 58.49 208.955 58.478C209.175 58.462 209.381 58.476 209.573 58.52V59.522C209.349 59.462 209.103 59.446 208.835 59.474C208.567 59.502 208.319 59.6 208.091 59.768C207.883 59.916 207.721 60.096 207.605 60.308C207.493 60.52 207.415 60.75 207.371 60.998C207.327 61.242 207.305 61.492 207.305 61.748V65H206.231ZM214.952 65L212.45 56.36H213.566L215.486 63.194L217.4 56.366L218.522 56.36L220.442 63.194L222.356 56.36H223.478L220.976 65H219.908L217.964 58.226L216.02 65H214.952ZM226.593 65.18C225.957 65.18 225.401 65.04 224.925 64.76C224.453 64.476 224.085 64.082 223.821 63.578C223.557 63.07 223.425 62.478 223.425 61.802C223.425 61.094 223.555 60.482 223.815 59.966C224.075 59.446 224.437 59.046 224.901 58.766C225.369 58.482 225.917 58.34 226.545 58.34C227.197 58.34 227.751 58.49 228.207 58.79C228.667 59.09 229.011 59.518 229.239 60.074C229.471 60.63 229.571 61.292 229.539 62.06H228.459V61.676C228.447 60.88 228.285 60.286 227.973 59.894C227.661 59.498 227.197 59.3 226.581 59.3C225.921 59.3 225.419 59.512 225.075 59.936C224.731 60.36 224.559 60.968 224.559 61.76C224.559 62.524 224.731 63.116 225.075 63.536C225.419 63.956 225.909 64.166 226.545 64.166C226.973 64.166 227.345 64.068 227.661 63.872C227.977 63.676 228.225 63.394 228.405 63.026L229.431 63.38C229.179 63.952 228.799 64.396 228.291 64.712C227.787 65.024 227.221 65.18 226.593 65.18ZM224.199 62.06V61.202H228.987V62.06H224.199ZM233.851 65.18C233.243 65.18 232.731 65.03 232.315 64.73C231.899 64.426 231.583 64.016 231.367 63.5C231.155 62.98 231.049 62.398 231.049 61.754C231.049 61.102 231.155 60.518 231.367 60.002C231.583 59.486 231.899 59.08 232.315 58.784C232.735 58.488 233.249 58.34 233.857 58.34C234.457 58.34 234.973 58.49 235.405 58.79C235.841 59.086 236.175 59.492 236.407 60.008C236.639 60.524 236.755 61.106 236.755 61.754C236.755 62.402 236.639 62.984 236.407 63.5C236.175 64.016 235.841 64.426 235.405 64.73C234.973 65.03 234.455 65.18 233.851 65.18ZM230.869 65V56.36H231.943V60.23H231.823V65H230.869ZM233.719 64.202C234.147 64.202 234.501 64.094 234.781 63.878C235.061 63.662 235.271 63.37 235.411 63.002C235.551 62.63 235.621 62.214 235.621 61.754C235.621 61.298 235.551 60.886 235.411 60.518C235.275 60.15 235.063 59.858 234.775 59.642C234.491 59.426 234.129 59.318 233.689 59.318C233.269 59.318 232.921 59.422 232.645 59.63C232.369 59.834 232.163 60.12 232.027 60.488C231.891 60.852 231.823 61.274 231.823 61.754C231.823 62.226 231.889 62.648 232.021 63.02C232.157 63.388 232.365 63.678 232.645 63.89C232.925 64.098 233.283 64.202 233.719 64.202ZM240.425 65.174C239.653 65.174 239.019 65.006 238.523 64.67C238.031 64.33 237.729 63.856 237.617 63.248L238.709 63.074C238.797 63.426 238.999 63.706 239.315 63.914C239.631 64.118 240.023 64.22 240.491 64.22C240.935 64.22 241.283 64.128 241.535 63.944C241.787 63.76 241.913 63.51 241.913 63.194C241.913 63.01 241.871 62.862 241.787 62.75C241.703 62.634 241.529 62.526 241.265 62.426C241.005 62.326 240.611 62.206 240.083 62.066C239.511 61.914 239.061 61.756 238.733 61.592C238.405 61.428 238.171 61.238 238.031 61.022C237.891 60.806 237.821 60.544 237.821 60.236C237.821 59.856 237.925 59.524 238.133 59.24C238.341 58.952 238.631 58.73 239.003 58.574C239.379 58.418 239.815 58.34 240.311 58.34C240.803 58.34 241.243 58.418 241.631 58.574C242.019 58.73 242.331 58.952 242.567 59.24C242.807 59.524 242.949 59.856 242.993 60.236L241.901 60.434C241.849 60.086 241.681 59.812 241.397 59.612C241.117 59.412 240.755 59.306 240.311 59.294C239.891 59.278 239.549 59.352 239.285 59.516C239.025 59.68 238.895 59.902 238.895 60.182C238.895 60.338 238.943 60.472 239.039 60.584C239.139 60.696 239.321 60.802 239.585 60.902C239.853 61.002 240.241 61.116 240.749 61.244C241.321 61.388 241.771 61.546 242.099 61.718C242.431 61.886 242.667 62.086 242.807 62.318C242.947 62.546 243.017 62.828 243.017 63.164C243.017 63.788 242.787 64.28 242.327 64.64C241.867 64.996 241.233 65.174 240.425 65.174ZM244.46 57.374V56.27H245.528V57.374H244.46ZM244.46 65V58.52H245.528V65H244.46ZM250.946 65C250.562 65.076 250.182 65.106 249.806 65.09C249.434 65.078 249.102 65.004 248.81 64.868C248.518 64.728 248.296 64.512 248.144 64.22C248.016 63.964 247.946 63.706 247.934 63.446C247.926 63.182 247.922 62.884 247.922 62.552V56.72H248.99V62.504C248.99 62.768 248.992 62.994 248.996 63.182C249.004 63.37 249.046 63.532 249.122 63.668C249.266 63.924 249.494 64.074 249.806 64.118C250.122 64.162 250.502 64.15 250.946 64.082V65ZM246.608 59.402V58.52H250.946V59.402H246.608ZM254.8 65.18C254.164 65.18 253.608 65.04 253.132 64.76C252.66 64.476 252.292 64.082 252.028 63.578C251.764 63.07 251.632 62.478 251.632 61.802C251.632 61.094 251.762 60.482 252.022 59.966C252.282 59.446 252.644 59.046 253.108 58.766C253.576 58.482 254.124 58.34 254.752 58.34C255.404 58.34 255.958 58.49 256.414 58.79C256.874 59.09 257.218 59.518 257.446 60.074C257.678 60.63 257.778 61.292 257.746 62.06H256.666V61.676C256.654 60.88 256.492 60.286 256.18 59.894C255.868 59.498 255.404 59.3 254.788 59.3C254.128 59.3 253.626 59.512 253.282 59.936C252.938 60.36 252.766 60.968 252.766 61.76C252.766 62.524 252.938 63.116 253.282 63.536C253.626 63.956 254.116 64.166 254.752 64.166C255.18 64.166 255.552 64.068 255.868 63.872C256.184 63.676 256.432 63.394 256.612 63.026L257.638 63.38C257.386 63.952 257.006 64.396 256.498 64.712C255.994 65.024 255.428 65.18 254.8 65.18ZM252.406 62.06V61.202H257.194V62.06H252.406ZM263.887 65V56.36H264.967L269.473 63.11V56.36H270.553V65H269.473L264.967 58.244V65H263.887ZM274.073 65.18C273.589 65.18 273.183 65.092 272.855 64.916C272.531 64.736 272.285 64.5 272.117 64.208C271.953 63.916 271.871 63.596 271.871 63.248C271.871 62.908 271.935 62.614 272.063 62.366C272.195 62.114 272.379 61.906 272.615 61.742C272.851 61.574 273.133 61.442 273.461 61.346C273.769 61.262 274.113 61.19 274.493 61.13C274.877 61.066 275.265 61.008 275.657 60.956C276.049 60.904 276.415 60.854 276.755 60.806L276.371 61.028C276.383 60.452 276.267 60.026 276.023 59.75C275.783 59.474 275.367 59.336 274.775 59.336C274.383 59.336 274.039 59.426 273.743 59.606C273.451 59.782 273.245 60.07 273.125 60.47L272.111 60.164C272.267 59.596 272.569 59.15 273.017 58.826C273.465 58.502 274.055 58.34 274.787 58.34C275.375 58.34 275.879 58.446 276.299 58.658C276.723 58.866 277.027 59.182 277.211 59.606C277.303 59.806 277.361 60.024 277.385 60.26C277.409 60.492 277.421 60.736 277.421 60.992V65H276.473V63.446L276.695 63.59C276.451 64.114 276.109 64.51 275.669 64.778C275.233 65.046 274.701 65.18 274.073 65.18ZM274.235 64.286C274.619 64.286 274.951 64.218 275.231 64.082C275.515 63.942 275.743 63.76 275.915 63.536C276.087 63.308 276.199 63.06 276.251 62.792C276.311 62.592 276.343 62.37 276.347 62.126C276.355 61.878 276.359 61.688 276.359 61.556L276.731 61.718C276.383 61.766 276.041 61.812 275.705 61.856C275.369 61.9 275.051 61.948 274.751 62C274.451 62.048 274.181 62.106 273.941 62.174C273.765 62.23 273.599 62.302 273.443 62.39C273.291 62.478 273.167 62.592 273.071 62.732C272.979 62.868 272.933 63.038 272.933 63.242C272.933 63.418 272.977 63.586 273.065 63.746C273.157 63.906 273.297 64.036 273.485 64.136C273.677 64.236 273.927 64.286 274.235 64.286ZM286.727 65L286.733 60.854C286.733 60.37 286.603 59.992 286.343 59.72C286.087 59.444 285.753 59.306 285.341 59.306C285.101 59.306 284.873 59.362 284.657 59.474C284.441 59.582 284.265 59.754 284.129 59.99C283.993 60.222 283.925 60.52 283.925 60.884L283.361 60.656C283.353 60.196 283.447 59.794 283.643 59.45C283.843 59.102 284.115 58.832 284.459 58.64C284.803 58.448 285.191 58.352 285.623 58.352C286.299 58.352 286.831 58.558 287.219 58.97C287.607 59.378 287.801 59.928 287.801 60.62L287.795 65H286.727ZM278.975 65V58.52H279.929V60.254H280.049V65H278.975ZM282.857 65L282.863 60.896C282.863 60.4 282.735 60.012 282.479 59.732C282.223 59.448 281.883 59.306 281.459 59.306C281.039 59.306 280.699 59.45 280.439 59.738C280.179 60.026 280.049 60.408 280.049 60.884L279.485 60.548C279.485 60.128 279.585 59.752 279.785 59.42C279.985 59.088 280.257 58.828 280.601 58.64C280.945 58.448 281.335 58.352 281.771 58.352C282.207 58.352 282.587 58.444 282.911 58.628C283.235 58.812 283.485 59.076 283.661 59.42C283.837 59.76 283.925 60.166 283.925 60.638L283.919 65H282.857ZM292.113 65.18C291.477 65.18 290.921 65.04 290.445 64.76C289.973 64.476 289.605 64.082 289.341 63.578C289.077 63.07 288.945 62.478 288.945 61.802C288.945 61.094 289.075 60.482 289.335 59.966C289.595 59.446 289.957 59.046 290.421 58.766C290.889 58.482 291.437 58.34 292.065 58.34C292.717 58.34 293.271 58.49 293.727 58.79C294.187 59.09 294.531 59.518 294.759 60.074C294.991 60.63 295.091 61.292 295.059 62.06H293.979V61.676C293.967 60.88 293.805 60.286 293.493 59.894C293.181 59.498 292.717 59.3 292.101 59.3C291.441 59.3 290.939 59.512 290.595 59.936C290.251 60.36 290.079 60.968 290.079 61.76C290.079 62.524 290.251 63.116 290.595 63.536C290.939 63.956 291.429 64.166 292.065 64.166C292.493 64.166 292.865 64.068 293.181 63.872C293.497 63.676 293.745 63.394 293.925 63.026L294.951 63.38C294.699 63.952 294.319 64.396 293.811 64.712C293.307 65.024 292.741 65.18 292.113 65.18ZM289.719 62.06V61.202H294.507V62.06H289.719ZM296.352 65V63.824H297.528V65H296.352ZM302.125 65.18C301.469 65.18 300.911 65.034 300.451 64.742C299.995 64.446 299.647 64.04 299.407 63.524C299.167 63.008 299.043 62.42 299.035 61.76C299.043 61.084 299.169 60.49 299.413 59.978C299.661 59.462 300.015 59.06 300.475 58.772C300.935 58.484 301.489 58.34 302.137 58.34C302.821 58.34 303.409 58.508 303.901 58.844C304.397 59.18 304.729 59.64 304.897 60.224L303.841 60.542C303.705 60.166 303.483 59.874 303.175 59.666C302.871 59.458 302.521 59.354 302.125 59.354C301.681 59.354 301.315 59.458 301.027 59.666C300.739 59.87 300.525 60.154 300.385 60.518C300.245 60.878 300.173 61.292 300.169 61.76C300.177 62.48 300.343 63.062 300.667 63.506C300.995 63.946 301.481 64.166 302.125 64.166C302.549 64.166 302.901 64.07 303.181 63.878C303.461 63.682 303.673 63.4 303.817 63.032L304.897 63.314C304.673 63.918 304.323 64.38 303.847 64.7C303.371 65.02 302.797 65.18 302.125 65.18ZM308.705 65.18C308.061 65.18 307.505 65.034 307.037 64.742C306.573 64.45 306.215 64.046 305.963 63.53C305.711 63.014 305.585 62.422 305.585 61.754C305.585 61.074 305.713 60.478 305.969 59.966C306.225 59.454 306.587 59.056 307.055 58.772C307.523 58.484 308.073 58.34 308.705 58.34C309.353 58.34 309.911 58.486 310.379 58.778C310.847 59.066 311.205 59.468 311.453 59.984C311.705 60.496 311.831 61.086 311.831 61.754C311.831 62.43 311.705 63.026 311.453 63.542C311.201 64.054 310.841 64.456 310.373 64.748C309.905 65.036 309.349 65.18 308.705 65.18ZM308.705 64.166C309.377 64.166 309.877 63.942 310.205 63.494C310.533 63.046 310.697 62.466 310.697 61.754C310.697 61.022 310.531 60.44 310.199 60.008C309.867 59.572 309.369 59.354 308.705 59.354C308.253 59.354 307.881 59.456 307.589 59.66C307.297 59.864 307.079 60.146 306.935 60.506C306.791 60.866 306.719 61.282 306.719 61.754C306.719 62.482 306.887 63.066 307.223 63.506C307.559 63.946 308.053 64.166 308.705 64.166ZM320.899 65L320.905 60.854C320.905 60.37 320.775 59.992 320.515 59.72C320.259 59.444 319.925 59.306 319.513 59.306C319.273 59.306 319.045 59.362 318.829 59.474C318.613 59.582 318.437 59.754 318.301 59.99C318.165 60.222 318.097 60.52 318.097 60.884L317.533 60.656C317.525 60.196 317.619 59.794 317.815 59.45C318.015 59.102 318.287 58.832 318.631 58.64C318.975 58.448 319.363 58.352 319.795 58.352C320.471 58.352 321.003 58.558 321.391 58.97C321.779 59.378 321.973 59.928 321.973 60.62L321.967 65H320.899ZM313.147 65V58.52H314.101V60.254H314.221V65H313.147ZM317.029 65L317.035 60.896C317.035 60.4 316.907 60.012 316.651 59.732C316.395 59.448 316.055 59.306 315.631 59.306C315.211 59.306 314.871 59.45 314.611 59.738C314.351 60.026 314.221 60.408 314.221 60.884L313.657 60.548C313.657 60.128 313.757 59.752 313.957 59.42C314.157 59.088 314.429 58.828 314.773 58.64C315.117 58.448 315.507 58.352 315.943 58.352C316.379 58.352 316.759 58.444 317.083 58.628C317.407 58.812 317.657 59.076 317.833 59.42C318.009 59.76 318.097 60.166 318.097 60.638L318.091 65H317.029Z" fill="white"/>
<path d="M326.024 56.36H327.11L324.806 65H323.72L326.024 56.36ZM330.753 65.174C329.981 65.174 329.347 65.006 328.851 64.67C328.359 64.33 328.057 63.856 327.945 63.248L329.037 63.074C329.125 63.426 329.327 63.706 329.643 63.914C329.959 64.118 330.351 64.22 330.819 64.22C331.263 64.22 331.611 64.128 331.863 63.944C332.115 63.76 332.241 63.51 332.241 63.194C332.241 63.01 332.199 62.862 332.115 62.75C332.031 62.634 331.857 62.526 331.593 62.426C331.333 62.326 330.939 62.206 330.411 62.066C329.839 61.914 329.389 61.756 329.061 61.592C328.733 61.428 328.499 61.238 328.359 61.022C328.219 60.806 328.149 60.544 328.149 60.236C328.149 59.856 328.253 59.524 328.461 59.24C328.669 58.952 328.959 58.73 329.331 58.574C329.707 58.418 330.143 58.34 330.639 58.34C331.131 58.34 331.571 58.418 331.959 58.574C332.347 58.73 332.659 58.952 332.895 59.24C333.135 59.524 333.277 59.856 333.321 60.236L332.229 60.434C332.177 60.086 332.009 59.812 331.725 59.612C331.445 59.412 331.083 59.306 330.639 59.294C330.219 59.278 329.877 59.352 329.613 59.516C329.353 59.68 329.223 59.902 329.223 60.182C329.223 60.338 329.271 60.472 329.367 60.584C329.467 60.696 329.649 60.802 329.913 60.902C330.181 61.002 330.569 61.116 331.077 61.244C331.649 61.388 332.099 61.546 332.427 61.718C332.759 61.886 332.995 62.086 333.135 62.318C333.275 62.546 333.345 62.828 333.345 63.164C333.345 63.788 333.115 64.28 332.655 64.64C332.195 64.996 331.561 65.174 330.753 65.174ZM337.476 65.18C336.84 65.18 336.284 65.04 335.808 64.76C335.336 64.476 334.968 64.082 334.704 63.578C334.44 63.07 334.308 62.478 334.308 61.802C334.308 61.094 334.438 60.482 334.698 59.966C334.958 59.446 335.32 59.046 335.784 58.766C336.252 58.482 336.8 58.34 337.428 58.34C338.08 58.34 338.634 58.49 339.09 58.79C339.55 59.09 339.894 59.518 340.122 60.074C340.354 60.63 340.454 61.292 340.422 62.06H339.342V61.676C339.33 60.88 339.168 60.286 338.856 59.894C338.544 59.498 338.08 59.3 337.464 59.3C336.804 59.3 336.302 59.512 335.958 59.936C335.614 60.36 335.442 60.968 335.442 61.76C335.442 62.524 335.614 63.116 335.958 63.536C336.302 63.956 336.792 64.166 337.428 64.166C337.856 64.166 338.228 64.068 338.544 63.872C338.86 63.676 339.108 63.394 339.288 63.026L340.314 63.38C340.062 63.952 339.682 64.396 339.174 64.712C338.67 65.024 338.104 65.18 337.476 65.18ZM335.082 62.06V61.202H339.87V62.06H335.082ZM343.483 65.18C342.999 65.18 342.593 65.092 342.265 64.916C341.941 64.736 341.695 64.5 341.527 64.208C341.363 63.916 341.281 63.596 341.281 63.248C341.281 62.908 341.345 62.614 341.473 62.366C341.605 62.114 341.789 61.906 342.025 61.742C342.261 61.574 342.543 61.442 342.871 61.346C343.179 61.262 343.523 61.19 343.903 61.13C344.287 61.066 344.675 61.008 345.067 60.956C345.459 60.904 345.825 60.854 346.165 60.806L345.781 61.028C345.793 60.452 345.677 60.026 345.433 59.75C345.193 59.474 344.777 59.336 344.185 59.336C343.793 59.336 343.449 59.426 343.153 59.606C342.861 59.782 342.655 60.07 342.535 60.47L341.521 60.164C341.677 59.596 341.979 59.15 342.427 58.826C342.875 58.502 343.465 58.34 344.197 58.34C344.785 58.34 345.289 58.446 345.709 58.658C346.133 58.866 346.437 59.182 346.621 59.606C346.713 59.806 346.771 60.024 346.795 60.26C346.819 60.492 346.831 60.736 346.831 60.992V65H345.883V63.446L346.105 63.59C345.861 64.114 345.519 64.51 345.079 64.778C344.643 65.046 344.111 65.18 343.483 65.18ZM343.645 64.286C344.029 64.286 344.361 64.218 344.641 64.082C344.925 63.942 345.153 63.76 345.325 63.536C345.497 63.308 345.609 63.06 345.661 62.792C345.721 62.592 345.753 62.37 345.757 62.126C345.765 61.878 345.769 61.688 345.769 61.556L346.141 61.718C345.793 61.766 345.451 61.812 345.115 61.856C344.779 61.9 344.461 61.948 344.161 62C343.861 62.048 343.591 62.106 343.351 62.174C343.175 62.23 343.009 62.302 342.853 62.39C342.701 62.478 342.577 62.592 342.481 62.732C342.389 62.868 342.343 63.038 342.343 63.242C342.343 63.418 342.387 63.586 342.475 63.746C342.567 63.906 342.707 64.036 342.895 64.136C343.087 64.236 343.337 64.286 343.645 64.286ZM348.391 65V58.52H349.345V60.086L349.189 59.882C349.265 59.682 349.363 59.498 349.483 59.33C349.607 59.162 349.745 59.024 349.897 58.916C350.065 58.78 350.255 58.676 350.467 58.604C350.679 58.532 350.895 58.49 351.115 58.478C351.335 58.462 351.541 58.476 351.733 58.52V59.522C351.509 59.462 351.263 59.446 350.995 59.474C350.727 59.502 350.479 59.6 350.251 59.768C350.043 59.916 349.881 60.096 349.765 60.308C349.653 60.52 349.575 60.75 349.531 60.998C349.487 61.242 349.465 61.492 349.465 61.748V65H348.391ZM355.48 65.18C354.824 65.18 354.266 65.034 353.806 64.742C353.35 64.446 353.002 64.04 352.762 63.524C352.522 63.008 352.398 62.42 352.39 61.76C352.398 61.084 352.524 60.49 352.768 59.978C353.016 59.462 353.37 59.06 353.83 58.772C354.29 58.484 354.844 58.34 355.492 58.34C356.176 58.34 356.764 58.508 357.256 58.844C357.752 59.18 358.084 59.64 358.252 60.224L357.196 60.542C357.06 60.166 356.838 59.874 356.53 59.666C356.226 59.458 355.876 59.354 355.48 59.354C355.036 59.354 354.67 59.458 354.382 59.666C354.094 59.87 353.88 60.154 353.74 60.518C353.6 60.878 353.528 61.292 353.524 61.76C353.532 62.48 353.698 63.062 354.022 63.506C354.35 63.946 354.836 64.166 355.48 64.166C355.904 64.166 356.256 64.07 356.536 63.878C356.816 63.682 357.028 63.4 357.172 63.032L358.252 63.314C358.028 63.918 357.678 64.38 357.202 64.7C356.726 65.02 356.152 65.18 355.48 65.18ZM364.091 65V61.754C364.091 61.446 364.063 61.15 364.007 60.866C363.955 60.582 363.861 60.328 363.725 60.104C363.593 59.876 363.413 59.696 363.185 59.564C362.961 59.432 362.677 59.366 362.333 59.366C362.065 59.366 361.821 59.412 361.601 59.504C361.385 59.592 361.199 59.728 361.043 59.912C360.887 60.096 360.765 60.328 360.677 60.608C360.593 60.884 360.551 61.21 360.551 61.586L359.849 61.37C359.849 60.742 359.961 60.204 360.185 59.756C360.413 59.304 360.731 58.958 361.139 58.718C361.551 58.474 362.035 58.352 362.591 58.352C363.011 58.352 363.369 58.418 363.665 58.55C363.961 58.682 364.207 58.858 364.403 59.078C364.599 59.294 364.753 59.538 364.865 59.81C364.977 60.078 365.055 60.352 365.099 60.632C365.147 60.908 365.171 61.17 365.171 61.418V65H364.091ZM359.471 65V56.36H360.431V61.13H360.551V65H359.471Z" fill="#909192"/>
<path d="M326 41H70C74.4 41 78 37.4 78 33V15C78 10.6 81.6 7 86 7H310C314.4 7 318 10.6 318 15V33C318 37.4 321.6 41 326 41Z" fill="#35363A"/>
<g clip-path="url(#clip1_504_26578)">
<path d="M97 30.7812C100.745 30.7812 103.781 27.7452 103.781 24C103.781 20.2548 100.745 17.2188 97 17.2188C93.2548 17.2188 90.2188 20.2548 90.2188 24C90.2188 27.7452 93.2548 30.7812 97 30.7812Z" fill="#FFE662"/>
</g>
<path d="M116.91 29V25.406L114 20.36H115.242L117.45 24.182L119.652 20.36H120.894L117.99 25.406V29H116.91ZM123.53 29.18C122.886 29.18 122.33 29.034 121.862 28.742C121.398 28.45 121.04 28.046 120.788 27.53C120.536 27.014 120.41 26.422 120.41 25.754C120.41 25.074 120.538 24.478 120.794 23.966C121.05 23.454 121.412 23.056 121.88 22.772C122.348 22.484 122.898 22.34 123.53 22.34C124.178 22.34 124.736 22.486 125.204 22.778C125.672 23.066 126.03 23.468 126.278 23.984C126.53 24.496 126.656 25.086 126.656 25.754C126.656 26.43 126.53 27.026 126.278 27.542C126.026 28.054 125.666 28.456 125.198 28.748C124.73 29.036 124.174 29.18 123.53 29.18ZM123.53 28.166C124.202 28.166 124.702 27.942 125.03 27.494C125.358 27.046 125.522 26.466 125.522 25.754C125.522 25.022 125.356 24.44 125.024 24.008C124.692 23.572 124.194 23.354 123.53 23.354C123.078 23.354 122.706 23.456 122.414 23.66C122.122 23.864 121.904 24.146 121.76 24.506C121.616 24.866 121.544 25.282 121.544 25.754C121.544 26.482 121.712 27.066 122.048 27.506C122.384 27.946 122.878 28.166 123.53 28.166ZM130.437 29.168C130.021 29.168 129.663 29.102 129.363 28.97C129.067 28.838 128.821 28.662 128.625 28.442C128.429 28.222 128.275 27.978 128.163 27.71C128.051 27.442 127.971 27.168 127.923 26.888C127.879 26.608 127.857 26.346 127.857 26.102V22.52H128.937V25.766C128.937 26.07 128.965 26.364 129.021 26.648C129.077 26.932 129.171 27.188 129.303 27.416C129.439 27.644 129.619 27.824 129.843 27.956C130.071 28.088 130.355 28.154 130.695 28.154C130.963 28.154 131.207 28.108 131.427 28.016C131.647 27.924 131.835 27.788 131.991 27.608C132.147 27.424 132.267 27.192 132.351 26.912C132.435 26.632 132.477 26.306 132.477 25.934L133.179 26.15C133.179 26.774 133.065 27.312 132.837 27.764C132.613 28.216 132.295 28.564 131.883 28.808C131.475 29.048 130.993 29.168 130.437 29.168ZM132.597 29V27.266H132.477V22.52H133.551V29H132.597ZM135.231 29V22.52H136.185V24.086L136.029 23.882C136.105 23.682 136.203 23.498 136.323 23.33C136.447 23.162 136.585 23.024 136.737 22.916C136.905 22.78 137.095 22.676 137.307 22.604C137.519 22.532 137.735 22.49 137.955 22.478C138.175 22.462 138.381 22.476 138.573 22.52V23.522C138.349 23.462 138.103 23.446 137.835 23.474C137.567 23.502 137.319 23.6 137.091 23.768C136.883 23.916 136.721 24.096 136.605 24.308C136.493 24.52 136.415 24.75 136.371 24.998C136.327 25.242 136.305 25.492 136.305 25.748V29H135.231ZM143.952 29L141.45 20.36H142.566L144.486 27.194L146.4 20.366L147.522 20.36L149.442 27.194L151.356 20.36H152.478L149.976 29H148.908L146.964 22.226L145.02 29H143.952ZM155.593 29.18C154.957 29.18 154.401 29.04 153.925 28.76C153.453 28.476 153.085 28.082 152.821 27.578C152.557 27.07 152.425 26.478 152.425 25.802C152.425 25.094 152.555 24.482 152.815 23.966C153.075 23.446 153.437 23.046 153.901 22.766C154.369 22.482 154.917 22.34 155.545 22.34C156.197 22.34 156.751 22.49 157.207 22.79C157.667 23.09 158.011 23.518 158.239 24.074C158.471 24.63 158.571 25.292 158.539 26.06H157.459V25.676C157.447 24.88 157.285 24.286 156.973 23.894C156.661 23.498 156.197 23.3 155.581 23.3C154.921 23.3 154.419 23.512 154.075 23.936C153.731 24.36 153.559 24.968 153.559 25.76C153.559 26.524 153.731 27.116 154.075 27.536C154.419 27.956 154.909 28.166 155.545 28.166C155.973 28.166 156.345 28.068 156.661 27.872C156.977 27.676 157.225 27.394 157.405 27.026L158.431 27.38C158.179 27.952 157.799 28.396 157.291 28.712C156.787 29.024 156.221 29.18 155.593 29.18ZM153.199 26.06V25.202H157.987V26.06H153.199ZM162.851 29.18C162.243 29.18 161.731 29.03 161.315 28.73C160.899 28.426 160.583 28.016 160.367 27.5C160.155 26.98 160.049 26.398 160.049 25.754C160.049 25.102 160.155 24.518 160.367 24.002C160.583 23.486 160.899 23.08 161.315 22.784C161.735 22.488 162.249 22.34 162.857 22.34C163.457 22.34 163.973 22.49 164.405 22.79C164.841 23.086 165.175 23.492 165.407 24.008C165.639 24.524 165.755 25.106 165.755 25.754C165.755 26.402 165.639 26.984 165.407 27.5C165.175 28.016 164.841 28.426 164.405 28.73C163.973 29.03 163.455 29.18 162.851 29.18ZM159.869 29V20.36H160.943V24.23H160.823V29H159.869ZM162.719 28.202C163.147 28.202 163.501 28.094 163.781 27.878C164.061 27.662 164.271 27.37 164.411 27.002C164.551 26.63 164.621 26.214 164.621 25.754C164.621 25.298 164.551 24.886 164.411 24.518C164.275 24.15 164.063 23.858 163.775 23.642C163.491 23.426 163.129 23.318 162.689 23.318C162.269 23.318 161.921 23.422 161.645 23.63C161.369 23.834 161.163 24.12 161.027 24.488C160.891 24.852 160.823 25.274 160.823 25.754C160.823 26.226 160.889 26.648 161.021 27.02C161.157 27.388 161.365 27.678 161.645 27.89C161.925 28.098 162.283 28.202 162.719 28.202ZM169.425 29.174C168.653 29.174 168.019 29.006 167.523 28.67C167.031 28.33 166.729 27.856 166.617 27.248L167.709 27.074C167.797 27.426 167.999 27.706 168.315 27.914C168.631 28.118 169.023 28.22 169.491 28.22C169.935 28.22 170.283 28.128 170.535 27.944C170.787 27.76 170.913 27.51 170.913 27.194C170.913 27.01 170.871 26.862 170.787 26.75C170.703 26.634 170.529 26.526 170.265 26.426C170.005 26.326 169.611 26.206 169.083 26.066C168.511 25.914 168.061 25.756 167.733 25.592C167.405 25.428 167.171 25.238 167.031 25.022C166.891 24.806 166.821 24.544 166.821 24.236C166.821 23.856 166.925 23.524 167.133 23.24C167.341 22.952 167.631 22.73 168.003 22.574C168.379 22.418 168.815 22.34 169.311 22.34C169.803 22.34 170.243 22.418 170.631 22.574C171.019 22.73 171.331 22.952 171.567 23.24C171.807 23.524 171.949 23.856 171.993 24.236L170.901 24.434C170.849 24.086 170.681 23.812 170.397 23.612C170.117 23.412 169.755 23.306 169.311 23.294C168.891 23.278 168.549 23.352 168.285 23.516C168.025 23.68 167.895 23.902 167.895 24.182C167.895 24.338 167.943 24.472 168.039 24.584C168.139 24.696 168.321 24.802 168.585 24.902C168.853 25.002 169.241 25.116 169.749 25.244C170.321 25.388 170.771 25.546 171.099 25.718C171.431 25.886 171.667 26.086 171.807 26.318C171.947 26.546 172.017 26.828 172.017 27.164C172.017 27.788 171.787 28.28 171.327 28.64C170.867 28.996 170.233 29.174 169.425 29.174ZM173.46 21.374V20.27H174.528V21.374H173.46ZM173.46 29V22.52H174.528V29H173.46ZM179.946 29C179.562 29.076 179.182 29.106 178.806 29.09C178.434 29.078 178.102 29.004 177.81 28.868C177.518 28.728 177.296 28.512 177.144 28.22C177.016 27.964 176.946 27.706 176.934 27.446C176.926 27.182 176.922 26.884 176.922 26.552V20.72H177.99V26.504C177.99 26.768 177.992 26.994 177.996 27.182C178.004 27.37 178.046 27.532 178.122 27.668C178.266 27.924 178.494 28.074 178.806 28.118C179.122 28.162 179.502 28.15 179.946 28.082V29ZM175.608 23.402V22.52H179.946V23.402H175.608ZM183.8 29.18C183.164 29.18 182.608 29.04 182.132 28.76C181.66 28.476 181.292 28.082 181.028 27.578C180.764 27.07 180.632 26.478 180.632 25.802C180.632 25.094 180.762 24.482 181.022 23.966C181.282 23.446 181.644 23.046 182.108 22.766C182.576 22.482 183.124 22.34 183.752 22.34C184.404 22.34 184.958 22.49 185.414 22.79C185.874 23.09 186.218 23.518 186.446 24.074C186.678 24.63 186.778 25.292 186.746 26.06H185.666V25.676C185.654 24.88 185.492 24.286 185.18 23.894C184.868 23.498 184.404 23.3 183.788 23.3C183.128 23.3 182.626 23.512 182.282 23.936C181.938 24.36 181.766 24.968 181.766 25.76C181.766 26.524 181.938 27.116 182.282 27.536C182.626 27.956 183.116 28.166 183.752 28.166C184.18 28.166 184.552 28.068 184.868 27.872C185.184 27.676 185.432 27.394 185.612 27.026L186.638 27.38C186.386 27.952 186.006 28.396 185.498 28.712C184.994 29.024 184.428 29.18 183.8 29.18ZM181.406 26.06V25.202H186.194V26.06H181.406ZM192.887 29V20.36H193.967L198.473 27.11V20.36H199.553V29H198.473L193.967 22.244V29H192.887ZM203.073 29.18C202.589 29.18 202.183 29.092 201.855 28.916C201.531 28.736 201.285 28.5 201.117 28.208C200.953 27.916 200.871 27.596 200.871 27.248C200.871 26.908 200.935 26.614 201.063 26.366C201.195 26.114 201.379 25.906 201.615 25.742C201.851 25.574 202.133 25.442 202.461 25.346C202.769 25.262 203.113 25.19 203.493 25.13C203.877 25.066 204.265 25.008 204.657 24.956C205.049 24.904 205.415 24.854 205.755 24.806L205.371 25.028C205.383 24.452 205.267 24.026 205.023 23.75C204.783 23.474 204.367 23.336 203.775 23.336C203.383 23.336 203.039 23.426 202.743 23.606C202.451 23.782 202.245 24.07 202.125 24.47L201.111 24.164C201.267 23.596 201.569 23.15 202.017 22.826C202.465 22.502 203.055 22.34 203.787 22.34C204.375 22.34 204.879 22.446 205.299 22.658C205.723 22.866 206.027 23.182 206.211 23.606C206.303 23.806 206.361 24.024 206.385 24.26C206.409 24.492 206.421 24.736 206.421 24.992V29H205.473V27.446L205.695 27.59C205.451 28.114 205.109 28.51 204.669 28.778C204.233 29.046 203.701 29.18 203.073 29.18ZM203.235 28.286C203.619 28.286 203.951 28.218 204.231 28.082C204.515 27.942 204.743 27.76 204.915 27.536C205.087 27.308 205.199 27.06 205.251 26.792C205.311 26.592 205.343 26.37 205.347 26.126C205.355 25.878 205.359 25.688 205.359 25.556L205.731 25.718C205.383 25.766 205.041 25.812 204.705 25.856C204.369 25.9 204.051 25.948 203.751 26C203.451 26.048 203.181 26.106 202.941 26.174C202.765 26.23 202.599 26.302 202.443 26.39C202.291 26.478 202.167 26.592 202.071 26.732C201.979 26.868 201.933 27.038 201.933 27.242C201.933 27.418 201.977 27.586 202.065 27.746C202.157 27.906 202.297 28.036 202.485 28.136C202.677 28.236 202.927 28.286 203.235 28.286ZM215.727 29L215.733 24.854C215.733 24.37 215.603 23.992 215.343 23.72C215.087 23.444 214.753 23.306 214.341 23.306C214.101 23.306 213.873 23.362 213.657 23.474C213.441 23.582 213.265 23.754 213.129 23.99C212.993 24.222 212.925 24.52 212.925 24.884L212.361 24.656C212.353 24.196 212.447 23.794 212.643 23.45C212.843 23.102 213.115 22.832 213.459 22.64C213.803 22.448 214.191 22.352 214.623 22.352C215.299 22.352 215.831 22.558 216.219 22.97C216.607 23.378 216.801 23.928 216.801 24.62L216.795 29H215.727ZM207.975 29V22.52H208.929V24.254H209.049V29H207.975ZM211.857 29L211.863 24.896C211.863 24.4 211.735 24.012 211.479 23.732C211.223 23.448 210.883 23.306 210.459 23.306C210.039 23.306 209.699 23.45 209.439 23.738C209.179 24.026 209.049 24.408 209.049 24.884L208.485 24.548C208.485 24.128 208.585 23.752 208.785 23.42C208.985 23.088 209.257 22.828 209.601 22.64C209.945 22.448 210.335 22.352 210.771 22.352C211.207 22.352 211.587 22.444 211.911 22.628C212.235 22.812 212.485 23.076 212.661 23.42C212.837 23.76 212.925 24.166 212.925 24.638L212.919 29H211.857ZM221.113 29.18C220.477 29.18 219.921 29.04 219.445 28.76C218.973 28.476 218.605 28.082 218.341 27.578C218.077 27.07 217.945 26.478 217.945 25.802C217.945 25.094 218.075 24.482 218.335 23.966C218.595 23.446 218.957 23.046 219.421 22.766C219.889 22.482 220.437 22.34 221.065 22.34C221.717 22.34 222.271 22.49 222.727 22.79C223.187 23.09 223.531 23.518 223.759 24.074C223.991 24.63 224.091 25.292 224.059 26.06H222.979V25.676C222.967 24.88 222.805 24.286 222.493 23.894C222.181 23.498 221.717 23.3 221.101 23.3C220.441 23.3 219.939 23.512 219.595 23.936C219.251 24.36 219.079 24.968 219.079 25.76C219.079 26.524 219.251 27.116 219.595 27.536C219.939 27.956 220.429 28.166 221.065 28.166C221.493 28.166 221.865 28.068 222.181 27.872C222.497 27.676 222.745 27.394 222.925 27.026L223.951 27.38C223.699 27.952 223.319 28.396 222.811 28.712C222.307 29.024 221.741 29.18 221.113 29.18ZM218.719 26.06V25.202H223.507V26.06H218.719Z" fill="white"/>
<path d="M300 21L306 27M300 27L306 21" stroke="#F1F3F4" stroke-width="1.3" stroke-linecap="round" stroke-linejoin="round"/>
</g>
<path d="M0 79H870V577C870 584.18 864.18 590 857 590H13C5.8203 590 0 584.18 0 577V79Z" fill="#D9D9D9" fill-opacity="0.16"/>
<defs>
<clipPath id="clip0_504_26578">
<rect width="870" height="112" rx="7" fill="white"/>
</clipPath>
<clipPath id="clip1_504_26578">
<rect width="14" height="14" fill="white" transform="translate(90 17)"/>
</clipPath>
</defs>
</svg>
