<svg width="878" height="756" viewBox="0 0 878 756" fill="none" xmlns="http://www.w3.org/2000/svg">
<g clip-path="url(#clip0_395_29245)">
<path d="M718.432 180.868C674.743 81.25 569.874 43.7418 487.132 110.628C454.821 136.722 434.662 178.251 395.1 194.916C357.978 210.544 310.952 205.944 270.81 214.407C185.328 232.319 70.2397 300.276 79.0197 404.986C82.8654 450.853 113.806 501.794 129.101 544.711C146.661 594.09 157.197 655.866 203.678 685.384C283.365 736.062 379.489 694.638 451.274 653.776C489.906 631.809 511.171 618.305 552.771 625.838C591.28 632.862 625.961 657.446 663.592 628.279C691.846 606.382 694.182 562.008 717.905 535.949C744.632 506.588 771.727 504.464 785.617 460.335C802.457 406.795 777.644 373.343 760.875 325.51C744.105 277.676 739.012 227.736 718.432 180.868Z" fill="#FFC100"/>
<g opacity="0.7">
<path d="M752.85 134.754C702.95 20.9238 583.174 -21.9355 488.669 54.493C451.765 84.3099 428.741 131.764 383.554 150.806C341.155 168.664 287.444 163.407 241.596 173.079C143.962 193.545 12.513 271.198 22.5412 390.847C26.9335 443.257 62.2726 501.466 79.7416 550.506C99.7979 606.929 111.832 677.519 164.921 711.248C255.936 769.157 365.724 721.823 447.714 675.131C491.838 650.029 516.126 634.599 563.639 643.207C607.622 651.233 647.234 679.324 690.214 645.996C722.485 620.975 725.152 570.27 752.248 540.493C782.774 506.944 813.721 504.516 829.585 454.092C848.819 392.913 820.48 354.689 801.326 300.031C782.172 245.374 776.356 188.308 752.85 134.754Z" fill="#FFE662"/>
</g>
<path d="M590.054 109H317.119C298.276 109 283 124.276 283 143.119V719.333C283 738.176 298.276 753.452 317.119 753.452H590.054C608.898 753.452 624.173 738.176 624.173 719.333V143.119C624.173 124.276 608.898 109 590.054 109Z" fill="#263238"/>
<path d="M608.911 179.393H298.063V682.311H608.911V179.393Z" fill="white" stroke="#263238" stroke-width="1.33739" stroke-miterlimit="10"/>
<path d="M501.139 383.039C527.451 356.727 527.451 314.065 501.139 287.753C474.826 261.44 432.165 261.44 405.852 287.753C379.54 314.065 379.54 356.727 405.852 383.039C432.165 409.352 474.826 409.352 501.139 383.039Z" fill="#FFC100"/>
<path d="M541.954 650.686H365.055C364.656 650.688 364.262 650.612 363.893 650.461C363.525 650.31 363.19 650.088 362.907 649.808C362.625 649.527 362.401 649.193 362.248 648.826C362.095 648.458 362.017 648.064 362.017 647.666C362.014 647.266 362.091 646.87 362.243 646.5C362.395 646.131 362.619 645.795 362.901 645.512C363.184 645.23 363.52 645.006 363.889 644.854C364.259 644.702 364.655 644.625 365.055 644.628H541.954C542.352 644.628 542.746 644.706 543.114 644.859C543.481 645.012 543.815 645.236 544.096 645.519C544.377 645.801 544.599 646.136 544.749 646.504C544.9 646.873 544.977 647.267 544.974 647.666C544.974 648.467 544.656 649.235 544.09 649.801C543.523 650.368 542.755 650.686 541.954 650.686Z" fill="#FFC100"/>
<path d="M547.714 440.651H359.278C355.389 440.651 352.236 443.803 352.236 447.692V469.906C352.236 473.795 355.389 476.947 359.278 476.947H547.714C551.603 476.947 554.756 473.795 554.756 469.906V447.692C554.756 443.803 551.603 440.651 547.714 440.651Z" fill="#FFC100"/>
<path d="M547.714 508.538H359.278C355.389 508.538 352.236 511.69 352.236 515.579V537.793C352.236 541.682 355.389 544.834 359.278 544.834H547.714C551.603 544.834 554.756 541.682 554.756 537.793V515.579C554.756 511.69 551.603 508.538 547.714 508.538Z" fill="#FFC100"/>
<path d="M487.044 369.006L467.219 357.592V348.162C470.089 344.689 472.169 340.632 473.312 336.274C473.994 336.516 474.713 336.641 475.437 336.643C477.895 336.643 479.458 329.022 479.721 323.578C482.584 317.52 478.685 313.973 478.685 313.973C478.685 313.973 480.301 312.357 481.372 305.878C482.443 299.398 477.597 302.102 473.821 296.167C470.046 290.232 467.342 283.77 454.944 283.77C451.528 283.657 448.157 284.575 445.27 286.404C442.383 288.233 440.112 290.888 438.754 294.025C435.668 294.036 432.593 294.395 429.588 295.096C425.795 296.167 424.724 308.582 427.955 313.446C429.401 316.104 430.173 319.077 430.202 322.103C429.342 321.05 428.446 320.769 427.955 323.157C426.883 328.548 431.203 336.098 431.203 336.098L433.433 335.466C434.557 340.124 436.724 344.465 439.772 348.162V357.592L419.947 369.006C417.632 370.343 415.709 372.265 414.371 374.58C413.034 376.894 412.328 379.52 412.326 382.193V388.726C424.117 397.835 438.596 402.776 453.496 402.776C468.395 402.776 482.874 397.835 494.665 388.726V382.193C494.666 379.519 493.963 376.892 492.625 374.577C491.287 372.261 489.362 370.34 487.044 369.006Z" fill="#263238"/>
<path d="M377.891 535.808C377.436 535.802 377.002 535.619 376.679 535.299C376.506 535.145 376.368 534.955 376.275 534.743C376.181 534.531 376.133 534.302 376.135 534.07C376.14 533.753 376.231 533.444 376.398 533.174L379.559 528.117L373.395 528.31C373.163 528.325 372.93 528.29 372.713 528.208C372.495 528.127 372.296 528 372.131 527.836C371.845 527.514 371.687 527.099 371.687 526.668C371.687 526.238 371.845 525.822 372.131 525.501C372.293 525.331 372.49 525.199 372.708 525.114C372.927 525.029 373.161 524.993 373.395 525.009L379.471 525.237L376.345 520.197C376.175 519.923 376.084 519.607 376.082 519.284C376.08 519.053 376.128 518.823 376.222 518.611C376.316 518.399 376.454 518.21 376.626 518.055C376.949 517.735 377.383 517.552 377.838 517.546C378.137 517.548 378.43 517.635 378.682 517.796C378.933 517.958 379.134 518.188 379.26 518.459L382.263 523.885L385.231 518.494C385.372 518.206 385.588 517.963 385.858 517.79C386.127 517.616 386.438 517.52 386.759 517.511C386.98 517.512 387.2 517.56 387.402 517.65C387.605 517.741 387.786 517.873 387.935 518.038C388.257 518.372 388.434 518.82 388.427 519.284C388.426 519.586 388.347 519.882 388.198 520.145L385.02 525.237L391.184 525.009C391.418 524.993 391.652 525.029 391.871 525.114C392.089 525.199 392.286 525.331 392.448 525.501C392.747 525.811 392.911 526.228 392.905 526.66C392.903 527.095 392.741 527.514 392.448 527.836C392.283 528 392.084 528.127 391.867 528.208C391.649 528.29 391.416 528.325 391.184 528.31L384.985 528.117L388.076 533.122C388.249 533.401 388.34 533.724 388.339 534.052C388.339 534.518 388.154 534.965 387.825 535.294C387.495 535.623 387.049 535.808 386.583 535.808C386.282 535.804 385.989 535.712 385.739 535.544C385.489 535.375 385.294 535.138 385.178 534.86L382.246 529.592L379.331 534.86C379.201 535.135 378.998 535.37 378.744 535.537C378.49 535.704 378.195 535.798 377.891 535.808Z" fill="#263238"/>
<path d="M406.374 535.808C405.919 535.802 405.485 535.619 405.162 535.299C404.989 535.145 404.851 534.955 404.757 534.743C404.664 534.531 404.616 534.302 404.618 534.07C404.623 533.753 404.714 533.444 404.881 533.174L408.042 528.117L401.896 528.31C401.661 528.321 401.427 528.284 401.207 528.203C400.987 528.122 400.785 527.997 400.614 527.836C400.381 527.596 400.226 527.291 400.168 526.961C400.111 526.631 400.154 526.291 400.292 525.986C400.431 525.681 400.658 525.425 400.944 525.25C401.23 525.076 401.561 524.992 401.896 525.009L407.954 525.237L404.828 520.197C404.658 519.923 404.567 519.607 404.565 519.284C404.563 519.053 404.611 518.823 404.705 518.611C404.799 518.399 404.937 518.21 405.109 518.055C405.432 517.735 405.866 517.552 406.321 517.546C406.62 517.548 406.913 517.635 407.164 517.796C407.416 517.958 407.617 518.188 407.743 518.459L410.746 523.885L413.714 518.494C413.854 518.206 414.071 517.963 414.34 517.79C414.61 517.616 414.921 517.52 415.241 517.511C415.464 517.51 415.684 517.556 415.887 517.647C416.089 517.738 416.271 517.871 416.418 518.038C416.581 518.202 416.709 518.396 416.797 518.61C416.884 518.824 416.929 519.053 416.927 519.284C416.921 519.588 416.836 519.884 416.681 520.145L413.503 525.237L419.684 525.044C419.915 525.028 420.147 525.064 420.363 525.149C420.578 525.234 420.773 525.366 420.931 525.536C421.23 525.847 421.394 526.263 421.387 526.695C421.386 527.13 421.224 527.549 420.931 527.871C420.769 528.034 420.574 528.161 420.359 528.243C420.144 528.325 419.914 528.36 419.684 528.345L413.468 528.152L416.558 533.157C416.732 533.436 416.823 533.759 416.822 534.087C416.822 534.553 416.637 535 416.307 535.329C415.978 535.658 415.532 535.843 415.066 535.843C414.765 535.839 414.471 535.748 414.222 535.579C413.972 535.411 413.777 535.173 413.661 534.895L410.728 529.627L407.814 534.895C407.679 535.164 407.474 535.391 407.221 535.552C406.967 535.713 406.674 535.802 406.374 535.808Z" fill="#263238"/>
<path d="M434.874 535.808C434.413 535.806 433.972 535.623 433.644 535.299C433.472 535.145 433.334 534.955 433.24 534.743C433.146 534.531 433.098 534.302 433.1 534.07C433.105 533.753 433.196 533.444 433.363 533.174L436.524 528.117L430.378 528.31C430.047 528.323 429.72 528.238 429.438 528.064C429.156 527.891 428.932 527.637 428.794 527.336C428.657 527.034 428.612 526.699 428.666 526.372C428.72 526.045 428.87 525.742 429.096 525.501C429.262 525.331 429.463 525.2 429.684 525.115C429.905 525.03 430.142 524.994 430.378 525.009L436.436 525.237L433.311 520.197C433.141 519.923 433.05 519.607 433.047 519.284C433.053 519.054 433.104 518.827 433.197 518.616C433.291 518.405 433.425 518.214 433.592 518.055C433.919 517.731 434.36 517.548 434.821 517.546C435.117 517.551 435.406 517.64 435.654 517.801C435.903 517.962 436.101 518.19 436.226 518.459L439.229 523.885L442.196 518.494C442.337 518.206 442.554 517.963 442.823 517.79C443.092 517.616 443.404 517.52 443.724 517.511C443.946 517.51 444.166 517.556 444.369 517.647C444.572 517.738 444.753 517.871 444.9 518.038C445.063 518.202 445.192 518.396 445.279 518.61C445.367 518.824 445.411 519.053 445.41 519.284C445.403 519.588 445.319 519.884 445.164 520.145L441.985 525.237L448.167 525.009C448.394 524.986 448.623 525.012 448.84 525.086C449.056 525.159 449.254 525.278 449.42 525.435C449.587 525.591 449.718 525.781 449.804 525.993C449.891 526.204 449.931 526.431 449.923 526.66C449.926 527.092 449.77 527.511 449.484 527.836C449.318 528 449.12 528.127 448.902 528.208C448.684 528.29 448.452 528.325 448.219 528.31L442.021 528.117L445.094 533.122C445.267 533.401 445.358 533.724 445.357 534.052C445.351 534.283 445.3 534.51 445.207 534.721C445.114 534.932 444.98 535.122 444.813 535.281C444.66 535.446 444.475 535.577 444.27 535.668C444.065 535.758 443.843 535.806 443.619 535.808C443.32 535.803 443.029 535.711 442.783 535.542C442.536 535.373 442.345 535.136 442.231 534.86L439.281 529.592L436.366 534.86C436.235 535.145 436.024 535.386 435.759 535.554C435.495 535.722 435.187 535.81 434.874 535.808Z" fill="#263238"/>
<path d="M463.356 535.808C462.895 535.806 462.453 535.623 462.126 535.299C461.796 534.975 461.606 534.533 461.6 534.07C461.594 533.754 461.679 533.443 461.845 533.174L465.006 528.117L458.86 528.31C458.626 528.321 458.391 528.284 458.171 528.203C457.951 528.122 457.749 527.997 457.578 527.836C457.292 527.514 457.134 527.099 457.134 526.668C457.134 526.238 457.292 525.822 457.578 525.501C457.748 525.337 457.949 525.209 458.169 525.124C458.389 525.04 458.624 525.001 458.86 525.009L464.936 525.237L461.828 520.197C461.658 519.923 461.567 519.607 461.564 519.284C461.57 519.054 461.621 518.827 461.714 518.616C461.808 518.405 461.942 518.214 462.109 518.055C462.436 517.731 462.877 517.548 463.338 517.546C463.637 517.548 463.93 517.635 464.182 517.796C464.433 517.958 464.634 518.188 464.76 518.459L467.746 523.885L470.713 518.494C470.854 518.206 471.071 517.963 471.34 517.79C471.609 517.616 471.921 517.52 472.241 517.511C472.463 517.51 472.683 517.556 472.886 517.647C473.089 517.738 473.27 517.871 473.417 518.038C473.58 518.202 473.709 518.396 473.796 518.61C473.884 518.824 473.928 519.053 473.927 519.284C473.92 519.588 473.836 519.884 473.681 520.145L470.502 525.237L476.684 525.009C476.911 524.986 477.14 525.012 477.357 525.086C477.573 525.159 477.771 525.278 477.937 525.435C478.104 525.591 478.235 525.781 478.321 525.993C478.408 526.204 478.448 526.431 478.44 526.66C478.443 527.092 478.287 527.511 478.001 527.836C477.835 528 477.637 528.127 477.419 528.208C477.201 528.29 476.969 528.325 476.736 528.31L470.538 528.117L473.611 533.122C473.784 533.401 473.875 533.724 473.874 534.052C473.876 534.284 473.828 534.514 473.734 534.725C473.64 534.937 473.502 535.127 473.33 535.281C473.177 535.446 472.992 535.577 472.787 535.668C472.582 535.758 472.36 535.806 472.136 535.808C471.837 535.803 471.546 535.711 471.3 535.542C471.053 535.373 470.862 535.136 470.748 534.86L467.798 529.592L464.883 534.86C464.749 535.15 464.533 535.395 464.262 535.563C463.99 535.732 463.675 535.817 463.356 535.808Z" fill="#263238"/>
<path d="M491.838 535.808C491.377 535.806 490.936 535.623 490.609 535.299C490.337 535.023 490.163 534.666 490.116 534.281C490.068 533.897 490.149 533.508 490.345 533.174L493.489 528.117L487.343 528.31C487.108 528.321 486.874 528.284 486.654 528.203C486.434 528.122 486.232 527.997 486.061 527.836C485.774 527.514 485.616 527.099 485.616 526.668C485.616 526.238 485.774 525.822 486.061 525.501C486.23 525.337 486.431 525.209 486.652 525.124C486.872 525.04 487.107 525.001 487.343 525.009L493.418 525.237L490.293 520.197C490.123 519.923 490.032 519.607 490.029 519.284C490.036 518.821 490.225 518.379 490.556 518.055C490.883 517.731 491.325 517.548 491.785 517.546C492.085 517.548 492.377 517.635 492.629 517.796C492.881 517.958 493.081 518.188 493.208 518.459L496.193 523.885L499.161 518.494C499.301 518.206 499.518 517.963 499.787 517.79C500.057 517.616 500.368 517.52 500.688 517.511C500.913 517.51 501.136 517.556 501.341 517.647C501.547 517.737 501.732 517.871 501.882 518.038C502.205 518.372 502.381 518.82 502.374 519.284C502.368 519.588 502.283 519.884 502.128 520.145L498.95 525.237L505.131 525.009C505.358 524.986 505.588 525.012 505.804 525.086C506.02 525.159 506.218 525.278 506.385 525.435C506.551 525.591 506.682 525.781 506.769 525.993C506.855 526.204 506.896 526.431 506.887 526.66C506.891 527.092 506.734 527.511 506.448 527.836C506.283 528 506.084 528.127 505.866 528.208C505.649 528.29 505.416 528.325 505.184 528.31L498.985 528.117L502.058 533.122C502.231 533.401 502.322 533.724 502.321 534.052C502.323 534.284 502.275 534.514 502.181 534.725C502.088 534.937 501.95 535.127 501.777 535.281C501.624 535.446 501.44 535.577 501.234 535.668C501.029 535.758 500.807 535.806 500.583 535.808C500.284 535.803 499.994 535.711 499.747 535.542C499.501 535.373 499.309 535.136 499.196 534.86L496.246 529.592L493.331 534.86C493.199 535.145 492.988 535.386 492.724 535.554C492.459 535.722 492.152 535.81 491.838 535.808Z" fill="#263238"/>
<path d="M520.321 535.808C519.866 535.802 519.432 535.619 519.109 535.299C518.936 535.145 518.799 534.955 518.705 534.743C518.611 534.531 518.563 534.302 518.565 534.07C518.57 533.753 518.661 533.444 518.828 533.174L521.971 528.117L515.825 528.31C515.599 528.327 515.372 528.297 515.159 528.222C514.945 528.146 514.749 528.027 514.584 527.872C514.419 527.716 514.288 527.528 514.199 527.32C514.111 527.111 514.066 526.886 514.069 526.66C514.068 526.445 514.11 526.232 514.191 526.033C514.272 525.834 514.392 525.653 514.544 525.501C514.705 525.331 514.903 525.199 515.121 525.114C515.34 525.029 515.574 524.993 515.808 525.009L521.884 525.237L518.758 520.197C518.588 519.923 518.497 519.607 518.495 519.284C518.501 518.821 518.691 518.379 519.021 518.055C519.348 517.731 519.79 517.548 520.251 517.546C520.55 517.548 520.842 517.635 521.094 517.796C521.346 517.958 521.547 518.188 521.673 518.459L524.658 523.885L527.643 518.494C527.783 518.209 527.997 517.967 528.263 517.794C528.529 517.621 528.836 517.523 529.154 517.511C529.378 517.51 529.601 517.556 529.807 517.647C530.013 517.737 530.197 517.871 530.348 518.038C530.67 518.372 530.847 518.82 530.839 519.284C530.838 519.586 530.76 519.882 530.611 520.145L527.433 525.237L533.596 525.009C533.83 524.993 534.065 525.029 534.283 525.114C534.502 525.199 534.699 525.331 534.861 525.501C535.16 525.811 535.324 526.228 535.317 526.66C535.316 527.095 535.153 527.514 534.861 527.836C534.695 528 534.497 528.127 534.279 528.208C534.061 528.29 533.828 528.325 533.596 528.31L527.398 528.117L530.471 533.122C530.644 533.401 530.735 533.724 530.734 534.052C530.727 534.515 530.538 534.957 530.207 535.281C529.887 535.608 529.453 535.797 528.995 535.808C528.697 535.803 528.406 535.711 528.16 535.542C527.913 535.373 527.721 535.136 527.608 534.86L524.658 529.592L521.743 534.86C521.617 535.134 521.417 535.368 521.166 535.535C520.915 535.703 520.622 535.797 520.321 535.808Z" fill="#263238"/>
<g style="mix-blend-mode:multiply">
<path d="M608.911 180.06H298.063V199.534H608.911V180.06Z" fill="#FFC100"/>
</g>
<path d="M487.29 144.185H419.684C418.464 144.185 417.293 143.701 416.431 142.838C415.568 141.975 415.083 140.805 415.083 139.585C415.083 138.364 415.568 137.194 416.431 136.331C417.293 135.469 418.464 134.984 419.684 134.984H487.29C488.51 134.984 489.68 135.469 490.543 136.331C491.406 137.194 491.89 138.364 491.89 139.585C491.89 140.805 491.406 141.975 490.543 142.838C489.68 143.701 488.51 144.185 487.29 144.185Z" fill="#FFC100" stroke="#263238" stroke-width="1.33739" stroke-linecap="round" stroke-linejoin="round"/>
<path d="M471.925 710.723C471.928 707.075 470.849 703.508 468.825 700.473C466.8 697.438 463.921 695.072 460.551 693.675C457.181 692.277 453.472 691.91 449.894 692.621C446.316 693.332 443.029 695.089 440.449 697.668C437.87 700.248 436.113 703.535 435.402 707.113C434.691 710.691 435.058 714.4 436.456 717.77C437.853 721.14 440.219 724.019 443.254 726.044C446.289 728.068 449.856 729.147 453.504 729.144C458.388 729.139 463.071 727.197 466.524 723.743C469.978 720.29 471.92 715.607 471.925 710.723Z" fill="#FFC100"/>
<path d="M462.847 701.382H444.163V720.065H462.847V701.382Z" fill="#FFC100" stroke="#263238" stroke-width="1.33739" stroke-linecap="round" stroke-linejoin="round"/>
<path d="M676.06 498.704C676.06 498.704 651.581 436.506 673.373 429.114C696.06 421.405 695.06 462.478 694.182 482.496C692.338 525.272 687.614 533.227 684.085 522.779L676.06 498.704ZM668.702 547.222C675.427 556.002 677.324 546.906 665.19 505.833C659.501 486.517 647.138 447.446 628.174 462.109C609.964 476.157 653.302 527.081 653.302 527.081L668.702 547.222ZM655.708 582.869C662.117 588.558 662.24 581.376 647.015 551.718C639.868 537.828 624.749 509.714 612.37 523.622C600.481 537.037 640.992 569.646 640.992 569.646L655.708 582.869ZM641.66 625.259C648.069 630.966 648.192 623.766 632.967 594.125C625.82 580.235 610.701 552.104 598.322 566.029C586.504 579.48 626.892 612.089 626.892 612.089L641.66 625.259ZM682.223 538.969C671.968 542.973 680.116 547.328 722.945 547.205C743.033 547.205 784.054 546.292 775.309 523.973C766.933 502.532 705.929 529.838 705.929 529.838L682.223 538.969ZM670.546 567.487C659.694 569.365 666.823 575.266 708.827 583.659C728.511 587.61 768.882 594.898 764.755 571.367C760.804 548.68 695.586 563.325 695.586 563.325L670.546 567.487ZM657.481 602.308C648.245 603.643 654.145 608.788 689.458 616.865C706.017 620.658 739.996 627.77 737.046 607.699C734.236 588.383 678.746 599.305 678.746 599.305L657.481 602.308ZM647.56 634.566C638.516 636.866 644.926 641.361 680.924 645.646C697.781 647.648 732.322 651.125 727.282 631.475C722.418 612.616 668.403 629.315 668.403 629.315L647.56 634.566ZM700.486 503.972C695.218 515.772 706.157 513.981 743.35 481.53C760.769 466.306 795.713 434.452 768.039 418.595C741.471 403.353 712.901 476.894 712.901 476.894L700.486 503.972ZM648.929 676.587C643.363 679.835 648.824 681.1 674.356 676.007C686.332 673.637 710.688 668.369 702.452 657.973C694.48 647.964 661.818 669.036 661.818 669.036L648.929 676.587Z" fill="#FFC100"/>
<path opacity="0.3" d="M676.06 498.704C676.06 498.704 651.581 436.506 673.373 429.114C696.06 421.405 695.06 462.478 694.182 482.496C692.338 525.272 687.614 533.227 684.085 522.779L676.06 498.704ZM668.702 547.222C675.427 556.002 677.324 546.906 665.19 505.833C659.501 486.517 647.138 447.446 628.174 462.109C609.964 476.157 653.302 527.081 653.302 527.081L668.702 547.222ZM655.708 582.869C662.117 588.558 662.24 581.376 647.015 551.718C639.868 537.828 624.749 509.714 612.37 523.622C600.481 537.037 640.992 569.646 640.992 569.646L655.708 582.869ZM641.66 625.259C648.069 630.966 648.192 623.766 632.967 594.125C625.82 580.235 610.701 552.104 598.322 566.029C586.504 579.48 626.892 612.089 626.892 612.089L641.66 625.259ZM682.223 538.969C671.968 542.973 680.116 547.328 722.945 547.205C743.033 547.205 784.054 546.292 775.309 523.973C766.933 502.532 705.929 529.838 705.929 529.838L682.223 538.969ZM670.546 567.487C659.694 569.365 666.823 575.266 708.827 583.659C728.511 587.61 768.882 594.898 764.755 571.367C760.804 548.68 695.586 563.325 695.586 563.325L670.546 567.487ZM657.481 602.308C648.245 603.643 654.145 608.788 689.458 616.865C706.017 620.658 739.996 627.77 737.046 607.699C734.236 588.383 678.746 599.305 678.746 599.305L657.481 602.308ZM647.56 634.566C638.516 636.866 644.926 641.361 680.924 645.646C697.781 647.648 732.322 651.125 727.282 631.475C722.418 612.616 668.403 629.315 668.403 629.315L647.56 634.566ZM700.486 503.972C695.218 515.772 706.157 513.981 743.35 481.53C760.769 466.306 795.713 434.452 768.039 418.595C741.471 403.353 712.901 476.894 712.901 476.894L700.486 503.972ZM648.929 676.587C643.363 679.835 648.824 681.1 674.356 676.007C686.332 673.637 710.688 668.369 702.452 657.973C694.48 647.964 661.818 669.036 661.818 669.036L648.929 676.587Z" fill="white"/>
<path d="M686.859 527.66L682.592 456.665L686.859 527.66ZM673.355 551.085L646.383 490.029L673.355 551.085ZM742.963 533.332L678.325 542.604L742.963 533.332ZM659.378 583.993L624.381 539.092L659.378 583.993ZM665.524 570.226L713.743 572.649L665.524 570.226ZM654.11 604.661L690.986 608.314L654.11 604.661ZM645.207 626.541L626.892 598.989L645.207 626.541ZM643.1 636.269L686.455 636.673L643.1 636.269ZM634.32 717.607C634.61 717.584 634.88 717.448 635.071 717.228C635.261 717.008 635.357 716.721 635.338 716.43C632.581 675.024 648.596 607.207 674.286 551.542C690.705 515.965 755.062 446.042 755.747 445.339C755.954 445.132 756.07 444.851 756.07 444.558C756.07 444.265 755.954 443.984 755.747 443.776C755.646 443.674 755.525 443.593 755.393 443.538C755.26 443.483 755.118 443.455 754.974 443.455C754.831 443.455 754.688 443.483 754.556 443.538C754.423 443.593 754.303 443.674 754.202 443.776C753.552 444.479 688.931 514.666 672.372 550.559C646.208 607.576 630.404 674.163 633.213 716.571C633.235 716.85 633.361 717.112 633.565 717.303C633.77 717.495 634.039 717.603 634.32 717.607ZM686.841 528.749C687.132 528.731 687.403 528.599 687.597 528.382C687.791 528.165 687.892 527.881 687.878 527.59L683.681 456.56C683.674 456.415 683.639 456.274 683.576 456.143C683.514 456.012 683.427 455.895 683.319 455.799C683.211 455.702 683.085 455.628 682.948 455.581C682.811 455.534 682.666 455.514 682.522 455.524C682.231 455.542 681.96 455.674 681.766 455.891C681.572 456.108 681.471 456.392 681.486 456.683L685.753 527.678C685.766 527.957 685.887 528.221 686.09 528.414C686.292 528.607 686.562 528.714 686.841 528.714V528.749ZM673.742 552.086C674.005 551.967 674.211 551.75 674.316 551.481C674.421 551.212 674.416 550.912 674.304 550.646L647.314 489.59C647.197 489.325 646.98 489.117 646.71 489.011C646.44 488.906 646.139 488.912 645.874 489.028C645.608 489.145 645.4 489.362 645.295 489.632C645.189 489.902 645.196 490.203 645.312 490.468L672.284 551.524C672.369 551.72 672.508 551.888 672.686 552.006C672.864 552.124 673.072 552.189 673.285 552.192C673.467 552.201 673.648 552.165 673.812 552.086H673.742ZM678.413 543.658L743.016 534.421C743.172 534.418 743.325 534.382 743.466 534.315C743.607 534.248 743.733 534.152 743.834 534.033C743.935 533.915 744.011 533.776 744.055 533.626C744.098 533.477 744.11 533.319 744.089 533.165C744.068 533.01 744.014 532.862 743.932 532.729C743.849 532.597 743.739 532.484 743.61 532.397C743.48 532.31 743.334 532.251 743.18 532.225C743.026 532.198 742.868 532.205 742.717 532.244L678.114 541.48C677.825 541.499 677.556 541.631 677.365 541.849C677.174 542.066 677.077 542.35 677.096 542.639C677.114 542.928 677.247 543.197 677.464 543.388C677.682 543.579 677.966 543.676 678.255 543.658H678.413ZM659.992 584.871C660.222 584.691 660.371 584.427 660.407 584.138C660.443 583.849 660.363 583.557 660.185 583.326L625.171 538.337C624.991 538.104 624.727 537.952 624.436 537.914C624.144 537.876 623.85 537.956 623.617 538.135C623.384 538.314 623.232 538.579 623.194 538.87C623.156 539.162 623.235 539.456 623.415 539.689L658.5 584.748C658.601 584.879 658.732 584.985 658.881 585.058C659.03 585.131 659.194 585.169 659.36 585.169C659.622 585.156 659.871 585.051 660.062 584.871H659.992ZM714.709 572.702C714.719 572.411 714.614 572.129 714.416 571.915C714.219 571.702 713.946 571.574 713.656 571.56L665.524 569.12C665.253 569.138 664.999 569.255 664.809 569.449C664.62 569.643 664.507 569.899 664.494 570.17C664.481 570.441 664.568 570.707 664.739 570.918C664.909 571.129 665.151 571.27 665.418 571.315L713.638 573.755C713.929 573.765 714.211 573.66 714.425 573.463C714.638 573.265 714.766 572.992 714.779 572.702H714.709ZM692.004 608.419C692.021 608.274 692.009 608.128 691.968 607.988C691.928 607.849 691.86 607.718 691.768 607.605C691.676 607.492 691.563 607.399 691.435 607.331C691.306 607.262 691.166 607.22 691.021 607.207L654.145 603.572C654.002 603.558 653.857 603.572 653.719 603.613C653.582 603.655 653.454 603.724 653.343 603.815C653.232 603.906 653.14 604.019 653.073 604.146C653.005 604.273 652.964 604.412 652.951 604.556C652.926 604.844 653.015 605.13 653.199 605.353C653.383 605.576 653.647 605.719 653.934 605.75L690.81 609.402H690.915C691.199 609.422 691.478 609.33 691.695 609.146C691.911 608.963 692.048 608.702 692.074 608.419H692.004ZM645.734 627.454C645.977 627.293 646.147 627.041 646.207 626.755C646.266 626.469 646.209 626.171 646.05 625.926L627.822 598.375C627.655 598.137 627.403 597.974 627.119 597.918C626.834 597.862 626.539 597.919 626.295 598.076C626.051 598.237 625.881 598.488 625.821 598.775C625.762 599.061 625.819 599.359 625.979 599.604L644.206 627.155C644.31 627.306 644.449 627.429 644.611 627.515C644.773 627.6 644.953 627.646 645.136 627.647C645.374 627.66 645.61 627.592 645.804 627.454H645.734ZM687.561 636.673C687.557 636.384 687.441 636.108 687.239 635.902C687.036 635.696 686.762 635.576 686.473 635.567L643.117 635.163C642.828 635.163 642.551 635.277 642.347 635.482C642.143 635.686 642.028 635.963 642.028 636.251C642.024 636.396 642.048 636.541 642.101 636.676C642.154 636.811 642.234 636.935 642.335 637.038C642.437 637.142 642.559 637.223 642.693 637.278C642.828 637.333 642.972 637.36 643.117 637.358L686.473 637.762C686.621 637.769 686.769 637.746 686.908 637.695C687.047 637.643 687.175 637.564 687.283 637.463C687.391 637.361 687.478 637.239 687.538 637.103C687.597 636.968 687.629 636.821 687.632 636.673H687.561ZM629.385 701.504C629.473 701.311 636.866 680.942 659.097 676.078C659.383 676.015 659.633 675.84 659.791 675.593C659.949 675.347 660.002 675.047 659.94 674.761C659.869 674.48 659.692 674.237 659.447 674.083C659.201 673.93 658.906 673.877 658.623 673.935C635.18 679.063 627.401 700.574 627.313 700.784C627.223 701.062 627.243 701.363 627.371 701.625C627.499 701.888 627.724 702.09 627.998 702.189H628.349C628.583 702.209 628.816 702.154 629.016 702.03C629.215 701.907 629.369 701.722 629.455 701.504H629.385ZM634.32 717.607C634.61 717.584 634.88 717.448 635.071 717.228C635.261 717.008 635.357 716.721 635.338 716.43C632.581 675.024 648.596 607.207 674.286 551.542C690.705 515.965 755.062 446.042 755.747 445.339C755.954 445.132 756.07 444.851 756.07 444.558C756.07 444.265 755.954 443.984 755.747 443.776C755.646 443.674 755.525 443.593 755.393 443.538C755.26 443.483 755.118 443.455 754.974 443.455C754.831 443.455 754.688 443.483 754.556 443.538C754.423 443.593 754.303 443.674 754.202 443.776C753.552 444.479 688.931 514.666 672.372 550.559C646.208 607.576 630.404 674.163 633.213 716.571C633.235 716.85 633.361 717.112 633.565 717.303C633.77 717.495 634.039 717.603 634.32 717.607ZM686.841 528.749C687.132 528.731 687.403 528.599 687.597 528.382C687.791 528.165 687.892 527.881 687.878 527.59L683.681 456.56C683.674 456.415 683.639 456.274 683.576 456.143C683.514 456.012 683.427 455.895 683.319 455.799C683.211 455.702 683.085 455.628 682.948 455.581C682.811 455.534 682.666 455.514 682.522 455.524C682.231 455.542 681.96 455.674 681.766 455.891C681.572 456.108 681.471 456.392 681.486 456.683L685.753 527.678C685.766 527.957 685.887 528.221 686.09 528.414C686.292 528.607 686.562 528.714 686.841 528.714V528.749ZM673.742 552.086C674.005 551.967 674.211 551.75 674.316 551.481C674.421 551.212 674.416 550.912 674.304 550.646L647.314 489.59C647.197 489.325 646.98 489.117 646.71 489.011C646.44 488.906 646.139 488.912 645.874 489.028C645.608 489.145 645.4 489.362 645.295 489.632C645.189 489.902 645.196 490.203 645.312 490.468L672.284 551.524C672.369 551.72 672.508 551.888 672.686 552.006C672.864 552.124 673.072 552.189 673.285 552.192C673.467 552.201 673.648 552.165 673.812 552.086H673.742ZM678.413 543.658L743.016 534.421C743.172 534.418 743.325 534.382 743.466 534.315C743.607 534.248 743.733 534.152 743.834 534.033C743.935 533.915 744.011 533.776 744.055 533.626C744.098 533.477 744.11 533.319 744.089 533.165C744.068 533.01 744.014 532.862 743.932 532.729C743.849 532.597 743.739 532.484 743.61 532.397C743.48 532.31 743.334 532.251 743.18 532.225C743.026 532.198 742.868 532.205 742.717 532.244L678.114 541.48C677.825 541.499 677.556 541.631 677.365 541.849C677.174 542.066 677.077 542.35 677.096 542.639C677.114 542.928 677.247 543.197 677.464 543.388C677.682 543.579 677.966 543.676 678.255 543.658H678.413ZM659.992 584.871C660.222 584.691 660.371 584.427 660.407 584.138C660.443 583.849 660.363 583.557 660.185 583.326L625.171 538.337C625.082 538.222 624.971 538.125 624.845 538.052C624.719 537.98 624.58 537.933 624.436 537.914C624.291 537.895 624.145 537.905 624.004 537.943C623.864 537.981 623.732 538.046 623.617 538.135C623.501 538.224 623.405 538.334 623.332 538.46C623.26 538.587 623.213 538.726 623.194 538.87C623.175 539.014 623.185 539.161 623.223 539.302C623.261 539.442 623.326 539.574 623.415 539.689L658.5 584.748C658.601 584.879 658.732 584.985 658.881 585.058C659.03 585.131 659.194 585.169 659.36 585.169C659.622 585.156 659.871 585.051 660.062 584.871H659.992ZM714.709 572.702C714.719 572.411 714.614 572.129 714.416 571.915C714.219 571.702 713.946 571.574 713.656 571.56L665.524 569.12C665.253 569.138 664.999 569.255 664.809 569.449C664.62 569.643 664.507 569.899 664.494 570.17C664.481 570.441 664.568 570.707 664.739 570.918C664.909 571.129 665.151 571.27 665.418 571.315L713.638 573.755C713.929 573.765 714.211 573.66 714.425 573.463C714.638 573.265 714.766 572.992 714.779 572.702H714.709ZM692.004 608.419C692.021 608.274 692.009 608.128 691.968 607.988C691.928 607.849 691.86 607.718 691.768 607.605C691.676 607.492 691.563 607.399 691.435 607.331C691.306 607.262 691.166 607.22 691.021 607.207L654.145 603.572C654.002 603.558 653.857 603.572 653.719 603.613C653.582 603.655 653.454 603.724 653.343 603.815C653.232 603.906 653.14 604.019 653.073 604.146C653.005 604.273 652.964 604.412 652.951 604.556C652.926 604.844 653.015 605.13 653.199 605.353C653.383 605.576 653.647 605.719 653.934 605.75L690.81 609.402H690.915C691.199 609.422 691.478 609.33 691.695 609.146C691.911 608.963 692.048 608.702 692.074 608.419H692.004ZM645.734 627.454C645.977 627.293 646.147 627.041 646.207 626.755C646.266 626.469 646.209 626.171 646.05 625.926L627.822 598.375C627.655 598.137 627.403 597.974 627.119 597.918C626.834 597.862 626.539 597.919 626.295 598.076C626.051 598.237 625.881 598.488 625.821 598.775C625.762 599.061 625.819 599.359 625.979 599.604L644.206 627.155C644.31 627.306 644.449 627.429 644.611 627.515C644.773 627.6 644.953 627.646 645.136 627.647C645.374 627.66 645.61 627.592 645.804 627.454H645.734ZM687.561 636.673C687.557 636.384 687.441 636.108 687.239 635.902C687.036 635.696 686.762 635.576 686.473 635.567L643.117 635.163C642.828 635.163 642.551 635.277 642.347 635.482C642.143 635.686 642.028 635.963 642.028 636.251C642.024 636.396 642.048 636.541 642.101 636.676C642.154 636.811 642.234 636.935 642.335 637.038C642.437 637.142 642.559 637.223 642.693 637.278C642.828 637.333 642.972 637.36 643.117 637.358L686.473 637.762C686.621 637.769 686.769 637.746 686.908 637.695C687.047 637.643 687.175 637.564 687.283 637.463C687.391 637.361 687.478 637.239 687.538 637.103C687.597 636.968 687.629 636.821 687.632 636.673H687.561ZM629.385 701.504C629.473 701.311 636.866 680.942 659.097 676.078C659.383 676.015 659.633 675.84 659.791 675.593C659.949 675.347 660.002 675.047 659.94 674.761C659.869 674.48 659.692 674.237 659.447 674.083C659.201 673.93 658.906 673.877 658.623 673.935C635.18 679.063 627.401 700.574 627.313 700.784C627.223 701.062 627.243 701.363 627.371 701.625C627.499 701.888 627.724 702.09 627.998 702.189H628.349C628.583 702.209 628.816 702.154 629.016 702.03C629.215 701.907 629.369 701.722 629.455 701.504H629.385Z" fill="#FFC100"/>
<path opacity="0.2" d="M686.859 527.66L682.592 456.665L686.859 527.66ZM673.355 551.085L646.383 490.029L673.355 551.085ZM742.963 533.332L678.325 542.604L742.963 533.332ZM659.378 583.993L624.381 539.092L659.378 583.993ZM665.524 570.226L713.743 572.649L665.524 570.226ZM654.11 604.661L690.986 608.314L654.11 604.661ZM645.207 626.541L626.892 598.989L645.207 626.541ZM643.1 636.269L686.455 636.673L643.1 636.269ZM634.32 717.607C634.61 717.584 634.88 717.448 635.071 717.228C635.261 717.008 635.357 716.721 635.338 716.43C632.581 675.024 648.596 607.207 674.286 551.542C690.705 515.965 755.062 446.042 755.747 445.339C755.954 445.132 756.07 444.851 756.07 444.558C756.07 444.265 755.954 443.984 755.747 443.776C755.646 443.674 755.525 443.593 755.393 443.538C755.26 443.483 755.118 443.455 754.974 443.455C754.831 443.455 754.688 443.483 754.556 443.538C754.423 443.593 754.303 443.674 754.202 443.776C753.552 444.479 688.931 514.666 672.372 550.559C646.208 607.576 630.404 674.163 633.213 716.571C633.235 716.85 633.361 717.112 633.565 717.303C633.77 717.495 634.039 717.603 634.32 717.607ZM686.841 528.749C687.132 528.731 687.403 528.599 687.597 528.382C687.791 528.165 687.892 527.881 687.878 527.59L683.681 456.56C683.674 456.415 683.639 456.274 683.576 456.143C683.514 456.012 683.427 455.895 683.319 455.799C683.211 455.702 683.085 455.628 682.948 455.581C682.811 455.534 682.666 455.514 682.522 455.524C682.231 455.542 681.96 455.674 681.766 455.891C681.572 456.108 681.471 456.392 681.486 456.683L685.753 527.678C685.766 527.957 685.887 528.221 686.09 528.414C686.292 528.607 686.562 528.714 686.841 528.714V528.749ZM673.742 552.086C674.005 551.967 674.211 551.75 674.316 551.481C674.421 551.212 674.416 550.912 674.304 550.646L647.314 489.59C647.197 489.325 646.98 489.117 646.71 489.011C646.44 488.906 646.139 488.912 645.874 489.028C645.608 489.145 645.4 489.362 645.295 489.632C645.189 489.902 645.196 490.203 645.312 490.468L672.284 551.524C672.369 551.72 672.508 551.888 672.686 552.006C672.864 552.124 673.072 552.189 673.285 552.192C673.467 552.201 673.648 552.165 673.812 552.086H673.742ZM678.413 543.658L743.016 534.421C743.172 534.418 743.325 534.382 743.466 534.315C743.607 534.248 743.733 534.152 743.834 534.033C743.935 533.915 744.011 533.776 744.055 533.626C744.098 533.477 744.11 533.319 744.089 533.165C744.068 533.01 744.014 532.862 743.932 532.729C743.849 532.597 743.739 532.484 743.61 532.397C743.48 532.31 743.334 532.251 743.18 532.225C743.026 532.198 742.868 532.205 742.717 532.244L678.114 541.48C677.825 541.499 677.556 541.631 677.365 541.849C677.174 542.066 677.077 542.35 677.096 542.639C677.114 542.928 677.247 543.197 677.464 543.388C677.682 543.579 677.966 543.676 678.255 543.658H678.413ZM659.992 584.871C660.222 584.691 660.371 584.427 660.407 584.138C660.443 583.849 660.363 583.557 660.185 583.326L625.171 538.337C624.991 538.104 624.727 537.952 624.436 537.914C624.144 537.876 623.85 537.956 623.617 538.135C623.384 538.314 623.232 538.579 623.194 538.87C623.156 539.162 623.235 539.456 623.415 539.689L658.5 584.748C658.601 584.879 658.732 584.985 658.881 585.058C659.03 585.131 659.194 585.169 659.36 585.169C659.622 585.156 659.871 585.051 660.062 584.871H659.992ZM714.709 572.702C714.719 572.411 714.614 572.129 714.416 571.915C714.219 571.702 713.946 571.574 713.656 571.56L665.524 569.12C665.253 569.138 664.999 569.255 664.809 569.449C664.62 569.643 664.507 569.899 664.494 570.17C664.481 570.441 664.568 570.707 664.739 570.918C664.909 571.129 665.151 571.27 665.418 571.315L713.638 573.755C713.929 573.765 714.211 573.66 714.425 573.463C714.638 573.265 714.766 572.992 714.779 572.702H714.709ZM692.004 608.419C692.021 608.274 692.009 608.128 691.968 607.988C691.928 607.849 691.86 607.718 691.768 607.605C691.676 607.492 691.563 607.399 691.435 607.331C691.306 607.262 691.166 607.22 691.021 607.207L654.145 603.572C654.002 603.558 653.857 603.572 653.719 603.613C653.582 603.655 653.454 603.724 653.343 603.815C653.232 603.906 653.14 604.019 653.073 604.146C653.005 604.273 652.964 604.412 652.951 604.556C652.926 604.844 653.015 605.13 653.199 605.353C653.383 605.576 653.647 605.719 653.934 605.75L690.81 609.402H690.915C691.199 609.422 691.478 609.33 691.695 609.146C691.911 608.963 692.048 608.702 692.074 608.419H692.004ZM645.734 627.454C645.977 627.293 646.147 627.041 646.207 626.755C646.266 626.469 646.209 626.171 646.05 625.926L627.822 598.375C627.655 598.137 627.403 597.974 627.119 597.918C626.834 597.862 626.539 597.919 626.295 598.076C626.051 598.237 625.881 598.488 625.821 598.775C625.762 599.061 625.819 599.359 625.979 599.604L644.206 627.155C644.31 627.306 644.449 627.429 644.611 627.515C644.773 627.6 644.953 627.646 645.136 627.647C645.374 627.66 645.61 627.592 645.804 627.454H645.734ZM687.561 636.673C687.557 636.384 687.441 636.108 687.239 635.902C687.036 635.696 686.762 635.576 686.473 635.567L643.117 635.163C642.828 635.163 642.551 635.277 642.347 635.482C642.143 635.686 642.028 635.963 642.028 636.251C642.024 636.396 642.048 636.541 642.101 636.676C642.154 636.811 642.234 636.935 642.335 637.038C642.437 637.142 642.559 637.223 642.693 637.278C642.828 637.333 642.972 637.36 643.117 637.358L686.473 637.762C686.621 637.769 686.769 637.746 686.908 637.695C687.047 637.643 687.175 637.564 687.283 637.463C687.391 637.361 687.478 637.239 687.538 637.103C687.597 636.968 687.629 636.821 687.632 636.673H687.561ZM629.385 701.504C629.473 701.311 636.866 680.942 659.097 676.078C659.383 676.015 659.633 675.84 659.791 675.593C659.949 675.347 660.002 675.047 659.94 674.761C659.869 674.48 659.692 674.237 659.447 674.083C659.201 673.93 658.906 673.877 658.623 673.935C635.18 679.063 627.401 700.574 627.313 700.784C627.223 701.062 627.243 701.363 627.371 701.625C627.499 701.888 627.724 702.09 627.998 702.189H628.349C628.583 702.209 628.816 702.154 629.016 702.03C629.215 701.907 629.369 701.722 629.455 701.504H629.385ZM634.32 717.607C634.61 717.584 634.88 717.448 635.071 717.228C635.261 717.008 635.357 716.721 635.338 716.43C632.581 675.024 648.596 607.207 674.286 551.542C690.705 515.965 755.062 446.042 755.747 445.339C755.954 445.132 756.07 444.851 756.07 444.558C756.07 444.265 755.954 443.984 755.747 443.776C755.646 443.674 755.525 443.593 755.393 443.538C755.26 443.483 755.118 443.455 754.974 443.455C754.831 443.455 754.688 443.483 754.556 443.538C754.423 443.593 754.303 443.674 754.202 443.776C753.552 444.479 688.931 514.666 672.372 550.559C646.208 607.576 630.404 674.163 633.213 716.571C633.235 716.85 633.361 717.112 633.565 717.303C633.77 717.495 634.039 717.603 634.32 717.607ZM686.841 528.749C687.132 528.731 687.403 528.599 687.597 528.382C687.791 528.165 687.892 527.881 687.878 527.59L683.681 456.56C683.674 456.415 683.639 456.274 683.576 456.143C683.514 456.012 683.427 455.895 683.319 455.799C683.211 455.702 683.085 455.628 682.948 455.581C682.811 455.534 682.666 455.514 682.522 455.524C682.231 455.542 681.96 455.674 681.766 455.891C681.572 456.108 681.471 456.392 681.486 456.683L685.753 527.678C685.766 527.957 685.887 528.221 686.09 528.414C686.292 528.607 686.562 528.714 686.841 528.714V528.749ZM673.742 552.086C674.005 551.967 674.211 551.75 674.316 551.481C674.421 551.212 674.416 550.912 674.304 550.646L647.314 489.59C647.197 489.325 646.98 489.117 646.71 489.011C646.44 488.906 646.139 488.912 645.874 489.028C645.608 489.145 645.4 489.362 645.295 489.632C645.189 489.902 645.196 490.203 645.312 490.468L672.284 551.524C672.369 551.72 672.508 551.888 672.686 552.006C672.864 552.124 673.072 552.189 673.285 552.192C673.467 552.201 673.648 552.165 673.812 552.086H673.742ZM678.413 543.658L743.016 534.421C743.172 534.418 743.325 534.382 743.466 534.315C743.607 534.248 743.733 534.152 743.834 534.033C743.935 533.915 744.011 533.776 744.055 533.626C744.098 533.477 744.11 533.319 744.089 533.165C744.068 533.01 744.014 532.862 743.932 532.729C743.849 532.597 743.739 532.484 743.61 532.397C743.48 532.31 743.334 532.251 743.18 532.225C743.026 532.198 742.868 532.205 742.717 532.244L678.114 541.48C677.825 541.499 677.556 541.631 677.365 541.849C677.174 542.066 677.077 542.35 677.096 542.639C677.114 542.928 677.247 543.197 677.464 543.388C677.682 543.579 677.966 543.676 678.255 543.658H678.413ZM659.992 584.871C660.222 584.691 660.371 584.427 660.407 584.138C660.443 583.849 660.363 583.557 660.185 583.326L625.171 538.337C625.082 538.222 624.971 538.125 624.845 538.052C624.719 537.98 624.58 537.933 624.436 537.914C624.291 537.895 624.145 537.905 624.004 537.943C623.864 537.981 623.732 538.046 623.617 538.135C623.501 538.224 623.405 538.334 623.332 538.46C623.26 538.587 623.213 538.726 623.194 538.87C623.175 539.014 623.185 539.161 623.223 539.302C623.261 539.442 623.326 539.574 623.415 539.689L658.5 584.748C658.601 584.879 658.732 584.985 658.881 585.058C659.03 585.131 659.194 585.169 659.36 585.169C659.622 585.156 659.871 585.051 660.062 584.871H659.992ZM714.709 572.702C714.719 572.411 714.614 572.129 714.416 571.915C714.219 571.702 713.946 571.574 713.656 571.56L665.524 569.12C665.253 569.138 664.999 569.255 664.809 569.449C664.62 569.643 664.507 569.899 664.494 570.17C664.481 570.441 664.568 570.707 664.739 570.918C664.909 571.129 665.151 571.27 665.418 571.315L713.638 573.755C713.929 573.765 714.211 573.66 714.425 573.463C714.638 573.265 714.766 572.992 714.779 572.702H714.709ZM692.004 608.419C692.021 608.274 692.009 608.128 691.968 607.988C691.928 607.849 691.86 607.718 691.768 607.605C691.676 607.492 691.563 607.399 691.435 607.331C691.306 607.262 691.166 607.22 691.021 607.207L654.145 603.572C654.002 603.558 653.857 603.572 653.719 603.613C653.582 603.655 653.454 603.724 653.343 603.815C653.232 603.906 653.14 604.019 653.073 604.146C653.005 604.273 652.964 604.412 652.951 604.556C652.926 604.844 653.015 605.13 653.199 605.353C653.383 605.576 653.647 605.719 653.934 605.75L690.81 609.402H690.915C691.199 609.422 691.478 609.33 691.695 609.146C691.911 608.963 692.048 608.702 692.074 608.419H692.004ZM645.734 627.454C645.977 627.293 646.147 627.041 646.207 626.755C646.266 626.469 646.209 626.171 646.05 625.926L627.822 598.375C627.655 598.137 627.403 597.974 627.119 597.918C626.834 597.862 626.539 597.919 626.295 598.076C626.051 598.237 625.881 598.488 625.821 598.775C625.762 599.061 625.819 599.359 625.979 599.604L644.206 627.155C644.31 627.306 644.449 627.429 644.611 627.515C644.773 627.6 644.953 627.646 645.136 627.647C645.374 627.66 645.61 627.592 645.804 627.454H645.734ZM687.561 636.673C687.557 636.384 687.441 636.108 687.239 635.902C687.036 635.696 686.762 635.576 686.473 635.567L643.117 635.163C642.828 635.163 642.551 635.277 642.347 635.482C642.143 635.686 642.028 635.963 642.028 636.251C642.024 636.396 642.048 636.541 642.101 636.676C642.154 636.811 642.234 636.935 642.335 637.038C642.437 637.142 642.559 637.223 642.693 637.278C642.828 637.333 642.972 637.36 643.117 637.358L686.473 637.762C686.621 637.769 686.769 637.746 686.908 637.695C687.047 637.643 687.175 637.564 687.283 637.463C687.391 637.361 687.478 637.239 687.538 637.103C687.597 636.968 687.629 636.821 687.632 636.673H687.561ZM629.385 701.504C629.473 701.311 636.866 680.942 659.097 676.078C659.383 676.015 659.633 675.84 659.791 675.593C659.949 675.347 660.002 675.047 659.94 674.761C659.869 674.48 659.692 674.237 659.447 674.083C659.201 673.93 658.906 673.877 658.623 673.935C635.18 679.063 627.401 700.574 627.313 700.784C627.223 701.062 627.243 701.363 627.371 701.625C627.499 701.888 627.724 702.09 627.998 702.189H628.349C628.583 702.209 628.816 702.154 629.016 702.03C629.215 701.907 629.369 701.722 629.455 701.504H629.385Z" fill="black"/>
<path d="M662.995 686.649H613.282V696.939H617.62L626.593 753.078H649.684L658.657 696.939H662.995V686.649Z" fill="#FFC100"/>
<path opacity="0.3" d="M662.995 686.649H613.282V696.939H617.62L626.593 753.078H649.684L658.657 696.939H662.995V686.649Z" fill="white"/>
<path d="M215.425 375.486L157.6 356.609L152.455 343.017L140.707 342.648L119.39 338.61L121.953 343.017L148.785 362.491L155.405 365.792L215.882 397.383L215.425 375.486Z" fill="white" stroke="#263238" stroke-width="1.00396" stroke-miterlimit="10"/>
<path d="M152.456 343.017L146.942 339.716L135.932 343.755L137.758 345.95L152.456 343.017Z" fill="white" stroke="#263238" stroke-width="1.00396" stroke-linejoin="round"/>
<path d="M215.425 375.486L157.6 356.609L152.455 343.017L140.707 342.648L119.39 338.61L121.953 343.017L148.785 362.491L155.405 365.792L215.882 397.383L215.425 375.486Z" fill="white"/>
<mask id="mask0_395_29245" style="mask-type:luminance" maskUnits="userSpaceOnUse" x="119" y="338" width="97" height="60">
<path d="M215.425 375.486L157.6 356.609L152.455 343.017L140.707 342.648L119.39 338.61L121.953 343.017L148.785 362.491L155.405 365.792L215.882 397.383L215.425 375.486Z" fill="white"/>
</mask>
<g mask="url(#mask0_395_29245)">
<path opacity="0.5" d="M215.425 375.486L157.6 356.609L152.455 343.017L140.707 342.648L119.39 338.61L121.953 343.017L148.785 362.491L155.405 365.792L215.882 397.383L215.425 375.486Z" fill="#FFC100" stroke="#263238" stroke-width="1.00396" stroke-miterlimit="10"/>
</g>
<path d="M215.425 375.486L157.6 356.609L152.455 343.017L140.707 342.648L119.39 338.61L121.953 343.017L148.785 362.491L155.405 365.792L215.882 397.383L215.425 375.486Z" stroke="#263238" stroke-width="1.00396" stroke-miterlimit="10"/>
<path d="M152.456 343.017L146.942 339.716L135.932 343.755L137.758 345.95L152.456 343.017Z" fill="white"/>
<mask id="mask1_395_29245" style="mask-type:luminance" maskUnits="userSpaceOnUse" x="135" y="339" width="18" height="7">
<path d="M152.456 343.017L146.942 339.716L135.932 343.755L137.758 345.95L152.456 343.017Z" fill="white"/>
</mask>
<g mask="url(#mask1_395_29245)">
<path opacity="0.5" d="M152.456 343.017L146.942 339.716L135.932 343.755L137.758 345.95L152.456 343.017Z" fill="#FFC100" stroke="#263238" stroke-width="1.00396" stroke-linejoin="round"/>
</g>
<path d="M152.456 343.017L146.942 339.716L135.932 343.755L137.758 345.95L152.456 343.017Z" stroke="#263238" stroke-width="1.00396" stroke-linejoin="round"/>
<path d="M227.701 252.969C227.701 252.969 226.805 260.871 229.035 265.946C231.265 271.021 243.645 288.212 243.645 288.212L220.536 306.738C220.536 306.738 210.948 287.422 209.122 284.296C207.296 281.171 205.101 267.72 211.054 258.079C217.007 248.439 225.576 245.84 227.701 252.969Z" fill="white"/>
<mask id="mask2_395_29245" style="mask-type:luminance" maskUnits="userSpaceOnUse" x="207" y="248" width="37" height="59">
<path d="M227.701 252.969C227.701 252.969 226.805 260.871 229.035 265.946C231.265 271.021 243.645 288.212 243.645 288.212L220.536 306.738C220.536 306.738 210.948 287.422 209.122 284.296C207.296 281.171 205.101 267.72 211.054 258.079C217.007 248.439 225.576 245.84 227.701 252.969Z" fill="white"/>
</mask>
<g mask="url(#mask2_395_29245)">
<g style="mix-blend-mode:multiply" opacity="0.5">
<path d="M215.83 278.361L225.857 299.152L220.519 306.756L210.439 288.757L215.83 278.361Z" fill="#FFC100"/>
</g>
</g>
<path d="M227.701 252.969C227.701 252.969 226.805 260.871 229.035 265.946C231.265 271.021 243.645 288.212 243.645 288.212L220.536 306.738C220.536 306.738 210.948 287.422 209.122 284.296C207.296 281.171 205.101 267.72 211.054 258.079C217.007 248.439 225.576 245.84 227.701 252.969Z" stroke="#263238" stroke-width="1.00396" stroke-miterlimit="10"/>
<path d="M234.865 238.5C233.442 229.72 223.381 211.862 207.418 212.546C197.058 213.003 192.212 215.093 187.716 217.639C184.052 219.798 180.636 222.353 177.531 225.26C169.735 234.619 166.995 237.183 168.506 244.348C168.382 247.205 168.829 250.059 169.823 252.741C172.211 259.115 173.844 263.277 175.916 266.315C175.284 269.283 173.633 277.114 173.545 278.906C173.457 280.697 178.813 279.45 181.517 278.765C186.54 290.004 195.741 297.8 198.603 298.696C203.59 300.259 211.475 292.058 215.654 285.701C219.833 279.345 216.673 272.198 216.69 269.353C216.708 266.508 226.085 260.257 229.562 258.273C233.038 256.288 236.27 247.262 234.865 238.5Z" fill="white"/>
<mask id="mask3_395_29245" style="mask-type:luminance" maskUnits="userSpaceOnUse" x="168" y="212" width="68" height="87">
<path d="M234.865 238.5C233.442 229.72 223.381 211.862 207.418 212.546C197.058 213.003 192.212 215.093 187.716 217.639C184.052 219.798 180.636 222.353 177.531 225.26C169.735 234.619 166.995 237.183 168.506 244.348C168.382 247.205 168.829 250.059 169.823 252.741C172.211 259.115 173.844 263.277 175.916 266.315C175.284 269.283 173.633 277.114 173.545 278.906C173.457 280.697 178.813 279.45 181.517 278.765C186.54 290.004 195.741 297.8 198.603 298.696C203.59 300.259 211.475 292.058 215.654 285.701C219.833 279.345 216.673 272.198 216.69 269.353C216.708 266.508 226.085 260.257 229.562 258.273C233.038 256.288 236.27 247.262 234.865 238.5Z" fill="white"/>
</mask>
<g mask="url(#mask3_395_29245)">
<g style="mix-blend-mode:multiply" opacity="0.5">
<path d="M168.576 244.348C168.452 247.205 168.9 250.059 169.893 252.741C172.281 259.115 173.914 263.277 175.986 266.315C175.354 269.283 173.703 277.114 173.616 278.906C173.528 280.697 178.884 279.45 181.588 278.765C186.61 290.004 195.811 297.8 198.674 298.696C203.661 300.259 211.545 292.058 215.724 285.701C216.768 284.114 217.446 282.315 217.709 280.433C217.48 279.608 217.322 279.099 217.322 279.099C217.322 279.099 214.969 288.142 210.298 286.966C205.627 285.789 198.48 276.43 194.494 273.199C190.508 269.968 192.141 265.718 191.351 260.907C190.561 256.095 178.761 251.863 177.97 249.106C177.18 246.349 179.937 234.935 179.937 234.935C179.937 234.935 184.415 228.965 183.449 231.423C182.766 233.555 182.519 235.802 182.721 238.031C182.923 240.26 183.571 242.426 184.626 244.4C185.366 245.958 186.54 247.269 188.007 248.175C189.474 249.082 191.172 249.545 192.896 249.51L197.181 228.28L188.138 220.8L177.602 225.19C169.735 234.619 167.048 237.183 168.576 244.348Z" fill="#FFC100"/>
</g>
</g>
<path d="M234.865 238.5C233.442 229.72 223.381 211.862 207.418 212.546C197.058 213.003 192.212 215.093 187.716 217.639C184.052 219.798 180.636 222.353 177.531 225.26C169.735 234.619 166.995 237.183 168.506 244.348C168.382 247.205 168.829 250.059 169.823 252.741C172.211 259.115 173.844 263.277 175.916 266.315C175.284 269.283 173.633 277.114 173.545 278.906C173.457 280.697 178.813 279.45 181.517 278.765C186.54 290.004 195.741 297.8 198.603 298.696C203.59 300.259 211.475 292.058 215.654 285.701C219.833 279.345 216.673 272.198 216.69 269.353C216.708 266.508 226.085 260.257 229.562 258.273C233.038 256.288 236.27 247.262 234.865 238.5Z" stroke="#263238" stroke-miterlimit="10"/>
<path d="M178.093 261.012L179.849 266.034C179.849 266.034 183.624 267.281 188.225 262.259" stroke="#263238" stroke-miterlimit="10" stroke-linecap="round"/>
<path d="M191.07 284.472C191.07 284.472 195.25 284.051 196.935 278.186" stroke="#263238" stroke-miterlimit="10" stroke-linecap="round"/>
<path d="M175.161 256.815C175.161 256.815 176.408 253.04 183.941 253.04" stroke="#263238" stroke-miterlimit="10" stroke-linecap="round"/>
<path d="M213.775 205.557C208.301 204.77 202.781 204.348 197.251 204.293C197.251 204.293 180.71 194.758 164.818 204.925C148.926 215.093 156.565 232.898 156.565 237.341C156.565 241.784 151.472 241.801 154.65 247.526C157.829 253.25 168.576 250.09 168.576 250.09C168.689 247.93 169.26 245.82 170.25 243.898C171.239 241.976 172.626 240.285 174.318 238.939C180.042 234.496 184.608 233.531 186.504 234.812C186.504 234.812 185.24 244.347 187.136 248.158C187.136 248.158 193.493 251.336 195.407 251.336C197.321 251.336 194.16 254.023 200.5 256.411C201.655 256.826 202.89 256.967 204.109 256.824C205.327 256.681 206.496 256.257 207.524 255.586C208.454 251.723 210.491 245.91 214.284 247.262C219.851 249.247 224.926 262.944 217.392 267.614C226.453 269.265 237.428 253.233 238.078 238.623C238.728 224.013 223.187 207.208 213.775 205.557Z" fill="#263238"/>
<path d="M186.785 228.543C186.785 228.543 191.456 226.032 197.181 231.406C202.905 236.779 214.038 243.961 228.789 240.01" stroke="white" stroke-width="0.5" stroke-linecap="round" stroke-linejoin="round"/>
<path d="M186.136 224.241C186.136 224.241 189.349 219.219 194.723 219.219C200.096 219.219 212.651 226.752 222.678 226.752" stroke="white" stroke-width="0.5" stroke-linecap="round" stroke-linejoin="round"/>
<path d="M182.484 233.917C182.484 233.917 176.39 226.401 170.666 232.494C164.941 238.588 168.576 244.347 168.576 244.347" stroke="white" stroke-width="0.5" stroke-linecap="round" stroke-linejoin="round"/>
<path d="M158.128 238.939C161.62 235.79 163.79 231.436 164.204 226.752C164.924 218.868 175.688 212.055 182.484 218.517" stroke="white" stroke-width="0.5" stroke-linecap="round" stroke-linejoin="round"/>
<path d="M169.226 210.264C169.226 210.264 179.99 199.868 188.945 213.126" stroke="white" stroke-width="0.5" stroke-linecap="round" stroke-linejoin="round"/>
<path d="M256.832 721.382C256.832 721.382 263.452 731.672 262.715 738.293L261.995 744.913C261.995 744.913 237.709 751.568 232.564 751.568C227.419 751.568 200.184 748.987 200.184 748.987L199.007 744.316C198.925 743.971 198.964 743.608 199.117 743.288C199.27 742.968 199.529 742.711 199.85 742.56L224.135 731.234L231.792 722.857L256.832 721.382Z" fill="white" stroke="#263238" stroke-width="1.00396" stroke-miterlimit="10"/>
<path d="M236.252 746.388C242.837 746.897 255.34 742.876 262.592 740.312L262.083 744.913C262.083 744.913 237.709 751.568 232.564 751.568C227.419 751.568 200.184 748.987 200.184 748.987L199.341 745.65C203.696 745.668 227.542 745.721 236.252 746.388Z" fill="#FFC100" stroke="#263238" stroke-width="1.00396" stroke-miterlimit="10"/>
<path d="M224.171 731.234L188.823 746.616C188.823 746.616 185.803 754.185 188.823 755.695C191.843 757.205 257.693 755.695 257.693 755.695C257.693 755.695 262.241 743.736 255.059 735.711C247.877 727.686 224.171 731.234 224.171 731.234Z" fill="white" stroke="#263238" stroke-width="1.00396" stroke-miterlimit="10"/>
<path d="M257.693 755.695C257.693 755.695 191.843 757.205 188.823 755.695C187.365 754.957 187.312 752.832 187.646 750.813H258.852C258.619 752.473 258.231 754.107 257.693 755.695Z" fill="#FFC100" stroke="#263238" stroke-width="1.00396" stroke-miterlimit="10"/>
<path d="M207.454 463.953C207.454 463.953 198.217 504.885 194.723 530.488C191.228 556.09 189.174 607.383 189.911 613.265C190.649 619.148 227.419 717.712 227.419 717.712L231.089 726.492L256.832 721.347C256.832 721.347 245.067 683.839 240.66 663.241C236.252 642.643 226.612 608.805 226.612 602.923C226.612 597.04 249.439 484.691 251.073 477.316C252.706 469.941 260.116 458.615 260.116 458.615L210.825 457.614L207.454 463.953Z" fill="#FFC100" stroke="#263238" stroke-width="1.00396" stroke-miterlimit="10"/>
<path d="M207.454 463.953C207.454 463.953 202.045 501.338 204.276 527.327C206.506 553.316 211.3 608.647 211.3 616.883C211.3 625.118 224.592 674.304 225.348 689.757C226.524 712.076 224.873 723.121 224.873 723.121L224.083 731.216C224.083 731.216 239.589 733.429 242.978 734.394C246.892 735.403 250.932 735.84 254.971 735.694C254.971 735.694 260.608 710.882 260.608 689.739C260.608 668.597 255.92 625.083 253.584 607.453C251.249 589.823 258.606 521.813 262.785 509.117C266.965 496.421 276.096 469.537 269.95 455.805C263.804 442.073 207.454 463.953 207.454 463.953Z" fill="#FFC100" stroke="#263238" stroke-width="1.00396" stroke-miterlimit="10"/>
<path d="M276.78 448.922L276.218 465.639C276.218 465.639 266.209 467.623 252.723 469.958C241.59 471.89 213.634 469.449 204.222 468.536C203.364 468.46 202.571 468.048 202.016 467.391C201.46 466.733 201.186 465.882 201.254 465.024L202.168 449.922L276.78 448.922Z" fill="#263238"/>
<path d="M237.657 282.277C237.657 282.277 221.853 299.363 215.9 309.987C209.947 320.611 207.594 336.889 205.364 349.707C203.134 362.526 209.174 392.624 207.471 406.444L202.08 449.975C202.08 449.975 200.921 452.925 204.802 456.156C208.683 459.387 227.63 460.564 244.751 461.424C251.002 461.74 269.668 457.719 272.724 457.526C276.411 457.298 276.534 452.609 276.692 448.922C277.43 431.59 280.556 385.389 282.61 365.266C286.842 324.228 263.681 284.613 237.657 282.277Z" fill="white" stroke="#263238" stroke-width="1.00396" stroke-miterlimit="10"/>
<g style="mix-blend-mode:multiply">
<path d="M280.679 388.603C281.381 379.489 282.084 371.218 282.698 365.266C282.874 363.51 282.979 361.754 283.067 359.998L241.081 367.022L205.013 354.73C205.017 362.193 205.439 369.65 206.277 377.066L241.66 386.97L280.679 388.603Z" fill="#FFC100"/>
</g>
<g style="mix-blend-mode:multiply">
<path d="M236.093 283.998C233.705 286.649 228.964 292.04 224.451 297.765L251.107 324.86L259.887 321.348L236.093 283.998Z" fill="#FFC100"/>
</g>
<path d="M237.657 282.277C237.657 282.277 221.853 299.363 215.9 309.987C214.135 313.215 212.705 316.616 211.633 320.136L243.416 283.418C241.539 282.85 239.609 282.467 237.657 282.277Z" fill="#263238"/>
<g style="mix-blend-mode:multiply">
<path d="M206.593 342.789L241.081 354.133L282.961 349.321C282.305 338.888 279.987 328.627 276.095 318.925L242.327 332.464L212.142 318.784C209.673 326.63 207.818 334.656 206.593 342.789Z" fill="#FFC100"/>
</g>
<g style="mix-blend-mode:multiply">
<path d="M265.963 431.59C248.471 434.527 230.523 433.06 213.74 427.323L205.328 424.443L202.712 445.515L212.3 448.202C230.526 453.298 249.576 454.765 268.369 452.521L276.113 451.591C276.516 450.737 276.743 449.812 276.78 448.869C276.991 444.18 277.359 437.367 277.834 429.553L265.963 431.59Z" fill="#FFC100"/>
</g>
<g style="mix-blend-mode:multiply">
<path d="M270.652 402.897C253.16 405.845 235.207 404.372 218.429 398.612L207.717 394.942C207.983 398.768 207.93 402.609 207.559 406.426L206.312 416.558L216.989 419.544C235.209 424.645 254.253 426.119 273.041 423.881L278.309 423.249C278.748 416.225 279.257 408.744 279.801 401.351L270.652 402.897Z" fill="#FFC100"/>
</g>
<path d="M105.906 328.639L139.859 355.938L141.323 354.118L107.37 326.819L105.906 328.639Z" fill="#263238"/>
<path d="M254.005 301.224C254.005 301.224 266.455 309.706 266.736 329.742C266.859 338.522 265.946 346.722 263.926 361.104C261.907 375.486 249.369 422.318 239.606 428.008C229.842 433.697 214.688 422.95 214.688 422.95L141.393 374.292L123.675 359.98L114.895 343.403L117.651 338.135L139.268 354.712L127.626 343.948L129.908 341.05L134.123 343.983L146.415 348.584L149.101 366.144L152.894 368.743L223.011 394.363C223.011 394.363 222.133 356.626 222.783 349.409C223.433 342.192 224.328 324.052 232.055 310.9" fill="white"/>
<mask id="mask4_395_29245" style="mask-type:luminance" maskUnits="userSpaceOnUse" x="114" y="301" width="153" height="129">
<path d="M254.005 301.224C254.005 301.224 266.455 309.706 266.736 329.742C266.859 338.522 265.946 346.722 263.926 361.104C261.907 375.486 249.369 422.318 239.606 428.008C229.842 433.697 214.688 422.95 214.688 422.95L141.393 374.292L123.675 359.98L114.895 343.403L117.651 338.135L139.268 354.712L127.626 343.948L129.908 341.05L134.123 343.983L146.415 348.584L149.101 366.144L152.894 368.743L223.011 394.363C223.011 394.363 222.133 356.626 222.783 349.409C223.433 342.192 224.328 324.052 232.055 310.9" fill="white"/>
</mask>
<g mask="url(#mask4_395_29245)">
<g style="mix-blend-mode:multiply" opacity="0.5">
<path d="M222.52 365.845C222.52 378.875 222.959 394.363 222.959 394.363L152.912 368.848L149.119 366.249L146.432 348.689L134.14 344.088L129.944 341.103L127.661 344.001L139.268 354.712L117.652 338.135L115.035 343.316L123.815 359.892L141.533 374.292L145.993 377.259L242.837 408.463L222.52 365.845Z" fill="#FFC100"/>
</g>
</g>
<path d="M254.005 301.224C254.005 301.224 266.455 309.706 266.736 329.742C266.859 338.522 265.946 346.722 263.926 361.104C261.907 375.486 249.369 422.318 239.606 428.008C229.842 433.697 214.688 422.95 214.688 422.95L141.393 374.292L123.675 359.98L114.895 343.403L117.651 338.135L139.268 354.712L127.626 343.948L129.908 341.05L134.123 343.983L146.415 348.584L149.101 366.144L152.894 368.743L223.011 394.363C223.011 394.363 222.133 356.626 222.783 349.409C223.433 342.192 224.328 324.052 232.055 310.9" stroke="#263238" stroke-width="1.00396" stroke-miterlimit="10"/>
<path d="M223.012 394.363L249.773 413.679L256.71 401.387C256.71 401.387 261.503 397.611 262.206 394.767C262.908 391.922 262.013 387.304 262.733 384.459C263.453 381.614 267.035 378.945 267.368 372.061C267.702 365.178 267.368 359.436 267.368 359.436C267.368 359.436 273.163 335.607 272.531 325.246C271.899 314.886 261.907 296.571 253.9 296.167C245.893 295.763 235.48 296.975 227.402 309.197C219.324 321.418 220.975 357.1 219.711 359.33C218.446 361.561 220.202 372.571 220.202 372.571C219.501 373.094 218.918 373.761 218.494 374.527C218.07 375.293 217.815 376.141 217.744 377.013C217.603 379.876 220.694 386.917 220.694 386.917L223.012 394.363Z" fill="white" stroke="#263238" stroke-width="1.00396" stroke-miterlimit="10"/>
<g style="mix-blend-mode:multiply">
<path d="M220.413 350.164C220.468 353.228 220.239 356.291 219.728 359.313C218.605 361.315 219.886 370.358 220.167 372.202C235.219 376.877 251.136 378.078 266.719 375.714C267.054 374.493 267.254 373.238 267.316 371.974C267.667 365.108 267.316 359.348 267.316 359.348C267.316 359.348 267.825 357.223 268.528 353.992C252.389 355.018 236.187 353.729 220.413 350.164Z" fill="#FFC100"/>
</g>
<g style="mix-blend-mode:multiply">
<path d="M226.313 311.146C223.801 316.185 222.397 323.754 221.589 331.428C237.53 337.511 254.717 339.603 271.652 337.521C272.328 333.46 272.628 329.345 272.548 325.229C272.244 321.975 271.475 318.782 270.265 315.746C255.478 316.092 240.708 314.546 226.313 311.146Z" fill="#FFC100"/>
</g>
<path d="M220.693 387.11L222.959 394.363L249.72 413.679L256.656 401.387C256.656 401.387 261.45 397.611 262.153 394.766C262.278 394.272 262.354 393.766 262.381 393.256C248.278 393.013 234.266 390.947 220.693 387.11Z" fill="#263238"/>
<path d="M240.063 734.166C240.063 734.166 240.66 718.959 243.575 696.728C246.489 674.497 239.483 642.924 238.307 637.656C237.13 632.388 238.904 620.693 237.727 616.584C236.551 612.475 230.861 594.951 234.215 574.616C237.569 554.282 240.291 500.53 240.291 500.53C240.291 500.53 231.844 493.664 229.368 484.726C226.893 475.788 228.789 472.979 228.789 472.979" stroke="#263238" stroke-width="1.00396" stroke-miterlimit="10"/>
<path d="M243.978 473.804L240.729 491.785" stroke="#263238" stroke-width="1.00396" stroke-miterlimit="10"/>
</g>
<defs>
<clipPath id="clip0_395_29245">
<rect width="878" height="756" fill="white"/>
</clipPath>
</defs>
</svg>
